<svg width="126" height="27" viewBox="0 0 126 27" fill="none" xmlns="http://www.w3.org/2000/svg">
<g clip-path="url(#clip0_201_504)">
<path d="M50.5239 18.4935C50.5239 18.5592 50.4955 18.6155 50.4449 18.6593C50.3912 18.7062 50.3312 18.7281 50.2648 18.7281H44.0718C44.0054 18.7281 43.9486 18.7031 43.9043 18.6593C43.8569 18.6123 43.8348 18.5592 43.8348 18.4935V3.3916H41.2028V18.6092C41.2028 19.1098 41.3292 19.5666 41.5819 19.9795C41.8347 20.3925 42.1696 20.7242 42.5867 20.9776C43.007 21.2279 43.4683 21.353 43.9738 21.353H50.4039C50.9094 21.353 51.3707 21.2279 51.7878 20.9776C52.208 20.7273 52.543 20.3957 52.7958 19.9795C53.0485 19.5634 53.1749 19.1098 53.1749 18.6092V3.3916H50.5239V18.4903V18.4935Z" fill="white"/>
<path d="M126 21.3532L121.832 13.0405H122.625C123.131 13.0405 123.595 12.9185 124.022 12.6744C124.449 12.4304 124.787 12.0988 125.039 11.6764C125.292 11.254 125.419 10.7941 125.419 10.2967V6.15437C125.419 5.65379 125.292 5.19701 125.039 4.78404C124.787 4.36793 124.449 4.0363 124.022 3.78601C123.595 3.53572 123.131 3.41057 122.625 3.41057L117.627 3.38867H72.8694C72.3639 3.38867 71.9025 3.51382 71.4855 3.76411C71.0652 4.0144 70.7303 4.34603 70.4775 4.76214C70.2247 5.17511 70.0983 5.63189 70.0983 6.13247V10.3029C70.0983 10.816 70.2247 11.2791 70.4775 11.6952C70.7303 12.1081 71.0652 12.4398 71.4855 12.6932C71.9025 12.9435 72.3639 13.0686 72.8694 13.0686H79.192C79.2584 13.0686 79.3152 13.0874 79.3626 13.1281C79.41 13.1687 79.4321 13.2188 79.4321 13.2845V18.4905C79.4321 18.5562 79.4069 18.6125 79.3626 18.6563C79.3152 18.7033 79.2584 18.7252 79.192 18.7252H58.3031V13.0655H65.0586L67.0524 10.4218H58.3031V6.01358H65.6368L67.6306 3.38867H57.8039C56.6158 3.38867 55.6553 4.3429 55.6553 5.51926V19.0005C55.6553 20.2989 56.7169 21.3501 58.0282 21.3501H79.3152C79.8208 21.3501 80.2821 21.2249 80.6992 20.9746C81.1194 20.7244 81.4544 20.3927 81.7071 19.9797C81.9599 19.5636 82.0863 19.1069 82.0863 18.6063V13.1844C82.0863 12.6713 81.9599 12.2083 81.7071 11.7921C81.4544 11.3792 81.1194 11.0475 80.6992 10.7972C80.2821 10.547 79.8176 10.4218 79.3152 10.4218H72.9705C72.9042 10.4218 72.8473 10.403 72.8031 10.3624C72.7588 10.3217 72.7335 10.2716 72.7335 10.2059V6.25136C72.7335 6.18566 72.7557 6.12934 72.8031 6.08554C72.8505 6.03861 72.9042 6.01671 72.9705 6.01671H89.2115V21.3532H91.8625V6.01671H99.0034V19.0036C99.0034 20.302 100.065 21.3532 101.376 21.3532H108.012L110.006 18.7283H101.654V13.0686H107.434L109.427 10.4249H101.654V6.01671H113.456V21.3532H116.085V13.0592L118.395 13.0499L122.512 21.3563H126.006L126 21.3532ZM116.148 10.3561C116.101 10.3154 116.079 10.2654 116.079 10.1997V6.25449C116.079 6.18879 116.101 6.13247 116.148 6.08867C116.195 6.04174 116.249 6.01984 116.316 6.01984H122.502C122.569 6.01984 122.629 6.04487 122.679 6.08867C122.733 6.1356 122.758 6.19192 122.758 6.25449V10.1997C122.758 10.2654 122.73 10.3186 122.679 10.3561C122.625 10.3968 122.565 10.4156 122.502 10.4156H116.316C116.249 10.4156 116.192 10.3968 116.148 10.3561Z" fill="white"/>
<path d="M34.6747 23.6087L33.215 21.0558H28.9493C27.755 21.0558 26.7502 20.1172 26.7502 18.8783V5.56912C26.7502 4.33019 27.755 3.3916 28.9493 3.3916H36.5327C37.727 3.3916 38.7318 4.33019 38.7318 5.56912V18.8783C38.7318 20.1172 37.727 21.0558 36.5327 21.0558H35.8691L37.4047 23.6087H34.6747ZM36.1156 6.05719C36.1156 5.86947 35.9639 5.7193 35.7743 5.7193H29.7077C29.5181 5.7193 29.3664 5.86947 29.3664 6.05719V18.3902C29.3664 18.5779 29.5181 18.7281 29.7077 18.7281H35.7743C35.9639 18.7281 36.1156 18.5779 36.1156 18.3902V6.05719Z" fill="white"/>
<path d="M0 4.87752V23.4928H7.57384V0L0 4.87752Z" fill="white"/>
<path d="M19.7135 22.1221V3.50684H12.1396V26.9997L19.7135 22.1221Z" fill="white"/>
<path opacity="0.7" d="M12.1396 8.02144H7.57385V6.39455L12.1396 3.50684V8.02144Z" fill="white"/>
<path opacity="0.7" d="M7.57385 18.9785H12.1396V20.6054L7.57385 23.4931V18.9785Z" fill="white"/>
</g>
<defs>
<clipPath id="clip0_201_504">
<rect width="126" height="27" fill="white"/>
</clipPath>
</defs>
</svg>
