<svg width="16" height="16" viewBox="0 0 16 16" fill="none" xmlns="http://www.w3.org/2000/svg">
<path d="M8 7.33325C8.55228 7.33325 9 6.88554 9 6.33325C9 5.78097 8.55228 5.33325 8 5.33325C7.44772 5.33325 7 5.78097 7 6.33325C7 6.88554 7.44772 7.33325 8 7.33325Z" fill="white"/>
<path d="M7.99984 1.33325C6.59454 1.33318 5.24601 1.88776 4.24733 2.87645C3.24866 3.86513 2.68056 5.20803 2.6665 6.61325C2.6665 10.2666 7.3665 14.3333 7.5665 14.5066C7.68726 14.6099 7.84094 14.6666 7.99984 14.6666C8.15874 14.6666 8.31242 14.6099 8.43317 14.5066C8.6665 14.3333 13.3332 10.2666 13.3332 6.61325C13.3191 5.20803 12.751 3.86513 11.7523 2.87645C10.7537 1.88776 9.40513 1.33318 7.99984 1.33325ZM7.99984 8.66659C7.53835 8.66659 7.08722 8.52974 6.70351 8.27335C6.31979 8.01696 6.02072 7.65254 5.84412 7.22618C5.66751 6.79982 5.62131 6.33066 5.71134 5.87804C5.80137 5.42542 6.0236 5.00966 6.34992 4.68334C6.67624 4.35701 7.092 4.13479 7.54463 4.04475C7.99725 3.95472 8.4664 4.00093 8.89277 4.17753C9.31913 4.35414 9.68354 4.65321 9.93993 5.03692C10.1963 5.42064 10.3332 5.87176 10.3332 6.33325C10.3332 6.95209 10.0873 7.54558 9.64975 7.98317C9.21217 8.42075 8.61868 8.66659 7.99984 8.66659Z" fill="white"/>
</svg>
