<svg width="120" height="120" viewBox="0 0 120 120" fill="none" xmlns="http://www.w3.org/2000/svg">
<path d="M44.2422 95.9526C39.0388 95.9526 34.5934 94.0882 30.9265 90.3801C27.2595 86.672 25.4158 82.1767 25.4158 76.915V39.917C23.3673 39.917 21.626 39.192 20.1715 37.7212C18.717 36.2504 18 34.4896 18 32.4387V25.499C18 23.4482 18.717 21.6666 20.1715 20.2166C21.626 18.725 23.3673 18 25.4158 18H63.0685C65.0966 18 66.8584 18.725 68.2924 20.1958C69.7264 21.6666 70.4639 23.4275 70.4639 25.4783V32.418C70.4639 34.4689 69.7469 36.2504 68.2924 37.7005C66.8379 39.1506 65.0966 39.8963 63.0685 39.8963V58.706C61.8189 59.7832 60.7127 61.0055 59.7498 62.3727C58.787 63.7399 58.0086 65.2314 57.3735 66.8265H45.246V62.1241H58.3978V54.3972H45.246V49.6948H58.3978V39.8963H30.0456V76.915C30.0456 80.9131 31.4181 84.3104 34.1632 87.0863C36.9083 89.8622 40.2475 91.2501 44.2217 91.2501C46.9258 91.2501 49.3431 90.5872 51.4941 89.2822C53.6451 87.9564 55.3045 86.1955 56.4926 83.9997C56.7999 84.8698 57.1687 85.6984 57.5989 86.4856C58.0086 87.2728 58.4797 88.0392 58.9919 88.8057C57.2301 91.0223 55.0996 92.7831 52.5389 94.0467C49.9987 95.3311 47.2331 95.9733 44.2422 95.9526ZM45.2665 79.2558V74.5534H55.3864C55.3249 75.3199 55.3045 76.1071 55.3659 76.8943C55.4069 77.6815 55.4888 78.4686 55.5913 79.2558H45.2665ZM23.8999 35.2146H64.564C64.9327 35.2146 65.24 35.0903 65.4654 34.8624C65.6907 34.6346 65.8136 34.3238 65.8136 33.951V23.9661C65.8136 23.5932 65.6907 23.2825 65.4654 23.0546C65.2195 22.806 64.9327 22.7024 64.564 22.7024H23.8999C23.5311 22.7024 23.2239 22.8267 22.9985 23.0546C22.7527 23.3032 22.6503 23.5932 22.6503 23.9661V33.9302C22.6503 34.3031 22.7732 34.6139 22.9985 34.8417C23.2239 35.0696 23.5311 35.1939 23.8999 35.1939V35.2146ZM79.0269 88.1635C82.2841 88.1635 85.0292 87.0242 87.2826 84.7662C89.536 82.5082 90.6628 79.7116 90.6628 76.4178C90.6628 73.124 89.5361 70.3482 87.3031 68.0695C85.0702 65.7907 82.3046 64.6514 79.0474 64.6514C75.7901 64.6514 73.0451 65.7907 70.7916 68.0487C68.5382 70.3067 67.4115 73.1033 67.4115 76.3971C67.4115 79.6909 68.5382 82.4668 70.7712 84.7455C73.0041 87.0242 75.7697 88.1635 79.0269 88.1635ZM99.9428 100.821L88.7781 89.5307C87.3646 90.5872 85.8281 91.4159 84.1688 91.9959C82.5299 92.5759 80.8091 92.8659 79.0269 92.8659C74.4995 92.8659 70.6687 91.2709 67.4934 88.0599C64.3386 84.849 62.7408 80.9752 62.7408 76.3971C62.7408 71.819 64.3182 67.9452 67.4934 64.755C70.6687 61.5648 74.4995 59.9697 79.0269 59.9697C83.5542 59.9697 87.385 61.5648 90.5398 64.7757C93.6946 67.9659 95.272 71.8604 95.272 76.4385C95.272 78.2408 94.9852 79.9809 94.4116 81.6381C93.838 83.2954 93.0186 84.849 91.9739 86.2991L103.139 97.5891L99.9018 100.862L99.9428 100.821Z" fill="#283063"/>
</svg>
