<svg width="120" height="120" viewBox="0 0 120 120" fill="none" xmlns="http://www.w3.org/2000/svg">
<path d="M30.4701 106.8V86.9471C25.7691 82.6859 22.132 77.7842 19.5093 72.2667C16.9113 66.7492 15.6 61.0101 15.6 55.0492C15.6 43.4231 19.6825 33.5459 27.8722 25.4175C36.0619 17.2644 46.0082 13.2002 57.6866 13.2002C67.2866 13.2002 75.8969 16.0575 83.468 21.772C91.0392 27.4865 95.9629 34.9006 98.2392 44.0389L104.301 67.9562C104.598 69.0646 104.375 70.0745 103.682 70.9859C102.99 71.8726 102.049 72.3406 100.837 72.3406H89.8515V89.8783C89.8515 91.7996 89.1588 93.4745 87.7485 94.8785C86.3382 96.2825 84.6557 96.9722 82.7258 96.9722H70.0577V106.825H64.4412V91.3808H82.701C83.1464 91.3808 83.5175 91.233 83.7897 90.9621C84.0619 90.6911 84.2103 90.3217 84.2103 89.8783V66.7739H98.1155L92.7959 45.4183C90.8412 37.5608 86.5856 31.1566 80.0041 26.2303C73.4227 21.304 65.9753 18.8408 57.6619 18.8408C47.5423 18.8408 38.932 22.3385 31.8557 29.3092C24.7794 36.28 21.2165 44.8025 21.2165 54.8522C21.2165 60.0741 22.2804 65.0004 24.433 69.6558C26.5608 74.3111 29.5794 78.4492 33.4887 82.0455L36.0866 84.484V106.825H30.4701V106.8ZM54.668 72.4884H60.5567L60.8289 67.6852C62.0412 67.4882 63.1794 67.0695 64.2928 66.4537C65.3814 65.8379 66.3217 65.0743 67.1134 64.1876L71.5918 65.9118L74.3876 61.1825L70.9979 58.5223C71.5175 57.1676 71.765 55.7882 71.765 54.3596C71.765 52.9309 71.5175 51.5516 70.9979 50.1968L74.3876 47.5366L71.5918 42.8074L67.1134 44.5316C66.2969 43.6695 65.332 42.9551 64.2433 42.364C63.1546 41.7728 62.0165 41.3295 60.8536 41.0831L60.5814 36.2307H54.6928L54.4206 41.0831C53.233 41.3295 52.0701 41.7482 50.9814 42.364C49.8928 42.9551 48.9278 43.6941 48.1113 44.5316L43.633 42.8074L40.8866 47.5366L44.2763 50.1968C43.732 51.5516 43.4598 52.9309 43.4598 54.3596C43.4598 55.7882 43.732 57.1676 44.2763 58.5223L40.8866 61.1825L43.633 65.9118L48.1113 64.1876C48.9031 65.0743 49.8433 65.8379 50.932 66.4537C52.0206 67.0695 53.1835 67.4882 54.4206 67.6852L54.6928 72.4884H54.668ZM57.6371 63.5718C55.0392 63.5718 52.8619 62.685 51.0804 60.8869C49.299 59.1135 48.4082 56.9459 48.4082 54.3842C48.4082 51.8225 49.299 49.6303 51.0804 47.8568C52.8619 46.0834 55.0392 45.1966 57.6124 45.1966C60.1856 45.1966 62.3629 46.0834 64.1691 47.8568C65.9753 49.6303 66.866 51.7979 66.866 54.3596C66.866 56.9212 65.9753 59.0888 64.1691 60.8869C62.3876 62.685 60.2103 63.5718 57.6371 63.5718Z" fill="#283063"/>
</svg>
