<svg width="297" height="90" viewBox="0 0 297 90" fill="none" xmlns="http://www.w3.org/2000/svg">
<path d="M77.0978 58.8162C77.0978 57.8941 76.7173 57.3985 75.7142 57.3985C75.403 57.3985 74.2846 57.4561 74.2846 59.0814V61.721C74.2846 63.4269 74.7804 63.8649 75.7142 63.8649C76.4291 63.8649 76.9018 63.669 77.1093 63.5191V61.1907H75.6797V60.3262H78.1124V64.1185C77.4667 64.4643 76.7173 64.7064 75.7142 64.7064C74.0655 64.7064 73.27 63.8534 73.27 61.6864V59.1275C73.27 57.5714 74.0771 56.5801 75.7142 56.5801C77.3514 56.5801 78.2046 57.191 78.1469 58.8278H77.1093L77.0978 58.8162Z" fill="white"/>
<path d="M83.4967 56.7295H84.4997L82.3668 61.5592V64.533H81.3753V61.5592L79.2885 56.7295H80.4068L81.9287 60.4987L83.5082 56.7295H83.4967Z" fill="white"/>
<path d="M85.5951 64.5213V56.7178H89.6073V57.5823H86.5866V60.0836H89.3883V60.9481H86.5866V63.6568H89.6765V64.5213H85.5951Z" fill="white"/>
<path d="M91.0599 61.6747V59.1157C91.0599 57.5597 91.867 56.5684 93.5157 56.5684C95.1644 56.5684 95.9714 57.5597 95.9714 59.1157V61.6747C95.9714 63.8417 95.1644 64.6946 93.5157 64.6946C91.867 64.6946 91.0599 63.8417 91.0599 61.6747ZM94.9569 61.7208V59.0812C94.9569 57.4559 93.8385 57.3983 93.5272 57.3983C93.2159 57.3983 92.0861 57.4559 92.0861 59.0812V61.7208C92.0861 63.4267 92.5818 63.8647 93.5272 63.8647C94.4726 63.8647 94.9569 63.4382 94.9569 61.7208Z" fill="white"/>
<path d="M103.223 56.7295V64.533H101.851L98.7731 57.7669H98.7385V64.533H97.8623V56.7295H99.2574L102.301 63.4149H102.324V56.7295H103.212H103.223Z" fill="white"/>
<path d="M108.873 58.8162C108.873 57.8941 108.492 57.3985 107.478 57.3985C107.167 57.3985 106.037 57.4561 106.037 59.0814V61.721C106.037 63.4269 106.532 63.8649 107.478 63.8649C108.193 63.8649 108.665 63.669 108.873 63.5191V61.1907H107.443V60.3262H109.864V64.1185C109.219 64.4643 108.481 64.7064 107.478 64.7064C105.829 64.7064 105.022 63.8534 105.022 61.6864V59.1275C105.022 57.5714 105.818 56.5801 107.478 56.5801C109.138 56.5801 109.968 57.191 109.899 58.8278H108.861L108.873 58.8162Z" fill="white"/>
<path d="M112.608 62.2049V62.4354C112.608 63.4959 113.277 63.8301 113.923 63.8301C114.718 63.8301 115.306 63.4959 115.306 62.5737C115.306 60.8447 111.813 61.0292 111.813 58.6893C111.813 57.3061 112.793 56.5684 114.107 56.5684C115.525 56.5684 116.321 57.26 116.263 58.8506H115.225C115.237 57.9977 114.972 57.4329 114.026 57.4329C113.427 57.4329 112.827 57.7325 112.827 58.574C112.827 60.2915 116.321 60.0494 116.321 62.5161C116.321 64.1529 115.191 64.6946 113.9 64.6946C111.594 64.7177 111.594 62.9541 111.617 62.2049H112.608Z" fill="white"/>
<path d="M119.722 56.7295H120.979L123.515 64.533H122.408L121.843 62.6772H118.823L118.246 64.533H117.232L119.722 56.7295ZM120.322 57.6516H120.299L119.088 61.8127H121.578L120.333 57.6516H120.322Z" fill="white"/>
<path d="M130.064 56.7295V64.533H128.703L125.637 57.7669H125.602V64.533H124.714V56.7295H126.121L129.165 63.4149H129.188V56.7295H130.075H130.064Z" fill="white"/>
<path d="M135.713 58.8162C135.713 57.8941 135.333 57.3985 134.33 57.3985C134.018 57.3985 132.888 57.4561 132.888 59.0814V61.721C132.888 63.4269 133.373 63.8649 134.33 63.8649C135.044 63.8649 135.517 63.669 135.725 63.5191V61.1907H134.295V60.3262H136.728V64.1185C136.082 64.4643 135.333 64.7064 134.33 64.7064C132.669 64.7064 131.874 63.8534 131.874 61.6864V59.1275C131.874 57.5714 132.669 56.5801 134.33 56.5801C135.99 56.5801 136.808 57.191 136.751 58.8278H135.713V58.8162Z" fill="white"/>
<path d="M144.095 56.7295V64.533H142.735L139.656 57.7669H139.633V64.533H138.757V56.7295H140.152L143.173 63.4149H143.207V56.7295H144.095Z" fill="white"/>
<path d="M147.761 56.7295H149.03L151.566 64.533H150.459L149.906 62.6772H146.885L146.309 64.533H145.294L147.773 56.7295H147.761ZM148.361 57.6516H148.349L147.127 61.8127H149.629L148.373 57.6516H148.361Z" fill="white"/>
<path d="M153.653 64.5213H152.719V56.7178H154.322L156.293 63.2649H156.316L158.299 56.7178H159.948V64.5213H158.957V57.5823H158.933L156.743 64.5213H155.797L153.665 57.5823H153.641V64.5213H153.653Z" fill="white"/>
<path d="M161.839 56.7293H164.249C165.252 56.7293 165.955 57.0866 166.347 57.9165C166.658 58.5736 166.693 60.1297 166.693 60.3717C166.693 62.0431 166.543 62.9998 166.22 63.5185C165.805 64.187 165.021 64.5213 163.649 64.5213H161.85V56.7178L161.839 56.7293ZM162.842 63.6683H163.776C165.159 63.6683 165.667 63.1381 165.667 61.3284V59.7493C165.667 58.1701 165.182 57.5938 164.156 57.5938H162.853V63.6683H162.842Z" fill="white"/>
<path d="M168.503 61.6747V59.1157C168.503 57.5597 169.31 56.5684 170.959 56.5684C172.607 56.5684 173.403 57.5597 173.403 59.1157V61.6747C173.403 63.8417 172.607 64.6946 170.959 64.6946C169.31 64.6946 168.503 63.8417 168.503 61.6747ZM172.4 61.7208V59.0812C172.4 57.4559 171.281 57.3983 170.97 57.3983C170.659 57.3983 169.517 57.4559 169.517 59.0812V61.7208C169.517 63.4267 170.025 63.8647 170.97 63.8647C171.916 63.8647 172.4 63.4382 172.4 61.7208Z" fill="white"/>
<path d="M177.726 61.6747V59.1157C177.726 57.5597 178.522 56.5684 180.182 56.5684C181.842 56.5684 182.626 57.5597 182.626 59.1157V61.6747C182.626 63.8417 181.842 64.6946 180.182 64.6946C178.522 64.6946 177.726 63.8417 177.726 61.6747ZM181.623 61.7208V59.0812C181.623 57.4559 180.493 57.3983 180.182 57.3983C179.871 57.3983 178.741 57.4559 178.741 59.0812V61.7208C178.741 63.4267 179.237 63.8647 180.182 63.8647C181.127 63.8647 181.623 63.4382 181.623 61.7208Z" fill="white"/>
<path d="M184.39 64.5213V56.7178H188.264V57.5823H185.393V60.0836H188.114V60.9481H185.393V64.5213H184.39Z" fill="white"/>
<path d="M189.302 64.5213V56.7178H193.164V57.5823H190.293V60.0836H193.003V60.9481H190.293V64.5213H189.302Z" fill="white"/>
<path d="M195.389 64.5213H194.398V56.7178H195.389V64.5213Z" fill="white"/>
<path d="M200.831 58.8852C200.831 58.4357 200.797 57.9977 200.601 57.7441C200.393 57.502 199.932 57.4098 199.724 57.4098C198.906 57.4098 198.583 57.9054 198.548 58.0092C198.514 58.1014 198.318 58.2974 198.318 59.6344V61.7208C198.318 63.6342 198.94 63.8647 199.701 63.8647C200.013 63.8647 200.924 63.761 200.935 62.2279H201.961C202.007 64.6946 200.266 64.6946 199.759 64.6946C198.791 64.6946 197.292 64.6255 197.292 61.6055V59.4039C197.292 57.2023 198.26 56.5684 199.805 56.5684C201.35 56.5684 201.927 57.3637 201.834 58.8852H200.82H200.831Z" fill="white"/>
<path d="M203.506 64.5213V56.7178H207.53V57.5823H204.509V60.0836H207.311V60.9481H204.509V63.6568H207.61V64.5213H203.517H203.506Z" fill="white"/>
<path d="M211.484 61.6747V59.1157C211.484 57.5597 212.291 56.5684 213.94 56.5684C215.589 56.5684 216.384 57.5597 216.384 59.1157V61.6747C216.384 63.8417 215.577 64.6946 213.94 64.6946C212.303 64.6946 211.484 63.8417 211.484 61.6747ZM215.381 61.7208V59.0812C215.381 57.4559 214.251 57.3983 213.951 57.3983C213.652 57.3983 212.51 57.4559 212.51 59.0812V61.7208C212.51 63.4267 213.006 63.8647 213.951 63.8647C214.897 63.8647 215.381 63.4382 215.381 61.7208Z" fill="white"/>
<path d="M218.16 64.5213V56.7178H222.034V57.5823H219.163V60.0836H221.884V60.9481H219.163V64.5213H218.171H218.16Z" fill="white"/>
<path d="M225.654 64.5213V56.7178H229.666V57.5823H226.645V60.0836H229.458V60.9481H226.645V63.6568H229.735V64.5213H225.654Z" fill="white"/>
<path d="M231.188 56.7293H233.575C234.578 56.7293 235.281 57.0866 235.684 57.9165C236.007 58.5736 236.03 60.1297 236.03 60.3717C236.03 62.0431 235.88 62.9998 235.558 63.5185C235.131 64.187 234.347 64.5213 232.987 64.5213H231.2V56.7178L231.188 56.7293ZM232.168 63.6683H233.113C234.497 63.6683 235.004 63.1381 235.004 61.3284V59.7493C235.004 58.1701 234.52 57.5938 233.482 57.5938H232.18V63.6683H232.168Z" fill="white"/>
<path d="M237.84 56.7295H238.832V61.7205C238.832 63.4265 239.351 63.8645 240.285 63.8645C241.219 63.8645 241.749 63.438 241.749 61.7205V56.7295H242.74V61.6744C242.74 63.8414 241.945 64.6944 240.285 64.6944C238.624 64.6944 237.84 63.8414 237.84 61.6744V56.7295Z" fill="white"/>
<path d="M248.021 58.8852C248.021 58.4357 247.986 57.9977 247.79 57.7441C247.583 57.502 247.122 57.4098 246.914 57.4098C246.095 57.4098 245.773 57.9054 245.738 58.0092C245.703 58.1014 245.519 58.2974 245.519 59.6344V61.7208C245.519 63.6342 246.142 63.8647 246.902 63.8647C247.214 63.8647 248.125 63.761 248.136 62.2279H249.162C249.208 64.6946 247.467 64.6946 246.972 64.6946C246.003 64.6946 244.504 64.6255 244.504 61.6055V59.4039C244.504 57.2023 245.473 56.5684 246.995 56.5684C248.517 56.5684 249.139 57.3637 249.047 58.8852H248.021Z" fill="white"/>
<path d="M252.448 56.7295H253.716L256.264 64.533H255.146L254.581 62.6772H251.56L250.984 64.533H249.981L252.448 56.7295ZM253.059 57.6516H253.036L251.826 61.8127H254.316L253.059 57.6516Z" fill="white"/>
<path d="M260.98 56.7295V57.594H258.928V64.533H257.925V57.594H255.884V56.7295H260.98Z" fill="white"/>
<path d="M263.24 64.5213H262.236V56.7178H263.24V64.5213Z" fill="white"/>
<path d="M265.188 61.6747V59.1157C265.188 57.5597 265.995 56.5684 267.655 56.5684C269.316 56.5684 270.1 57.5597 270.1 59.1157V61.6747C270.1 63.8417 269.293 64.6946 267.655 64.6946C266.018 64.6946 265.188 63.8417 265.188 61.6747ZM269.085 61.7208V59.0812C269.085 57.4559 267.967 57.3983 267.655 57.3983C267.344 57.3983 266.214 57.4559 266.214 59.0812V61.7208C266.214 63.4267 266.71 63.8647 267.655 63.8647C268.601 63.8647 269.085 63.4382 269.085 61.7208Z" fill="white"/>
<path d="M277.34 56.7295V64.533H275.968L272.901 57.7669H272.878V64.533H272.002V56.7295H273.397L276.429 63.4149H276.452V56.7295H277.34Z" fill="white"/>
<path d="M277.479 45.0303V28.8699H273.42V33.5152H269.973V35.4747H273.42V39.6128C272.014 38.8981 270.307 38.4486 268.451 38.3564V38.3333C268.451 38.3333 263.332 35.6937 261.96 31.7631V30.9908H267.632V29.0428H261.96V27.4521H258.086V29.0428H252.195V30.9908H258.086V31.5095C256.829 35.59 251.491 38.3333 251.491 38.3333L251.572 40.5349C255.527 39.8548 258.328 37.2844 259.965 35.2326C260.957 36.4429 262.352 37.78 264.128 38.8059C260.496 39.7741 257.902 42.1947 257.902 45.0418C257.902 48.7534 262.283 51.7618 267.69 51.7618C272.475 51.7618 276.475 49.3989 277.306 46.2752L277.479 46.3674V45.0649V45.0303ZM267.69 49.7908C264.692 49.7908 262.26 47.6584 262.26 45.0188C262.26 42.3791 264.692 40.2582 267.69 40.2582C267.84 40.2582 268.001 40.2582 268.163 40.2582C268.232 40.2582 268.29 40.2928 268.37 40.3044V40.2698C271.034 40.5695 273.12 42.5636 273.12 44.9957C273.12 47.6353 270.688 49.7677 267.702 49.7677L267.69 49.7908Z" fill="white"/>
<path d="M88.6159 29.7806H88.5583L88.6967 28.5127H73.2473V30.8757H84.108C83.7736 33.1118 81.8943 38.3564 73.0744 38.5524L72.9937 40.8231C72.9937 40.8231 87.6821 41.3303 88.6044 29.7691L88.6159 29.7806ZM99.4305 43.336V28.6856H90.5644V30.6336H95.3837V33.6536H90.5644V35.6131H95.3837V38.9558C93.9425 38.2873 92.2362 37.8839 90.403 37.8839C85.3185 37.8839 81.779 40.7655 81.779 44.4656C81.779 48.1656 85.3301 51.3009 90.403 51.3009C95.4759 51.3009 99.5919 48.3039 99.5919 44.5924C99.5919 44.1543 99.5343 43.7394 99.442 43.3244L99.4305 43.336ZM90.3915 49.5258C87.44 49.5258 85.3301 47.3357 85.3301 44.6039C85.3301 41.8721 87.44 39.659 90.3915 39.659C93.343 39.659 95.718 41.8721 95.718 44.6039C95.718 47.3357 93.3315 49.5373 90.3915 49.5373V49.5258Z" fill="white"/>
<path d="M131.309 30.6341V28.6861H123.723V39.4174C122.247 38.6797 120.472 38.2301 118.535 38.1494C117.578 37.6653 113.462 35.3715 112.251 31.902V28.1904H108.366V31.6484C107.109 35.7289 101.771 38.4837 101.771 38.4837L101.863 40.6738C105.818 39.9822 108.608 37.4233 110.256 35.3715C111.179 36.4896 112.332 37.7921 113.9 38.7604C110.545 39.8323 108.216 42.1492 108.216 44.8464C108.216 48.558 112.585 51.5549 117.993 51.5549C123.4 51.5549 127.631 48.6617 127.77 45.0424H127.781V44.8464V30.6341H131.321H131.309ZM117.981 49.6069C114.984 49.6069 112.562 47.4745 112.562 44.8349C112.562 42.1953 114.868 40.1897 117.739 40.0859C118.039 40.1205 118.339 40.1436 118.661 40.1436V40.1205C121.336 40.4202 123.4 42.4143 123.4 44.8349C123.4 47.4745 120.979 49.6069 117.981 49.6069Z" fill="white"/>
<path d="M154.033 28.6855V37.0424H137.731V28.6855H134.099V38.9788H154.033V41.6761H136.313V42.0219V50.298H158.08V46.1484V30.6335H161.631V28.6855H154.045H154.033ZM154.033 48.35H140.359V43.6356H154.033V48.35Z" fill="white"/>
<path d="M194.11 29.0205V30.98H212.337V48.2585H208.89V37.8038H204.832V48.2585H201.281V37.8038H197.234V48.2585H193.095V50.2065H216.396V29.0205H194.11Z" fill="white"/>
<path d="M187.353 30.98V29.0205H165.078V41.1696H168.284V41.1811H174.613V48.2585H165.078V50.218H187.353V48.2585H178.66V41.1811H187.353V39.2331H169.125V30.98H187.353Z" fill="white"/>
<path d="M247.71 41.0194V39.0829H220.869V41.0194H227.406V43.3708H222.714V45.3303H241.634V50.2061H245.68V43.3708H240.538V41.0194H247.71ZM236.48 43.3708H231.465V41.0194H236.48V43.3708ZM234.255 37.5153C240.584 37.5153 245.738 35.1292 245.738 32.19C245.738 29.2507 240.584 26.8877 234.255 26.8877C227.925 26.8877 222.76 29.2622 222.76 32.19C222.76 35.1177 227.902 37.5153 234.255 37.5153ZM234.255 28.9049C237.644 28.9049 240.4 30.3687 240.4 32.1784C240.4 33.9881 237.644 35.4866 234.255 35.4866C230.865 35.4866 228.098 34.0227 228.098 32.1784C228.098 30.3342 230.854 28.9049 234.255 28.9049Z" fill="white"/>
<path d="M46.6487 64.8676C32.0871 69.6857 23.3248 61.4903 21.7799 59.3694C14.7931 49.9521 22.2065 41.4339 30.45 38.0566C30.45 38.0566 21.9874 42.4944 23.9013 49.4565C25.8036 56.4301 34.1509 59.0697 41.9678 56.9603L50.0038 54.1133L57.5094 61.2252L46.6718 64.8676H46.6487Z" fill="white"/>
<path d="M29.3547 43.8196L36.8488 50.9431L44.8848 48.096C52.6902 45.9751 61.049 48.6147 62.9398 55.5998C64.8421 62.5735 56.3911 66.9997 56.3911 66.9997C64.6231 63.6224 71.0565 54.9428 64.8421 45.7676C63.3664 43.5891 55.7224 34.8865 40.4806 39.9928L29.3547 43.8311V43.8196Z" fill="white"/>
<path d="M50.4076 28.9736C50.4076 32.812 47.2831 35.9357 43.4323 35.9357C39.5815 35.9357 36.457 32.812 36.457 28.9736C36.457 25.1352 39.5815 22 43.4323 22C47.2831 22 50.4076 25.1237 50.4076 28.9736Z" fill="white"/>
</svg>
