<svg width="297" height="90" viewBox="0 0 297 90" fill="none" xmlns="http://www.w3.org/2000/svg">
<path d="M110.757 51.3809H110.731C110.731 51.3809 108.328 59.6219 108.269 59.808H116.899C116.899 59.808 115.748 67.1944 106.018 67.1944C104.199 67.1944 94.3762 67.5836 96.6606 55.5268C97.5998 50.5771 99.385 42.9284 96.1783 37.5304C96.1445 37.4542 93.7924 31.4554 80.8471 31.4385H61.6408L59.1956 39.7302H77.0143C90.8818 39.7302 88.0897 48.9865 87.5312 52.7178C86.3975 60.2226 82.0655 75.4523 103.785 75.6469C109.75 75.6977 115.943 74.0562 120.8 70.2404C125.792 66.3145 126.968 60.6541 126.976 60.6372L129.701 51.3894H110.757V51.3809Z" fill="white"/>
<path fill-rule="evenodd" clip-rule="evenodd" d="M156.564 20.965C157.537 17.6737 161.26 15 164.881 15C168.502 15 170.651 17.6737 169.678 20.965C168.705 24.2478 164.982 26.9299 161.361 26.9299C157.74 26.9299 155.599 24.2563 156.564 20.965Z" fill="white"/>
<path d="M215.977 31.3555C215.723 32.2016 213.726 39.0041 213.472 39.8502C214.225 39.8502 222.602 39.8502 224.489 39.8502C224.395 40.1717 216.307 67.5683 216.307 67.5683C216.154 68.0759 214.784 73.8886 210.257 72.831C208.844 72.501 207.355 71.3249 206.881 70.5211C206.881 70.5211 206.898 70.5634 206.941 70.6565C208.354 73.2286 210.993 75.4454 215.757 75.4539C220.977 75.4539 225.927 71.9257 228.059 64.7169L235.386 39.8587H246.495C246.741 39.0126 248.755 32.21 249 31.3639H215.977V31.3555Z" fill="white"/>
<path d="M67.1657 66.0705C65.5665 66.0367 63.7389 66.0367 62.3683 66.0451L68.7224 44.4697H57.7994L49 74.3622H64.8389C70.1185 74.3622 72.3437 74.1761 74.3913 73.8715C78.2326 73.3046 82.1246 71.9847 85.6951 69.8441C84.299 67.1873 83.5968 62.83 84.7305 57.6857C84.7305 57.6857 81.9638 66.3666 67.1657 66.0705Z" fill="white"/>
<path d="M118.227 29.333C106.06 29.333 98.0815 35.9579 98.0815 35.9579C99.7145 38.4624 100.205 41.6691 100.248 44.1735C100.29 46.128 99.9683 48.0317 99.9683 48.0317C103.581 37.5994 116.425 34.2573 119.293 33.7581C134.074 31.169 137.882 38.0309 139.252 40.713C135.902 32.049 125.317 29.333 118.219 29.333H118.227Z" fill="white"/>
<path d="M158.696 30.6784C154.034 32.159 150.599 35.738 149.059 40.8315L141.182 67.5258C140.665 69.2518 139.836 72.5601 138.076 72.2893C136.613 72.0693 135.665 71.054 135.073 69.9456C135.073 69.9456 136.19 75.1575 142.485 75.1575C149.203 75.0983 151.656 68.9726 152.925 64.6575L160.802 37.9548C161.716 34.8327 165.236 30.6022 169.035 32.0237C169.585 32.2352 170.6 32.8698 171.539 34.7481C171.539 34.7481 169.255 27.3025 158.696 30.6615V30.6784Z" fill="white"/>
<path d="M135.073 69.9537C135.209 70.1736 135.344 70.3852 135.471 70.5798C136.063 71.4174 136.909 72.1112 138.077 72.2973C139.837 72.5596 140.666 69.2514 141.182 67.5338L143.323 60.2743L140.59 45.5354C140.328 44.0547 139.964 42.6248 139.566 41.4741C139.448 41.1526 139.312 40.8057 139.143 40.4504C139.177 40.535 139.219 40.6196 139.261 40.7127C137.984 38.2167 134.591 32.0994 122.187 33.3686C125.157 34.8154 128.668 37.9798 130.005 44.9939C130.005 44.9939 133.55 65.7147 135.082 69.9706L135.073 69.9537Z" fill="url(#paint0_linear_145_2308)"/>
<path d="M180.246 72.6535C179.138 71.2659 178.351 69.5568 177.919 67.3655C177.919 67.3655 172.851 39.749 172.344 37.3291C172.267 36.9315 172.014 35.8569 171.548 34.757C170.601 32.8702 169.594 32.2356 169.044 32.0326C165.981 30.8903 163.113 33.4202 161.624 36.0769C162.106 38.6744 166.759 63.8034 167.039 65.2079C167.301 66.5109 167.563 68.7615 168.587 70.2845C172.124 74.4388 177.31 73.6096 180.255 72.6451L180.246 72.6535Z" fill="url(#paint1_linear_145_2308)"/>
<path d="M199.436 30.0691H199.453C198.107 30.0522 196.838 30.0437 194.638 30.2299C190.873 30.5683 185.509 32.2774 182.218 35.6195C181.752 36.0933 175.043 42.5913 178.783 49.7239C180.246 52.516 186.144 60.0039 186.144 60.0039C186.753 60.8331 188.758 63.3037 187.227 66.6119C186.584 67.9911 185.12 70.1317 182.429 71.7308C181.549 72.2215 173.444 76.0628 168.545 70.2417C168.545 70.2417 170.584 75.8767 178.41 75.8767C189.147 75.8767 195.434 70.0471 198.023 65.4782C199.343 63.0837 200.35 59.8009 198.37 56.0188C196.508 52.4653 192.557 47.3718 190.992 45.3834C189.562 43.5813 188.8 41.5337 189.74 39.3339C190.501 37.0325 192.464 34.858 195.129 33.3012C205.866 27.5139 209.589 35.8141 209.589 35.8141C207.914 30.416 201.331 30.0522 199.436 30.0607V30.0691Z" fill="white"/>
<path d="M210.266 72.8302C213.506 73.5832 215.131 70.8165 215.85 68.9974C216.01 68.5659 216.154 68.1259 216.281 67.6775C216.281 67.6775 212.338 42.3793 209.589 35.7967C209.445 35.4921 205.933 28.2495 196.33 32.7C198.336 33.9522 199.825 36.4397 200.882 41.2117L205.68 66.9668C206.027 68.5574 206.441 69.6996 206.906 70.5373C207.406 71.3495 208.869 72.4917 210.266 72.8217V72.8302Z" fill="url(#paint2_linear_145_2308)"/>
<defs>
<linearGradient id="paint0_linear_145_2308" x1="137.338" y1="80.944" x2="137.338" y2="41.4983" gradientUnits="userSpaceOnUse">
<stop offset="0.1" stop-color="#E6E6E6"/>
<stop offset="0.32" stop-color="#E2E2E2"/>
<stop offset="0.5" stop-color="#D8D8D8"/>
<stop offset="0.66" stop-color="#C7C7C7"/>
<stop offset="0.82" stop-color="#B0B0B0"/>
<stop offset="0.96" stop-color="#919191"/>
<stop offset="1" stop-color="#898989"/>
</linearGradient>
<linearGradient id="paint1_linear_145_2308" x1="175.753" y1="80.9448" x2="175.753" y2="41.4992" gradientUnits="userSpaceOnUse">
<stop offset="0.1" stop-color="#E6E6E6"/>
<stop offset="0.32" stop-color="#E2E2E2"/>
<stop offset="0.5" stop-color="#D8D8D8"/>
<stop offset="0.66" stop-color="#C7C7C7"/>
<stop offset="0.82" stop-color="#B0B0B0"/>
<stop offset="0.96" stop-color="#919191"/>
<stop offset="1" stop-color="#898989"/>
</linearGradient>
<linearGradient id="paint2_linear_145_2308" x1="211.352" y1="80.9438" x2="211.352" y2="41.4982" gradientUnits="userSpaceOnUse">
<stop offset="0.1" stop-color="#E6E6E6"/>
<stop offset="0.32" stop-color="#E2E2E2"/>
<stop offset="0.5" stop-color="#D8D8D8"/>
<stop offset="0.66" stop-color="#C7C7C7"/>
<stop offset="0.82" stop-color="#B0B0B0"/>
<stop offset="0.96" stop-color="#919191"/>
<stop offset="1" stop-color="#898989"/>
</linearGradient>
</defs>
</svg>
