<svg width="297" height="90" viewBox="0 0 297 90" fill="none" xmlns="http://www.w3.org/2000/svg">
<path d="M71.2896 50.2144C70.0039 52.8923 68.08 52.8826 66.0305 52.7086L65.8759 53.1436C67.645 54.1974 69.2691 55.3285 68.7374 58.248C68.0124 62.2117 60.6168 64.3579 57.6682 66.5041C54.7196 68.6502 50.3982 75.0114 46.3959 74.4797C43.457 74.093 42.8673 72.2562 42.4032 70.2454H41.9392C41.4848 72.2465 40.9048 74.1414 37.9659 74.5281C33.9635 75.0598 29.6422 68.6986 26.6936 66.5524C23.745 64.4062 16.3494 62.2697 15.6243 58.2964C15.083 55.3768 16.6491 54.2457 18.4182 53.1919L18.2829 52.7472C16.2334 52.9309 14.2516 52.9793 12.9754 50.2917C11.2353 46.6567 15.9434 40.5759 17.0745 37.1053C18.2055 33.6346 17.9735 25.949 21.5118 24.0348C24.122 22.6234 25.6688 23.7641 27.2253 25.1176L27.5927 24.8469C26.7903 22.9521 26.1329 21.0863 28.2791 19.0368C31.1986 16.2622 38.4396 18.8724 42.0842 18.8724C45.7385 18.8724 52.9698 16.2622 55.899 19.0368C58.0452 21.0863 57.4555 22.9231 56.6434 24.8179L57.0301 25.0983C58.5866 23.7448 60.1624 22.546 62.7726 23.9575C66.3206 25.8813 66.0789 33.567 67.2003 37.0376C68.3314 40.5082 73.0395 46.5891 71.2993 50.224M71.831 35.5391C70.6999 32.0685 67.3067 25.0306 63.1206 23.2228C60.9551 22.285 59.3213 22.7587 57.6198 23.9672L57.5135 23.8802C58.1322 21.937 58.0549 20.2549 56.4984 18.4857C53.4822 15.0634 45.7385 14 42.0939 14C38.4492 14 30.7056 15.0538 27.6893 18.476C26.1329 20.2452 26.0749 21.9467 26.6936 23.9382L26.5969 24.0058C24.9438 22.8167 23.3293 22.3624 21.1638 23.2904C16.9778 25.1079 13.5845 32.1362 12.4534 35.6068C11.3223 39.0774 9.93986 46.7631 12.2601 50.6881C13.4588 52.7182 15.0636 53.2983 17.1421 53.3176L17.1808 53.4433C15.5373 54.6517 14.5996 56.0535 14.8219 58.4027C15.2473 62.9464 20.8931 68.3505 23.8417 70.4871C26.7903 72.6332 33.6735 76.3262 38.1302 75.3305C40.4311 74.8181 41.4752 73.4646 42.1422 71.5021H42.2776C42.9156 73.4453 43.9597 74.7697 46.2606 75.2821C50.7173 76.2779 57.6005 72.5849 60.5491 70.4387C63.4977 68.2925 69.1435 62.8981 69.5688 58.3447C69.7912 55.9955 68.8341 54.5841 67.1616 53.3466L67.21 53.2209C69.2498 53.2209 70.8256 52.6312 72.034 50.6011C74.3639 46.6761 72.9718 38.9904 71.8407 35.5198" fill="white"/>
<path d="M42.1517 20.1777C28.3369 20.1777 17.142 31.3727 17.142 45.1875C17.142 59.0023 28.3466 70.1972 42.1517 70.1972C55.9569 70.1972 67.1615 59.0023 67.1615 45.1875C67.1615 31.3727 55.9665 20.1777 42.1517 20.1777ZM42.1517 69.6849C28.6269 69.6849 17.664 58.722 17.664 45.1875C17.664 31.653 28.6269 20.6901 42.1517 20.6901C55.6765 20.6901 66.6491 31.653 66.6491 45.1778C66.6491 58.7026 55.6765 69.6752 42.1517 69.6752" fill="white"/>
<path d="M42.1424 20.7578C40.0639 20.7578 38.3817 22.44 38.3817 24.5185C38.3817 26.597 40.0639 28.2791 42.1424 28.2791C44.2209 28.2791 45.903 26.597 45.903 24.5185C45.903 22.44 44.2209 20.7578 42.1424 20.7578ZM42.1424 27.9601C40.2379 27.9601 38.7007 26.4133 38.7007 24.5088C38.7007 22.6043 40.2379 21.0672 42.1424 21.0672C44.0469 21.0672 45.5936 22.614 45.5936 24.5088C45.5936 26.4036 44.0469 27.9601 42.1424 27.9601Z" fill="white"/>
<path d="M44.9554 24.7988C45.0521 24.6538 45.1004 24.4992 45.2744 24.4992C45.1004 24.4895 45.0521 24.3348 44.9651 24.1995C44.8587 23.9964 44.6364 23.8514 44.385 23.8514C44.2013 23.8514 44.0466 23.9481 43.921 24.0641H42.5578V22.672C42.6739 22.556 42.7609 22.4013 42.7609 22.2176C42.7609 21.9663 42.6159 21.7536 42.4128 21.6472C42.2775 21.5506 42.1228 21.5119 42.1228 21.3379H42.1131C42.1131 21.5022 41.9488 21.5506 41.8135 21.6472C41.6104 21.7536 41.4654 21.9663 41.4654 22.2176C41.4654 22.4013 41.5621 22.5657 41.6781 22.6817V24.0545H40.2957C40.1796 23.9384 40.0153 23.8611 39.851 23.8611C39.5996 23.8611 39.3869 24.0061 39.2709 24.2091C39.1839 24.3445 39.1356 24.5088 38.9615 24.5088C39.1356 24.5088 39.1839 24.6828 39.2806 24.8182C39.3869 25.0212 39.6093 25.1662 39.8606 25.1662C40.0346 25.1662 40.199 25.0792 40.3247 24.9535H41.6974V26.3166C41.5814 26.4326 41.4944 26.5873 41.4944 26.771C41.4944 27.0224 41.6298 27.2447 41.8425 27.3511C41.9875 27.4477 42.1421 27.4961 42.1421 27.6701C42.1421 27.4864 42.2968 27.4477 42.4322 27.3511C42.6352 27.2447 42.7802 27.0224 42.7802 26.771C42.7802 26.5873 42.6932 26.4326 42.5675 26.3166V24.9632H43.9403C44.0563 25.0792 44.2207 25.1662 44.3947 25.1662C44.646 25.1662 44.8684 25.0309 44.9747 24.8182" fill="white"/>
<path d="M42.1808 62.1055C40.1023 62.1055 38.4202 63.7876 38.4202 65.8564C38.4202 67.9253 40.1023 69.6171 42.1808 69.6171C44.2593 69.6171 45.9415 67.935 45.9415 65.8564C45.9415 63.7779 44.2593 62.1055 42.1808 62.1055ZM43.9016 64.1356C42.9542 64.1356 42.1808 64.909 42.1808 65.8564C42.1808 66.8039 41.4074 67.5869 40.46 67.5869C39.5126 67.5869 38.7295 66.8135 38.7295 65.8564C38.7295 63.952 40.2763 62.4148 42.1808 62.4148C44.0853 62.4148 45.6321 63.952 45.6321 65.8564C45.6321 64.909 44.8587 64.1356 43.9016 64.1356Z" fill="white"/>
<path d="M26.017 28.4428C26.0653 28.3848 26.1717 28.3074 26.3167 28.2011C26.4617 28.0947 26.5584 28.0561 26.5777 28.0851L26.6164 28.1914L26.684 28.3364L28.0278 29.6319L27.6411 30.0282L26.0073 28.4428H26.017ZM26.8774 27.5244C26.9354 27.4567 27.0514 27.3697 27.1964 27.273C27.3511 27.1763 27.4381 27.128 27.4671 27.1667L27.5058 27.2537L27.6024 27.4664L29.0332 28.8585C29.1396 28.9648 29.1879 29.1002 29.1686 29.2645C29.1492 29.4289 29.0719 29.5932 28.9172 29.7576L28.2792 29.6705L28.3758 29.5739L28.5595 29.3032L28.4338 29.0518L26.8774 27.534V27.5244ZM25.2242 29.0808L25.8816 29.1292L25.6206 29.5159C25.5336 29.6415 25.4079 29.7866 25.2726 29.9702L25.5819 30.2699L26.394 29.4289L26.7614 29.7866L26.0653 30.4923C26.2877 30.4439 26.51 30.4149 26.7324 30.3956C26.9161 30.3859 27.0901 30.3763 27.2544 30.3956L27.2931 30.8306L27.6314 30.6083L27.7958 30.56L27.8248 30.647L27.8925 30.8403L28.0955 31.0337L29.8066 29.2645L30.174 29.6222L28.8012 31.0433C29.0816 31.024 29.4199 30.9467 29.826 30.792C30.1933 30.6566 30.522 30.4923 30.8024 30.3183V30.9467C30.4834 31.1013 30.145 31.2367 29.797 31.343C29.3523 31.4784 28.9656 31.546 28.6369 31.5557L29.5069 32.3968L29.1202 32.7931L28.2598 31.9617C28.2888 32.3291 28.2598 32.6868 28.1632 33.0638C28.0568 33.4795 27.8828 33.8662 27.6314 34.2239H26.9837C27.2641 33.8566 27.4671 33.4892 27.6024 33.1218C27.7378 32.7448 27.7765 32.4258 27.7281 32.1454L26.3263 33.5859L25.959 33.2282L27.7088 31.43L27.2544 30.995C26.8967 30.9563 26.5874 30.966 26.3263 31.024L27.0804 31.7491L26.6937 32.1454L25.9783 31.4494C25.9976 31.633 26.0073 31.8361 25.988 32.0584C25.9686 32.3291 25.93 32.5611 25.872 32.7545H25.3016C25.3983 32.4934 25.4563 32.2228 25.4756 31.9327C25.4949 31.6427 25.4756 31.3817 25.4176 31.169L24.6539 31.9521L24.2865 31.5944L25.1759 30.676L24.9149 30.4246C24.9149 30.4246 24.8279 30.531 24.6925 30.6856C24.5669 30.85 24.4702 30.9467 24.4315 30.995L23.8418 30.8596L23.8998 30.8016C24.1318 30.56 24.3735 30.2796 24.6055 29.9606C24.8375 29.6415 25.0406 29.3612 25.1952 29.1002" fill="white"/>
<path d="M32.1365 25.9491L32.2138 25.9104C32.2138 25.9104 32.3588 25.8621 32.5812 25.7944C32.7359 25.7461 32.8229 25.7364 32.8422 25.7944V25.9491L32.9099 26.2585L33.1902 26.7902C33.2676 26.7515 33.3836 26.6548 33.5479 26.4905C33.7123 26.3358 33.8766 26.1618 34.0313 25.9684L34.1763 25.7461L34.2633 25.6301C34.2633 25.6301 34.3793 25.6591 34.563 25.7461C34.7467 25.8428 34.8434 25.8911 34.8531 25.9104L34.7564 26.0845L34.592 26.2295C34.331 26.5195 34.099 26.7515 33.9056 26.9159C33.6253 27.1575 33.4706 27.2832 33.4513 27.3026L34.0313 28.4046L34.215 28.4723L34.3407 28.4336L34.9981 28.0856C35.2688 27.9406 35.4138 27.8053 35.4234 27.6699C35.3751 27.4669 35.3364 27.2735 35.3074 27.0899C35.4524 27.1092 35.6071 27.1189 35.7715 27.1092H35.9551C36.1098 27.4572 36.1002 27.7666 35.9358 28.0276C35.8198 28.2113 35.5878 28.395 35.2494 28.569L34.6887 28.859C34.4374 28.9944 34.2247 29.0717 34.07 29.091C33.867 29.1104 33.7316 29.0524 33.6543 28.8977L32.1268 25.9684L32.1365 25.9491ZM30.9474 26.4808C31.0054 26.4518 31.1504 26.4518 31.3824 26.4808L31.6145 26.5582C31.5758 26.7032 31.5468 26.7998 31.5274 26.8675C31.4791 27.0899 31.4694 27.2155 31.4888 27.2639L31.5564 27.2929L31.6338 27.3412V27.4089L31.6628 27.5346L32.8616 29.8161L32.3202 30.0965L31.3244 28.192L31.2761 28.3756C31.2374 28.5207 31.1891 28.627 31.1504 28.7043L31.1117 28.8397L31.0151 29.033L30.493 28.917C30.6187 28.6367 30.725 28.2983 30.8121 27.9116C30.9184 27.4669 30.9667 27.1189 30.9571 26.8675L30.9281 26.6162L30.9571 26.4808M30.3093 24.9437C30.5027 24.8373 30.6574 24.7697 30.783 24.7117H31.0054L30.9957 24.7987L31.0151 24.9727L31.1601 25.253L32.0688 24.7793L31.7691 24.209L31.9141 24.1316C32.0592 24.0639 32.1558 24.0059 32.2332 23.9769H32.3588L32.3878 24.1026L32.4169 24.2186L32.5715 24.5183L34.0893 23.7256L34.3503 24.2283L33.3739 24.702L32.8132 24.992L33.0162 25.3884L32.5135 25.6494L32.3105 25.2627L31.4018 25.7364L31.6241 26.1618L31.1117 26.4325L30.8894 26.0071L29.4199 26.7708L29.1686 26.2971L30.6187 25.5431L30.3093 24.9534V24.9437Z" fill="white"/>
<path d="M51.5778 26.51C51.7615 26.365 51.8969 26.249 51.9839 26.1523L53.1053 26.7614C52.9506 26.9451 52.7476 27.1384 52.4962 27.3414C52.2449 27.5541 52.0225 27.7088 51.8388 27.7958C51.7325 27.6121 51.6068 27.4478 51.4811 27.2738C51.3555 27.0998 51.2298 26.9644 51.1235 26.8484C51.2491 26.7614 51.4038 26.6454 51.5778 26.5004M52.4479 24.8472C52.2449 25.0696 52.0419 25.2629 51.8388 25.4466L50.1954 24.5572L49.9344 25.0406L51.4231 25.8527C51.2588 26.0363 51.0074 26.249 50.6884 26.4714C50.3597 26.6937 50.0697 26.8677 49.8183 26.9934L50.2244 27.4865L50.4371 27.3898L50.6497 27.2641C50.7561 27.3608 50.8721 27.5058 51.0074 27.6798C51.1428 27.8538 51.2395 27.9988 51.2975 28.1245C50.9688 28.2695 50.5917 28.3179 50.1664 28.2502C49.7893 28.2018 49.4123 28.0665 49.0353 27.8635L49.1803 28.6079C49.625 28.7722 50.0697 28.8592 50.5241 28.8496C50.9301 28.8496 51.3071 28.7722 51.6552 28.6272C51.7905 28.8302 51.9259 29.0719 52.0612 29.3716C52.1965 29.6713 52.3029 29.9517 52.3802 30.232L53.0183 30.058C52.7573 29.4006 52.4769 28.8302 52.1772 28.3469C52.4382 28.1922 52.6799 28.0278 52.8926 27.8538C53.1923 27.6025 53.4436 27.3414 53.6467 27.0708L54.7874 27.6895L55.0484 27.2061L52.3899 25.756C52.7766 25.4369 53.115 25.0986 53.3856 24.7506L52.9506 24.2285C52.8056 24.4219 52.6316 24.6345 52.4382 24.8569" fill="white"/>
<path d="M59.2535 29.0615L59.3405 29.1485L59.5919 29.4772L59.6112 29.6995L59.3889 29.8252L59.1859 29.9316L58.5478 30.5213L60.1719 32.2904L59.7659 32.6675L58.1418 30.8983C57.7454 31.343 57.5134 31.9811 57.4457 32.8125C57.3877 33.5665 57.4651 34.1756 57.6777 34.6299L56.9333 34.5816C56.827 34.1659 56.7787 33.6535 56.798 33.0445C56.8173 32.3774 56.914 31.8554 57.0977 31.4784C56.6917 31.6524 56.1696 31.72 55.5219 31.6814C54.9128 31.6427 54.3811 31.5267 53.9268 31.3333L53.9654 30.5696C54.4875 30.8983 55.1062 31.0723 55.8313 31.0723C56.6337 31.082 57.2717 30.879 57.7357 30.4439L56.1019 28.6651L56.508 28.2881L58.1418 30.0572L59.2632 29.0325L59.2535 29.0615Z" fill="white"/>
<path d="M22.0822 56.6816L20.5837 53.5106L24.8858 51.4805L26.3649 54.6224L25.8525 54.8544L24.6441 52.3022L23.3293 52.9306L24.4411 55.2798L23.919 55.5311L22.8073 53.1723L21.3765 53.849L22.5946 56.4399L22.0822 56.6816Z" fill="white"/>
<path d="M23.9286 59.3503L23.4839 58.8379L26.2875 54.7969L26.7418 55.3286L24.383 58.5189L24.3926 58.5285L28.0276 56.8174L28.482 57.3491L26.2391 60.6844L26.2488 60.694L29.7677 58.8475L30.2318 59.3793L25.8041 61.5351L25.3594 61.0227L27.6506 57.6294L27.6409 57.6198L23.9286 59.3503Z" fill="white"/>
<path d="M33.0838 61.1289L33.6251 61.4866L30.9859 65.4503L30.4542 65.0926L31.682 63.2461L29.6131 61.8636L28.3854 63.7198L27.844 63.3621L30.4832 59.3984L31.0149 59.7561L29.9225 61.3899L32.001 62.7724L33.0838 61.1289Z" fill="white"/>
<path d="M33.4995 64.4449L34.9979 62.7918H35.0076L34.8722 65.0056L33.4995 64.4449ZM34.8722 65.6147L34.7852 67.0744L35.433 67.3355L35.6263 62.2794L34.9496 61.999L31.4983 65.7307L32.1073 65.982L33.0838 64.8896L34.8529 65.605L34.8722 65.6147Z" fill="white"/>
<path d="M52.6992 65.7309L52.0514 66.108L48.4841 62.676L49.1415 62.299L51.9354 65.1412L51.9451 65.1315L51.0073 61.2065L51.6744 60.8102L54.6423 63.5654H54.652L53.5499 59.7274L54.2266 59.3311L55.4254 64.1358L54.7873 64.5128L51.7711 61.7093H51.7517L52.6992 65.7309Z" fill="white"/>
<path d="M57.3357 61.586L56.7747 62.0898L57.2462 62.6149L57.8072 62.111L57.3357 61.586Z" fill="white"/>
<path d="M57.9195 54.71L60.3654 56.5951C61.1388 57.1945 61.3805 58.2289 60.5008 59.36C59.6404 60.4718 58.6253 60.4524 57.9195 59.9111L55.406 57.9776L55.841 57.4169L58.2096 59.244C59.0313 59.8821 59.679 59.4954 60.0657 59.0023C60.4621 58.4899 60.6941 57.7455 59.8724 57.1172L57.4942 55.2803L57.9292 54.7196L57.9195 54.71Z" fill="white"/>
<path d="M61.8831 55.705L62.5114 56.0241L62.8595 55.3473L62.2311 55.0283L61.8831 55.705Z" fill="white"/>
<path d="M24.0546 47.3242L24.1512 47.9913L20.6226 48.523L20.7966 49.6831L20.3036 49.7604C20.1296 48.9677 19.9942 48.639 19.1531 48.5617L19.0758 48.0783L24.0449 47.3339L24.0546 47.3242Z" fill="white"/>
<path d="M21.5797 44.8196C21.5893 44.2493 21.8987 43.7852 22.5754 43.7949C23.3585 43.8142 23.5132 44.3653 23.5035 44.8196C23.4938 45.6897 22.8848 45.8831 22.4884 45.8734C22.0244 45.8734 21.5603 45.5254 21.5797 44.8196ZM20.2359 43.2632C19.6559 43.2535 18.9405 43.6692 18.9115 44.7906C18.8921 45.9894 19.7429 46.3278 20.2649 46.3374C20.7386 46.3374 21.0866 46.0957 21.251 45.6704C21.454 46.2021 21.8407 46.5308 22.4594 46.5404C22.7011 46.5404 23.2425 46.5501 23.6582 46.0474C23.9772 45.651 24.0642 45.1193 24.0642 44.839C24.0836 43.6499 23.3198 43.1278 22.5078 43.1182C22.1307 43.1182 21.57 43.2438 21.2703 43.9109C21.164 43.6885 20.9416 43.2632 20.2262 43.2535M21.0286 44.81C21.0286 45.274 20.7193 45.68 20.2456 45.68C19.9265 45.6704 19.4625 45.4964 19.4722 44.8293C19.4818 44.0946 19.9362 43.9012 20.2359 43.9012C20.6903 43.9012 21.0383 44.2686 21.0286 44.81Z" fill="white"/>
<path d="M22.0341 40.8368C22.1598 40.2761 22.5465 39.8797 23.2135 40.0247C23.9869 40.1891 24.0256 40.7595 23.9289 41.2042C23.7452 42.0646 23.1168 42.1226 22.7205 42.0452C22.2661 41.9486 21.8794 41.5329 22.0341 40.8368ZM21.0093 39.0483C20.4389 38.9227 19.6559 39.203 19.4142 40.2954C19.1628 41.4652 19.9362 41.9679 20.4389 42.0742C20.903 42.1709 21.2897 41.9969 21.541 41.6199C21.6377 42.1806 21.9567 42.577 22.5561 42.7026C22.7978 42.751 23.3199 42.867 23.8322 42.4513C24.2286 42.1226 24.4026 41.6295 24.4606 41.3492C24.712 40.1891 24.0546 39.522 23.2715 39.3577C22.9042 39.2803 22.3241 39.2997 21.9084 39.8991C21.8407 39.6574 21.7151 39.203 21.0093 39.0483ZM21.4927 40.7305C21.396 41.1752 21.019 41.5329 20.555 41.4265C20.2359 41.3589 19.8202 41.0978 19.9652 40.4404C20.1199 39.7251 20.5936 39.6187 20.8933 39.6864C21.338 39.7831 21.6087 40.1988 21.4927 40.7305Z" fill="white"/>
<path d="M23.6195 38.2365C23.0781 38.0045 22.7494 37.4921 23.0201 36.854C23.3295 36.1387 23.9869 36.1677 24.3929 36.3417C25.0116 36.6027 25.292 37.1537 25.06 37.7048C24.7699 38.3815 24.1126 38.4492 23.6195 38.2365ZM22.6818 35.0172C21.715 34.6692 21.106 35.2976 20.8739 35.8293C20.2746 37.2117 21.5893 38.1688 22.6044 38.6039C23.2038 38.8649 23.8032 39.0292 24.3542 38.9422C25.002 38.8359 25.379 38.4008 25.5337 38.0431C25.814 37.3954 25.756 37.0474 25.5917 36.68C25.3887 36.216 25.0986 35.9453 24.6249 35.7423C23.5228 35.2686 22.7784 35.984 22.5368 36.5544C22.2661 37.1827 22.4401 37.6371 22.6238 37.8981H22.6044C22.1211 37.6951 20.9803 36.9797 21.367 36.071C21.5797 35.5779 21.9857 35.4813 22.4207 35.5876L22.6624 35.0269L22.6818 35.0172Z" fill="white"/>
<path d="M59.1281 38.5173L58.8574 37.8986L62.1347 36.4871L61.6707 35.4141L62.125 35.2207C62.5021 35.9458 62.7051 36.2261 63.5365 36.0811L63.7298 36.5355L59.1184 38.527L59.1281 38.5173Z" fill="white"/>
<path d="M62.0478 40.3441C61.9511 39.9381 61.9318 39.3193 62.8598 39.097C63.5172 38.9423 64.0489 39.2033 64.1843 39.7737C64.3583 40.4794 63.9329 40.8758 63.3819 41.0111C62.4151 41.2432 62.1251 40.6631 62.0478 40.3441ZM61.4774 40.3828C61.5837 40.8371 61.9124 41.2722 62.3281 41.3592V41.3785C61.0134 41.5332 60.3656 41.3108 60.2013 40.6438C60.0853 40.1411 60.3173 39.7737 60.8007 39.619L60.6557 39.01C60.1819 39.126 59.4279 39.6287 59.6986 40.7791C60.1046 42.4613 62.3571 42.0166 62.8792 41.8812C63.6719 41.6879 65.1124 41.1852 64.7353 39.6287C64.484 38.6039 63.5656 38.2462 62.6762 38.4686C61.6997 38.7006 61.255 39.4837 61.4677 40.3828" fill="white"/>
<path d="M64.4162 44.598L62.1444 44.7044L62.0767 43.0996L64.4259 44.598H64.4162ZM61.6513 46.0965L62.1927 46.0772L62.1637 45.3424L65.4216 45.2071L65.4023 44.685L62.1154 42.5195L61.5063 42.5485L61.603 44.743L60.3849 44.7914L60.4139 45.4198L61.632 45.3714L61.661 46.1062L61.6513 46.0965Z" fill="white"/>
<path d="M63.1978 47.4493C63.3235 47.6813 63.4298 48.01 63.3621 48.4547C63.2365 49.2668 62.5501 50.0015 61.5253 49.8469C60.9743 49.7695 59.8142 49.3345 60.0559 47.778C60.1525 47.1303 60.5392 46.3376 61.6703 46.3859L61.5737 47.0239C60.984 46.9949 60.6649 47.3913 60.5779 47.952C60.4812 48.5998 60.9356 49.0735 61.5543 49.1701C62.2697 49.2861 62.7338 48.8511 62.8208 48.2421C62.8788 47.8844 62.7531 47.5363 62.4921 47.2463L62.5984 46.7146L65.2086 47.488L64.8123 50.0595L64.2032 49.9629L64.5222 47.8554L63.1881 47.4397L63.1978 47.4493Z" fill="white"/>
<path d="M24.9921 45.1871C24.9921 54.6419 32.6874 62.3469 42.1518 62.3469C51.6163 62.3469 59.3116 54.6516 59.3116 45.1871C59.3116 35.7227 51.6163 28.0273 42.1518 28.0273C32.6874 28.0273 24.9921 35.7227 24.9921 45.1871ZM25.5238 45.1871C25.5238 36.0223 32.9774 28.5591 42.1518 28.5591C51.3263 28.5591 58.7799 36.0223 58.7799 45.1871C58.7799 54.3519 51.3263 61.8152 42.1518 61.8152C32.9774 61.8152 25.5238 54.3615 25.5238 45.1871Z" fill="white"/>
<path d="M40.7596 41.4751L40.779 41.3881L40.6533 41.2817L40.4019 41.2334H40.2183V42.5578C40.2183 42.7995 40.2956 42.9155 40.4406 43.0025C40.547 43.0606 40.7693 43.0896 41.0787 43.0896H43.7566C43.9596 43.0896 44.1433 43.0702 44.3269 42.9445C44.5396 42.7995 44.6943 42.6062 44.7813 42.3162L44.3753 41.9585C44.2496 42.2195 44.1239 42.3548 43.9789 42.4418C43.8339 42.5288 43.6405 42.5482 43.3795 42.5482H41.0787L40.8466 42.5288L40.721 42.4418V42.3162C40.7693 42.3162 40.9917 42.2968 41.3784 42.2678C41.7651 42.2388 42.1808 42.2098 42.6351 42.1615C43.1958 42.0841 43.6115 42.0165 43.8822 41.9391L43.6986 41.3687C43.3989 41.4461 42.9155 41.5331 42.2388 41.6104C41.5717 41.6974 41.0593 41.7361 40.721 41.7361V41.5718L40.7596 41.4751Z" fill="white"/>
<path d="M39.5319 47.4493L39.8606 48.0487C40.1603 47.981 40.4986 47.8553 40.866 47.6717C41.185 47.517 41.388 47.3816 41.4847 47.2753L41.2044 46.8499H43.1959L42.8478 47.256C43.1572 47.5073 43.4375 47.7007 43.6696 47.836C43.8726 47.952 44.0853 48.039 44.2979 48.1067L44.675 47.517C44.4526 47.4493 44.2206 47.3526 43.9499 47.2076C43.7082 47.0819 43.5149 46.9659 43.3602 46.8499H44.8587V46.3182H40.2956V43.8433L40.3246 43.65L40.3536 43.534L40.2569 43.389L39.9959 43.3213H39.8026V46.8499H41.04C40.8757 46.9659 40.663 47.0723 40.4116 47.1786C40.1023 47.314 39.8026 47.401 39.5222 47.4396" fill="white"/>
<path d="M42.1518 50.6006C40.0636 50.6006 38.5458 52.3021 38.3718 54.3806L37.7531 61.2831L38.4008 61.4475L38.8551 55.995L40.634 53.7812L42.1421 55.6663L43.6502 53.7812L45.4484 56.024L45.9027 61.4475L46.5505 61.2831L45.9317 54.3806C45.7481 52.3021 44.2303 50.6006 42.1421 50.6006M42.1421 54.7866L41.591 54.0905L42.1421 53.3945L42.6931 54.0905L42.1421 54.7866ZM43.6599 52.9014L43.0605 53.6458L42.1614 52.5244L41.2623 53.6458L40.663 52.9014L38.9808 54.9993L39.0388 54.3709C39.1838 52.6404 40.4503 51.2193 42.1904 51.2193C43.9306 51.2193 45.197 52.6404 45.3517 54.3709L45.4097 55.0283L43.7082 52.9014H43.6599Z" fill="white"/>
<path d="M52.641 52.9208C52.67 52.8435 52.699 52.7468 52.728 52.6018H53.7818V52.0024H51.4519V51.693H53.221V51.0937H51.4519V50.7746H53.6851V50.1752H52.206L52.38 49.8272L52.5153 49.4598L51.9449 49.1988C51.9063 49.3728 51.8676 49.5372 51.8096 49.7015C51.7613 49.8659 51.6936 50.0206 51.6162 50.1752H50.5528L50.8332 49.9626C50.7752 49.8272 50.6978 49.6919 50.6108 49.5372C50.5238 49.3922 50.4368 49.2665 50.3498 49.1602L49.8954 49.5082C50.0791 49.7402 50.2241 49.9626 50.3111 50.1752H48.6967V50.7746H50.9105V51.0937H49.1607V51.693H50.9105V52.0024H48.6V52.6018H49.6634L49.7891 52.9111L49.8568 53.2302H48.4937V53.8102H53.8881V53.2302H52.5057L52.641 52.9111M50.9009 53.2302H50.4078C50.3788 53.0852 50.3498 52.9691 50.3208 52.8725L50.2145 52.6018H50.9009V53.2302ZM52.0706 52.9305L51.9449 53.2302H51.4519V52.6018H52.1673L52.0803 52.9305" fill="white"/>
<path d="M49.4315 55.9569H49.9826V55.7056H52.3704V55.9086H52.9311V54.1201H49.4412V55.9569H49.4315ZM49.9826 54.7002H52.3704V55.1255H49.9826V54.7002Z" fill="white"/>
<path d="M40.7598 46.0574H44.008V43.3408H40.7598V46.0574ZM41.2625 43.8145H43.5053V44.1142H41.2625V43.8145ZM41.2625 44.5589H43.5053V44.8489H41.2625V44.5589ZM41.2625 45.284H43.5053V45.574H41.2625V45.284Z" fill="white"/>
<path d="M33.5382 54.0909H35.4427V53.4722H33.3545V53.0371H35.607V52.4184H33.3545V52.0027H35.0947V51.384H33.3545V50.9876H35.52V50.3689H34.1956C34.2729 50.2142 34.3503 50.0499 34.4083 49.8855C34.4083 49.8565 34.4469 49.7598 34.5049 49.5762L33.9829 49.2861C33.9346 49.4891 33.8862 49.6728 33.8379 49.8565C33.7702 50.0789 33.7025 50.2529 33.6349 50.3689H32.4844L32.7841 50.1079C32.7165 49.9629 32.6488 49.8178 32.5618 49.6825C32.4748 49.5375 32.3878 49.4118 32.3008 49.2958L31.8561 49.6342L32.1074 50.0112L32.2814 50.3786H30.667V50.9973H32.8228V51.3936H31.0827V52.0124H32.8228V52.4281H30.5606V53.0468H32.8228V53.4818H30.725V54.1005H32.6391C32.4748 54.4196 32.1654 54.6999 31.7014 54.9706C31.276 55.2123 30.8216 55.3766 30.3383 55.4733L30.812 56.063C31.247 55.9374 31.6724 55.7343 32.0784 55.454C32.5134 55.1543 32.8518 54.8256 33.1032 54.4679C33.3255 54.8449 33.6542 55.1736 34.0796 55.454C34.4856 55.7247 34.94 55.9277 35.4427 56.063L35.8971 55.4927C35.3847 55.425 34.8916 55.2606 34.4276 54.9899C33.9636 54.7193 33.6735 54.4292 33.5479 54.1199" fill="white"/>
<path d="M58.8573 44.8196H55.3673L55.3867 46.1827H52.2254V44.8196H49.7215V43.1955C50.4272 43.0698 50.9783 42.9345 51.2973 42.8184C53.0761 42.1417 53.5208 41.4167 53.5208 41.4167L53.2791 40.5853C53.2791 40.5853 51.4713 40.4112 51.2683 40.3242C51.0556 40.2372 49.2285 39.1545 48.9868 38.8838L48.8128 38.1587H48.1941V35.7612C48.6194 35.6452 49.2381 35.5485 49.6635 35.3745C50.6109 34.9878 51.3843 34.6398 51.3843 34.6398L51.1426 33.8664C51.1426 33.8664 48.9771 33.4507 48.7741 33.3637C48.5711 33.2767 48.0974 32.4162 47.8847 32.1166C47.6817 31.8169 47.7687 31.5172 47.7687 31.5172L47.382 31.1885C47.382 31.1885 46.3089 31.4688 45.4002 31.5945C44.124 31.7685 42.1615 31.7395 42.1615 31.7395C42.1615 31.7395 40.1991 31.7782 38.9229 31.5945C38.0045 31.4688 36.9411 31.1885 36.9411 31.1885L36.5544 31.5172C36.5544 31.5172 36.6414 31.8169 36.4384 32.1166C36.2354 32.4066 35.7617 33.267 35.549 33.3637C35.346 33.4507 33.1805 33.8664 33.1805 33.8664L32.9388 34.6398C32.9388 34.6398 33.7025 34.9878 34.6596 35.3745C34.9593 35.5002 35.607 35.6645 36.2257 35.7612V38.1587H35.52L35.346 38.8838C35.1043 39.1545 33.2675 40.2372 33.0645 40.3242C32.8614 40.4112 31.0536 40.5853 31.0536 40.5853L30.8216 41.4167C30.8216 41.4167 31.2663 42.1321 33.0451 42.8184C33.3641 42.9441 33.9055 43.0698 34.6113 43.1955V44.8196H32.0977V46.1827H28.9364L28.9558 44.8196H25.4658V45.448H28.3081V46.8111H32.7261V45.448H35.868V46.8111H38.9036V46.1827H36.5061V44.8196H35.4427V43.5822H38.9036V42.6638V39.0675H39.4063V40.6529H39.909V39.0675H40.4117V40.6529H40.9144V39.0675H41.4172V40.6529H41.9199V39.0675H42.4226V40.6529H42.9446V39.0675H43.4473V40.6529H43.95V39.0675H44.4527V40.6529H44.9554V39.0675H45.4582V42.6638H45.4485V43.5822H48.8998V44.8196H47.8267V46.1827H45.4485V46.8111H48.4647V45.448H51.6067V46.8111H56.0247V45.448H58.8766V44.8196H58.8573ZM51.9934 41.2427H52.4961V41.842L51.9934 41.9967V41.2427ZM50.988 41.117L51.4907 41.2427V42.2094L50.988 42.3737V41.117ZM49.9825 40.4886L50.4852 40.8076V42.4898L49.9825 42.5961V40.4886ZM49.9825 34.1661L50.4852 34.2144V34.6784L49.9825 34.7848V34.1661ZM48.9771 34.05L49.4798 34.1564V34.9975L48.9771 35.1038V34.05ZM34.3309 34.7848L33.8282 34.6784V34.2144L34.3309 34.1661V34.7848ZM35.3363 35.1038L34.8336 34.9975V34.1564L35.3363 34.05V35.1038ZM32.3394 42.0064L31.8367 41.8517V41.2523H32.3394V42.0064ZM33.3448 42.3834L32.8421 42.2191V41.2523L33.3448 41.1266V42.3834ZM34.3502 42.6058L33.8475 42.4994V40.8173L34.3502 40.4983V42.6058ZM35.3556 42.6734H34.8529V40.2566L35.3556 39.8989V42.6638V42.6734ZM35.839 35.2585V33.963L36.3417 33.4603V35.2488H35.839V35.2585ZM36.3707 42.6734H35.868V39.0771H36.3707V42.6734ZM38.8649 32.4839H39.3677V35.4712H38.8649V32.4839ZM37.8595 32.2906H38.3622V35.4228H37.8595V32.2906ZM36.8541 32.8319L37.1248 32.2712H37.3568V35.3648H36.8541V32.8319ZM36.7961 36.2349H38.0529V38.1684H36.7961V36.2349ZM37.3858 42.6638H36.8831V39.0675H37.3858V42.6638ZM38.3912 42.6638H37.8885V39.0675H38.3912V42.6638ZM39.9477 38.1684H38.6909V36.2349H39.9477V38.1684ZM40.3827 35.5292H39.88V32.5999H40.3827V35.5292ZM40.8854 32.5999H41.3882V35.5292H40.8854V32.5999ZM41.8329 38.1684H40.5761V36.2349H41.8329V38.1684ZM42.3936 35.5292H41.8909V32.5999H42.3936V35.5292ZM42.9349 32.5999H43.4377V35.5292H42.9349V32.5999ZM43.718 38.1684H42.4709V36.2349H43.718V38.1684ZM46.9663 32.2616H47.1983L47.469 32.8223V35.3552H46.9663V32.2616ZM45.9609 32.2809H46.4636V35.4132H45.9609V32.2809ZM44.9554 32.4743H45.4582V35.4615H44.9554V32.4743ZM43.95 32.5999H44.4527V35.5292H43.95V32.5999ZM45.6128 38.1684H44.3561V36.2349H45.6128V38.1684ZM46.4636 42.6638H45.9609V39.0675H46.4636V42.6638ZM47.469 42.6638H46.9663V39.0675H47.469V42.6638ZM47.498 38.1684H46.2412V36.2349H47.498V38.1684ZM47.9717 33.4507L48.4744 33.9534V35.2488H47.9717V33.4603V33.4507ZM48.4744 42.6638H47.9717V39.0675H48.4744V42.6638ZM49.4798 42.6638H48.9771V39.8989L49.4798 40.1986V42.6734V42.6638Z" fill="white"/>
<path d="M41.3012 57.5907L40.8951 57.291C40.8951 57.291 40.5278 57.8131 40.4021 58.5381C40.2764 59.2632 40.9821 59.6692 40.8661 60.3459C40.7598 60.955 40.0154 61.5834 40.0154 61.5834L40.4214 61.9121C40.6534 61.68 41.3205 60.9453 41.4268 60.3749C41.5525 59.6499 40.9338 59.1278 40.9531 58.6251C40.9725 58.1321 41.3108 57.5907 41.3108 57.5907" fill="white"/>
<path d="M43.1091 58.3444C43.0994 57.8513 43.3798 57.513 43.3798 57.513L42.9737 57.252C42.9737 57.252 42.5387 57.6193 42.5484 58.354C42.5677 58.8664 43.7471 59.3691 43.7761 60.3262C43.7858 60.9449 43.3508 61.7377 43.3508 61.7377L43.8245 61.9407C43.9888 61.6216 44.3175 60.7709 44.2885 60.2295C44.2499 59.2338 43.1188 58.7117 43.1091 58.3347" fill="white"/>
<path d="M42.3549 57.5226L41.9585 57.252C41.9585 57.252 41.4462 57.745 41.4462 58.4797C41.4462 59.2145 42.3356 59.4755 42.3356 60.1715C42.3356 60.7902 41.7169 61.6797 41.7169 61.6797L42.1422 61.9407C42.2872 61.7183 42.8963 60.7419 42.8963 60.1039C42.8963 59.3691 42.0746 58.9728 42.0069 58.4797C41.9392 57.9867 42.3646 57.5226 42.3646 57.5226" fill="white"/>
<path d="M201.491 34.5339C201.056 34.6982 200.08 34.7949 199.326 34.8432H197.383V24.9437L197.566 23.3486L193.351 22.7686L193.148 23.1359C193.39 23.3389 194.047 24.9244 194.047 26.3552V51.5486L197.392 51.0169V37.5018H197.644H199.5C199.886 37.5018 201.453 37.6275 201.714 37.6855V34.7176L201.501 34.5435L201.491 34.5339ZM187.705 36.4094C186.739 35.3363 185.434 34.0602 185.434 30.1352C185.434 29.6518 185.434 28.9267 185.434 28.569H189.194C189.755 28.569 191.002 28.7334 191.118 28.7431V25.9588L190.925 25.7848C190.49 25.9492 189.784 26.0458 189.03 26.0942H178.173C177.255 26.0265 176.085 25.9298 175.611 25.7268L175.254 25.8718L175.834 28.8204C175.911 28.8494 177.303 28.569 178.135 28.569H179.585H181.451C181.451 28.9267 181.451 29.6518 181.451 30.1352C181.451 34.0505 180.145 35.3363 179.179 36.4094C177.439 38.3332 174.587 39.8897 174.587 39.8897L176.482 42.4515C178.705 41.0497 182.437 38.3139 183.461 35.2396C184.486 38.3139 188.218 41.0497 190.441 42.4515L192.326 39.8897C192.326 39.8897 189.475 38.3332 187.734 36.4094" fill="white"/>
<path d="M286.778 44.4427C286.352 44.607 285.415 44.7617 284.69 44.81H278.415V36.4283L278.551 35.1135L274.394 34.5335L274.191 34.8912C274.432 35.0942 275.09 36.6797 275.09 38.1201V44.81H271.107V36.6023L271.242 35.2876L267.085 34.7172L266.872 35.0845C267.114 35.2876 267.771 36.873 267.771 38.3038V44.8197H264.272C263.392 44.752 262.261 44.6553 261.797 44.4523L261.459 44.5877L262.135 47.8263C262.203 47.8649 263.547 47.6329 264.349 47.6329H265.751H284.748C285.25 47.6329 286.894 47.8166 287 47.8263V44.6747L286.797 44.4523L286.778 44.4427ZM266.863 28.0079H268.197H268.081H281.625C281.625 28.0079 281.625 29.7771 281.625 31.1112C281.625 35.7709 280.958 41.1074 280.958 41.1074L284.409 40.4403C284.409 40.4403 285.057 34.6108 285.076 28.704C285.105 27.2539 285.086 27.4859 285.134 26.0938L285.154 25.2334L284.951 25.0207C284.525 25.185 283.626 25.2527 282.843 25.3107H266.795C265.973 25.2431 264.833 25.1464 264.378 24.9434L264.04 25.0884L264.717 28.211C264.794 28.24 266.07 28.0176 266.882 28.0176" fill="white"/>
<path d="M143.187 34.5339C142.752 34.6982 141.775 34.7949 141.021 34.8432H139.059V24.9437L139.252 23.3486L135.037 22.7686L134.834 23.1263C135.076 23.3293 135.733 24.9147 135.733 26.3552V40.8564C135.037 41.4268 132.407 42.0455 128.637 42.0455C128.415 42.0455 127.864 42.0455 127.148 42.0455V39.4643C130.165 38.7586 132.407 36.1967 132.407 33.0451C132.407 32.117 132.185 31.1889 131.827 30.3865C131.47 29.6035 130.928 28.9267 130.252 28.453H131.605C132.166 28.453 133.413 28.6174 133.529 28.627V25.8428L133.335 25.6688C132.9 25.8331 132.195 25.9202 131.441 25.9782H127.139V24.4894L127.264 23.3293L123.32 22.8169L123.165 23.1359C123.165 23.1359 123.813 24.3057 123.803 25.9782H119.656C118.747 25.9105 117.568 25.8138 117.094 25.6108L116.736 25.7461L117.316 28.6947C117.384 28.7237 118.776 28.4337 119.617 28.4337H120.623C119.956 28.9171 119.405 29.5938 119.047 30.3769C118.68 31.1793 118.457 32.1073 118.457 33.0354C118.457 36.216 120.739 38.7876 123.803 39.474V42.0358C121.696 42.0358 119.724 42.0358 119.724 42.0358C118.196 41.9682 117.065 41.8715 116.601 41.6685L116.263 41.8135L116.881 44.8781C116.949 44.9071 117.887 44.7331 118.689 44.7331L120.439 44.6847H129.265C132.833 44.6847 135.172 44.1047 135.723 43.6793V51.539L139.059 50.9976V37.4825H139.329H141.176C141.562 37.4825 143.129 37.6081 143.39 37.6661V34.6982L143.187 34.5242V34.5339ZM121.821 33.0644C121.821 30.8602 123.436 29.0137 125.437 29.0137C127.438 29.0137 129.053 30.8602 129.053 33.0644C129.053 35.2686 127.438 36.9991 125.437 36.9991C123.436 36.9991 121.821 35.2686 121.821 33.0644Z" fill="white"/>
<path d="M259.825 31.1696C259.39 31.3339 258.413 31.4306 257.659 31.4789H255.658V24.9437L255.842 23.3486L251.627 22.7686L251.424 23.1359C251.665 23.3389 252.323 24.9244 252.323 26.3552V39.909L255.658 39.4643V34.1375H255.977H257.833C258.22 34.1375 259.786 34.2632 260.047 34.3212V31.3533L259.844 31.1793L259.825 31.1696ZM255.648 41.6588V41.3108L255.416 41.0788C254.972 41.1368 254.353 41.2238 253.618 41.2238H238.605C237.725 41.1561 236.594 41.0594 236.139 40.8564L235.791 41.0014L236.352 43.95C236.42 43.979 237.763 43.747 238.566 43.747H239.958V43.7566H252.303V51.452L255.648 50.9106V43.9597V41.6588ZM235.269 30.3962C234.912 31.1986 234.689 32.1267 234.689 33.0547C234.689 36.7671 237.812 39.6673 241.659 39.6673C245.507 39.6673 248.63 36.7671 248.63 33.0547C248.63 32.1267 248.407 31.1986 248.05 30.3962C247.692 29.6131 247.151 28.9364 246.474 28.4627H247.827C248.388 28.4627 249.635 28.627 249.751 28.6367V25.8525L249.558 25.6785C249.123 25.8428 248.427 25.9298 247.663 25.9878H243.361V24.499L243.487 23.3389L239.542 22.8362L239.388 23.1553C239.388 23.1553 240.026 24.325 240.026 25.9975H235.878C234.96 25.9298 233.79 25.8331 233.316 25.6301L232.959 25.7751L233.539 28.7237C233.606 28.7527 234.999 28.4627 235.84 28.4627H236.845C236.168 28.9461 235.627 29.6228 235.269 30.4059M241.659 29.0331C243.651 29.0331 245.275 30.8796 245.275 33.0837C245.275 35.2879 243.661 37.0184 241.659 37.0184C239.658 37.0184 238.044 35.2879 238.044 33.0837C238.044 30.8796 239.668 29.0331 241.659 29.0331Z" fill="white"/>
<path d="M228.357 24.9437L228.55 23.3486L224.335 22.7686L224.132 23.1359C224.374 23.3389 225.031 24.9244 225.031 26.3552V32.8227H222.412V25.1274L222.605 23.5323L218.39 22.9522L218.177 23.3099C218.419 23.513 219.076 25.0984 219.076 26.4132V37.7628C218.235 38.3332 216.659 38.5555 215.316 38.5555C213.972 38.5555 208.432 38.5459 208.432 38.5459V28.5787H208.867H214.552C215.113 28.5787 216.36 28.7334 216.476 28.7527V25.9685L216.282 25.7945C215.847 25.9588 215.142 26.0458 214.388 26.1038H207.456C206.538 26.0362 205.368 25.9395 204.894 25.7365L204.536 25.8815L205.078 28.6464V40.3924C205.194 40.8951 205.619 41.2818 206.141 41.3398H208.423C208.423 41.3398 213.595 41.3204 215.48 41.3204C217.365 41.3204 218.467 40.9144 219.057 40.5664V51.4326L222.392 50.9589V35.5393H225.012V51.5583L228.347 51.0169V24.9437H228.357Z" fill="white"/>
<path d="M110.53 24.9436L110.723 23.3388L106.508 22.7588L106.296 23.1262C106.537 23.3292 107.195 24.9146 107.195 26.3454V51.5389L110.53 50.9975V24.9436Z" fill="white"/>
<path d="M94.8782 25.1367C90.3925 25.1367 86.7672 29.0037 86.7672 33.7601C86.7672 38.5165 90.4022 42.3835 94.8782 42.3835C99.3543 42.3835 102.989 38.5165 102.989 33.7601C102.989 29.0037 99.3639 25.1367 94.8782 25.1367ZM94.8782 39.5026C92.2583 39.5026 90.1412 36.931 90.1412 33.7601C90.1412 30.5892 92.2583 28.0176 94.8782 28.0176C97.4981 28.0176 99.6153 30.5892 99.6153 33.7601C99.6153 36.931 97.4981 39.5026 94.8782 39.5026Z" fill="white"/>
<path d="M166.882 27.6993H163.894C163.015 27.6316 161.884 27.5253 161.42 27.3223L161.081 27.4673L161.642 30.4739C161.71 30.5029 163.053 30.2805 163.856 30.2805H167.046" fill="white"/>
<path d="M167.036 39.048H163.856C163.053 39.0383 161.71 39.2703 161.642 39.2317L161.081 36.2251L161.42 36.0801C161.874 36.2831 163.005 36.3894 163.885 36.4474H166.872" fill="white"/>
<path d="M169.849 24.9436L170.033 23.3388L165.818 22.7588L165.605 23.1262C165.847 23.3292 166.505 24.9146 166.505 26.5774V51.5389L169.84 50.9975V24.9436H169.849Z" fill="white"/>
<path d="M153.821 25.1172C149.413 25.1172 145.826 28.9842 145.826 33.7599C145.826 38.5356 149.413 42.4026 153.821 42.4026C158.229 42.4026 161.816 38.5356 161.816 33.7599C161.816 28.9842 158.239 25.1172 153.821 25.1172ZM153.821 39.5217C151.269 39.5217 149.2 36.9405 149.2 33.7599C149.2 30.5793 151.269 27.9981 153.821 27.9981C156.373 27.9981 158.442 30.5793 158.442 33.7599C158.442 36.9405 156.373 39.5217 153.821 39.5217Z" fill="white"/>
<path d="M88.8361 58.3736C88.8168 57.7549 88.7975 57.1362 88.7685 56.5078C89.2035 56.5078 89.6289 56.5271 90.0542 56.5465C90.4796 56.5755 90.905 56.5755 91.34 56.5755C92.0457 56.5755 92.6838 56.5755 93.2348 56.5561C93.7859 56.5368 94.1629 56.5271 94.3466 56.5078C94.3079 56.6625 94.2886 56.8655 94.2886 57.1169C94.2886 57.2715 94.2886 57.3876 94.2983 57.4746L94.3369 57.7646C94.0566 57.7452 93.7569 57.7259 93.4282 57.7066C93.0995 57.6872 92.7805 57.6679 92.4614 57.6486C92.1521 57.6292 91.8717 57.6196 91.6204 57.6099C91.369 57.6002 91.195 57.5906 91.0887 57.5906C91.05 58.1223 91.0306 58.6443 91.021 59.1567C91.021 59.6787 91.021 60.2008 91.021 60.7228C91.6397 60.7132 92.2101 60.6938 92.7128 60.6745C93.2155 60.6552 93.7375 60.6262 94.2886 60.5972C94.2596 60.7615 94.2403 60.8872 94.2306 60.9645V61.2449V61.4866C94.2499 61.5639 94.2596 61.6896 94.2789 61.8443C93.1865 61.7669 92.0941 61.7283 91.0113 61.7283C91.0113 62.0279 91.0113 62.3373 91.0016 62.6467C91.0016 62.956 90.992 63.2654 90.992 63.5651C90.992 64.1935 91.0113 64.7928 91.0403 65.3632C91.5817 65.3632 92.1327 65.3439 92.6838 65.3149C93.2348 65.2859 93.7859 65.2375 94.3369 65.1602L94.2886 65.4502C94.2789 65.5372 94.2693 65.6532 94.2693 65.8079C94.2693 65.9626 94.2693 66.0883 94.2886 66.1656L94.3369 66.3783C94.0759 66.3686 93.7569 66.359 93.3798 66.359C93.0028 66.359 92.4808 66.359 91.8234 66.359H89.5322C89.3098 66.359 89.1455 66.359 89.0391 66.359L88.7588 66.3783C88.7878 65.7789 88.8168 65.1699 88.8265 64.5512C88.8458 63.9324 88.8555 63.2267 88.8555 62.4243V60.4618C88.8555 59.6594 88.8555 58.9634 88.8265 58.335" fill="white"/>
<path d="M101.452 61.0223C101.23 61.6314 101.007 62.2501 100.785 62.8882C100.553 63.5165 100.34 64.1449 100.128 64.7636C99.915 65.3727 99.7313 65.9237 99.5863 66.4071C99.3639 66.3878 99.1222 66.3781 98.8515 66.3781H98.4745L98.0975 66.4071C97.9911 66.0107 97.8558 65.508 97.6818 64.8796C97.5078 64.2513 97.3241 63.5939 97.1211 62.8882C96.918 62.1824 96.715 61.4767 96.5023 60.7613C96.2897 60.0459 96.0963 59.3885 95.9126 58.7891C95.7289 58.1898 95.5743 57.687 95.4486 57.2713C95.3229 56.8556 95.2456 56.5946 95.2069 56.498C95.4196 56.5173 95.6226 56.5366 95.8256 56.5463C96.0286 56.556 96.222 56.5656 96.4153 56.5656C96.6087 56.5656 96.802 56.5656 96.9954 56.5463C97.1984 56.527 97.3918 56.5173 97.5754 56.498C97.7204 57.107 97.8751 57.7451 98.0395 58.3928C98.2038 59.0405 98.3682 59.6785 98.5325 60.3069C98.6969 60.9353 98.8612 61.5444 99.0256 62.1341C99.1802 62.7335 99.3252 63.2749 99.4606 63.7679H99.4896C99.7023 63.1588 99.9246 62.5111 100.176 61.7957C100.418 61.09 100.659 60.4036 100.891 59.7269C101.123 59.0502 101.336 58.4314 101.52 57.8514C101.713 57.281 101.858 56.8266 101.964 56.4883L102.322 56.5366L102.68 56.556L103.038 56.5366L103.395 56.4883C103.434 56.701 103.511 56.9813 103.618 57.339C103.714 57.6967 103.84 58.0834 103.985 58.5185C104.12 58.9535 104.275 59.4079 104.43 59.8912C104.584 60.3746 104.749 60.8483 104.903 61.3124C105.068 61.7861 105.213 62.2308 105.338 62.6561C105.474 63.0718 105.58 63.4489 105.667 63.7679H105.696C105.889 63.1588 106.092 62.5014 106.315 61.7667C106.528 61.0417 106.74 60.3359 106.934 59.6495C107.137 58.9728 107.32 58.3444 107.485 57.7741C107.649 57.2133 107.765 56.7783 107.833 56.498C108.074 56.5463 108.277 56.5656 108.442 56.5656L108.77 56.5463L109.109 56.498C109.041 56.6816 108.935 56.9813 108.79 57.397C108.645 57.8031 108.48 58.2961 108.287 58.8568C108.094 59.4175 107.891 60.0266 107.668 60.6936C107.446 61.351 107.224 62.0277 107.001 62.6948C106.779 63.3619 106.566 64.0289 106.363 64.667C106.16 65.3147 105.976 65.8851 105.822 66.3974C105.599 66.3781 105.358 66.3684 105.087 66.3684H104.71L104.333 66.3974C104.024 65.2277 103.676 64.0676 103.289 62.9075C102.902 61.7474 102.496 60.568 102.061 59.3692H102.032C101.858 59.8622 101.665 60.4133 101.442 61.0223" fill="white"/>
<path d="M116.021 61.6122C115.654 61.6026 115.286 61.5929 114.929 61.5929C114.571 61.5929 114.204 61.5929 113.836 61.6122C113.469 61.6219 113.111 61.6316 112.744 61.6509V62.4726C112.744 63.2654 112.744 63.9808 112.773 64.5898C112.792 65.2085 112.811 65.8176 112.84 66.417C112.676 66.3976 112.502 66.388 112.309 66.388H111.013C110.82 66.388 110.646 66.388 110.482 66.417C110.52 65.8176 110.549 65.2085 110.569 64.5898C110.588 63.9711 110.598 63.2654 110.598 62.463V60.5005C110.598 59.7077 110.598 59.002 110.569 58.3736C110.549 57.7549 110.52 57.1362 110.482 56.5078C110.646 56.5271 110.82 56.5465 111.013 56.5561C111.207 56.5658 111.419 56.5755 111.661 56.5755C111.903 56.5755 112.115 56.5755 112.309 56.5561C112.502 56.5465 112.676 56.5271 112.84 56.5078C112.802 57.1362 112.773 57.7452 112.763 58.3543C112.753 58.9634 112.744 59.6691 112.744 60.4715C112.995 60.4715 113.295 60.4811 113.643 60.4908C113.991 60.4908 114.426 60.4908 114.938 60.4908C115.451 60.4908 115.876 60.4908 116.205 60.4908C116.533 60.4908 116.833 60.4811 117.113 60.4715C117.113 59.6691 117.113 58.973 117.084 58.3543C117.065 57.7452 117.036 57.1265 116.988 56.5078C117.152 56.5271 117.326 56.5465 117.519 56.5561C117.713 56.5658 117.926 56.5755 118.167 56.5755C118.409 56.5755 118.622 56.5755 118.815 56.5561C119.008 56.5465 119.182 56.5271 119.347 56.5078C119.318 57.1265 119.289 57.7549 119.269 58.3736C119.25 58.9924 119.25 59.6981 119.25 60.5005V62.4533C119.25 63.2557 119.25 63.9614 119.269 64.5802C119.279 65.1989 119.308 65.8079 119.347 66.4073C119.182 66.388 119.008 66.3783 118.815 66.3783H117.519C117.326 66.3783 117.152 66.3783 116.988 66.4073C117.026 65.8079 117.055 65.1989 117.084 64.5802C117.104 63.9614 117.113 63.2557 117.113 62.463V61.6412C116.756 61.6412 116.388 61.6219 116.021 61.6122Z" fill="white"/>
<path d="M129.904 66.4079C129.672 66.3886 129.459 66.3789 129.246 66.3789H128.028C127.815 66.3789 127.612 66.3886 127.419 66.4079C127.264 65.9439 127.11 65.4605 126.945 64.9771C126.781 64.4937 126.607 64.0104 126.423 63.5173C126.114 63.5173 125.805 63.5076 125.505 63.498C125.196 63.498 124.896 63.498 124.586 63.498C124.335 63.498 124.084 63.498 123.842 63.498C123.591 63.498 123.339 63.5076 123.088 63.5173C122.895 64.0104 122.721 64.4937 122.556 64.9771C122.392 65.4605 122.247 65.9439 122.112 66.4079L121.773 66.3789H121.087C120.971 66.3789 120.845 66.3886 120.71 66.4079C120.816 66.1565 120.981 65.8085 121.164 65.3735C121.358 64.9288 121.57 64.4357 121.793 63.8847C122.025 63.3336 122.266 62.7343 122.537 62.0962C122.798 61.4581 123.059 60.8201 123.33 60.1627C123.591 59.515 123.852 58.8769 124.103 58.2389C124.354 57.6105 124.586 57.0208 124.799 56.4697L125.07 56.5084L125.341 56.5277L125.611 56.5084L125.882 56.4697C126.191 57.2818 126.52 58.1615 126.868 59.0896C127.216 60.0177 127.564 60.9361 127.922 61.8255C128.27 62.7246 128.618 63.5753 128.956 64.3777C129.295 65.1801 129.604 65.8568 129.884 66.4176M124.79 59.2443C124.538 59.8243 124.306 60.3947 124.084 60.9554C123.861 61.5162 123.649 62.0865 123.436 62.6762H126.066C125.853 62.0962 125.65 61.5162 125.437 60.9554C125.234 60.3947 125.012 59.8243 124.78 59.2443" fill="white"/>
<path d="M140.113 61.0223C139.89 61.6314 139.668 62.2501 139.445 62.8882C139.223 63.5165 139.001 64.1449 138.788 64.7636C138.575 65.3727 138.392 65.9237 138.237 66.4071C138.015 66.3878 137.773 66.3781 137.502 66.3781H137.125L136.748 66.4071C136.642 66.0107 136.507 65.508 136.333 64.8796C136.159 64.2513 135.975 63.5939 135.772 62.8882C135.569 62.1824 135.366 61.4767 135.153 60.7613C134.94 60.0459 134.747 59.3885 134.563 58.7891C134.38 58.1898 134.225 57.687 134.099 57.2713C133.974 56.8556 133.896 56.5946 133.858 56.498C134.07 56.5173 134.273 56.5366 134.476 56.5463C134.679 56.556 134.873 56.5656 135.066 56.5656C135.259 56.5656 135.453 56.5656 135.646 56.5463C135.849 56.527 136.033 56.5173 136.226 56.498C136.371 57.107 136.526 57.7451 136.681 58.3928C136.845 59.0405 137.009 59.6785 137.183 60.3069C137.348 60.9353 137.512 61.5444 137.667 62.1341C137.821 62.7335 137.976 63.2749 138.102 63.7679H138.131C138.343 63.1588 138.575 62.5111 138.817 61.7957C139.059 61.09 139.3 60.4036 139.532 59.7269C139.764 59.0502 139.977 58.4314 140.171 57.8514C140.364 57.281 140.509 56.8266 140.615 56.4883L140.973 56.5366L141.331 56.556L141.688 56.5366L142.046 56.4883C142.085 56.701 142.162 56.9813 142.268 57.339C142.375 57.6967 142.491 58.0834 142.636 58.5185C142.781 58.9535 142.926 59.4079 143.08 59.8912C143.235 60.3746 143.399 60.8483 143.554 61.3124C143.718 61.7861 143.864 62.2308 143.999 62.6561C144.134 63.0718 144.241 63.4489 144.328 63.7679H144.357C144.55 63.1588 144.753 62.5014 144.966 61.7667C145.178 61.0417 145.391 60.3359 145.594 59.6495C145.797 58.9728 145.981 58.3444 146.135 57.7741C146.3 57.2133 146.416 56.7783 146.483 56.498C146.725 56.5463 146.918 56.5656 147.092 56.5656L147.411 56.5463L147.75 56.498C147.682 56.6816 147.576 56.9813 147.431 57.397C147.286 57.8031 147.121 58.2961 146.928 58.8568C146.735 59.4175 146.532 60.0266 146.309 60.6936C146.087 61.351 145.865 62.0277 145.652 62.6948C145.43 63.3619 145.217 64.0289 145.014 64.667C144.811 65.3147 144.627 65.8851 144.473 66.3974C144.25 66.3781 144.009 66.3684 143.738 66.3684H143.361L142.984 66.3974C142.674 65.2277 142.326 64.0676 141.94 62.9075C141.553 61.7474 141.147 60.568 140.712 59.3692H140.683C140.509 59.8622 140.316 60.4133 140.093 61.0223" fill="white"/>
<path d="M148.61 59.4952C148.871 58.8765 149.248 58.3255 149.722 57.8518C150.205 57.3781 150.785 57.0107 151.462 56.74C152.139 56.479 152.902 56.334 153.734 56.334C154.498 56.334 155.213 56.4403 155.87 56.653C156.528 56.8657 157.108 57.1751 157.591 57.6004C158.075 58.0161 158.461 58.5575 158.751 59.2052C159.032 59.8529 159.177 60.607 159.177 61.4674C159.177 62.1828 159.041 62.8595 158.771 63.4782C158.5 64.1066 158.123 64.648 157.639 65.1121C157.156 65.5761 156.576 65.9338 155.909 66.1948C155.242 66.4462 154.498 66.5815 153.695 66.5815C152.941 66.5815 152.226 66.4848 151.568 66.3012C150.901 66.1175 150.321 65.8081 149.828 65.3924C149.335 64.9767 148.948 64.445 148.658 63.7973C148.368 63.1496 148.223 62.3762 148.223 61.4771C148.223 60.7617 148.359 60.1043 148.62 59.4759M156.595 59.4856C156.441 58.9925 156.228 58.5768 155.957 58.2288C155.687 57.8808 155.358 57.6198 154.971 57.4264C154.585 57.2331 154.159 57.1461 153.695 57.1461C153.202 57.1461 152.767 57.2621 152.38 57.5037C151.994 57.7454 151.665 58.0548 151.394 58.4608C151.124 58.8669 150.921 59.3406 150.785 59.8819C150.64 60.4233 150.573 61.0034 150.573 61.6124C150.573 62.3762 150.65 63.0239 150.814 63.5556C150.979 64.0873 151.201 64.503 151.481 64.8317C151.762 65.1507 152.081 65.3827 152.438 65.5278C152.806 65.6728 153.183 65.7404 153.589 65.7404C154.024 65.7404 154.43 65.6534 154.826 65.4697C155.223 65.2861 155.561 65.0057 155.851 64.6383C156.141 64.2613 156.383 63.7876 156.557 63.2172C156.731 62.6468 156.818 61.9605 156.818 61.1774C156.818 60.5587 156.74 59.998 156.586 59.5049" fill="white"/>
<path d="M161.787 63.1784C161.71 64.2515 161.632 65.3342 161.555 66.4073L161.207 66.388H160.54L160.202 66.4073C160.511 64.7542 160.782 63.1204 161.023 61.4866C161.265 59.8528 161.478 58.1996 161.681 56.5175L161.98 56.5658L162.27 56.5852L162.551 56.5658L162.85 56.5175C163.111 57.0879 163.382 57.6776 163.662 58.277C163.943 58.8667 164.223 59.4661 164.513 60.0558C164.794 60.6455 165.074 61.2255 165.364 61.7863C165.654 62.3566 165.925 62.898 166.176 63.4007C166.746 62.318 167.326 61.1965 167.897 60.0171C168.467 58.8473 169.018 57.6679 169.531 56.5078C169.772 56.5561 169.975 56.5755 170.149 56.5755C170.323 56.5755 170.517 56.5561 170.758 56.5078C170.855 57.3392 170.961 58.219 171.068 59.1664C171.174 60.1138 171.29 61.0515 171.387 61.9506C171.493 62.8593 171.599 63.7004 171.706 64.4931C171.812 65.2762 171.909 65.9143 171.996 66.388C171.803 66.3783 171.609 66.3686 171.416 66.3686H170.246C170.043 66.3686 169.84 66.3686 169.637 66.388C169.589 65.4019 169.511 64.3288 169.395 63.1784C169.279 62.0279 169.173 60.8872 169.057 59.7561H169.028C168.477 60.8872 167.945 61.9989 167.413 63.101C166.891 64.1935 166.36 65.2955 165.847 66.3976L165.712 66.3783H165.577H165.441L165.306 66.3976C164.784 65.3245 164.272 64.2515 163.759 63.1687C163.247 62.0956 162.715 61.0032 162.164 59.9011H162.135C161.98 61.0032 161.864 62.0956 161.787 63.1687" fill="white"/>
<path d="M181.886 66.4079C181.654 66.3886 181.431 66.3789 181.228 66.3789H180C179.797 66.3789 179.594 66.3886 179.391 66.4079C179.237 65.9439 179.082 65.4605 178.918 64.9771C178.753 64.4937 178.579 64.0104 178.396 63.5173C178.096 63.5173 177.787 63.5076 177.477 63.498C177.168 63.498 176.868 63.498 176.559 63.498C176.307 63.498 176.056 63.498 175.805 63.498C175.553 63.498 175.312 63.5076 175.06 63.5173C174.867 64.0104 174.693 64.4937 174.529 64.9771C174.364 65.4605 174.219 65.9439 174.084 66.4079L173.746 66.3789H173.059L172.682 66.4079C172.798 66.1565 172.953 65.8085 173.146 65.3735C173.34 64.9288 173.552 64.4357 173.784 63.8847C174.016 63.3336 174.268 62.7343 174.529 62.0962C174.799 61.4581 175.06 60.8201 175.321 60.1627C175.582 59.515 175.843 58.8769 176.095 58.2389C176.356 57.6105 176.588 57.0208 176.8 56.4697L177.071 56.5084L177.342 56.5277L177.622 56.5084L177.893 56.4697C178.202 57.2818 178.531 58.1615 178.879 59.0896C179.227 60.0177 179.575 60.9361 179.933 61.8255C180.29 62.7246 180.638 63.5753 180.967 64.3777C181.306 65.1801 181.605 65.8568 181.886 66.4176M176.791 59.2443C176.539 59.8243 176.307 60.3947 176.085 60.9554C175.863 61.5162 175.64 62.0865 175.437 62.6762H178.067C177.854 62.0962 177.651 61.5162 177.439 60.9554C177.236 60.3947 177.013 59.8243 176.781 59.2443" fill="white"/>
<path d="M183.471 57.7065C183.452 57.2521 183.432 56.8557 183.432 56.5077C183.703 56.5561 183.916 56.5754 184.08 56.5754C184.244 56.5754 184.457 56.5561 184.728 56.5077C185.772 57.6678 186.806 58.8086 187.831 59.93C188.856 61.0514 189.9 62.1922 190.973 63.3523V60.7034C190.973 60.2297 190.973 59.7753 190.973 59.3113C190.973 58.8569 190.963 58.4315 190.963 58.0545C190.963 57.6678 190.944 57.3391 190.934 57.0588C190.915 56.7784 190.905 56.5947 190.886 56.498C191.157 56.5464 191.369 56.5657 191.534 56.5657C191.698 56.5657 191.911 56.5464 192.181 56.498C192.133 57.3681 192.104 58.1608 192.075 58.8666C192.046 59.5723 192.027 60.2394 192.007 60.8581C191.988 61.4865 191.978 62.1052 191.978 62.7142C191.978 63.3233 191.978 63.971 191.978 64.6671V66.3975C191.785 66.3782 191.592 66.3782 191.389 66.3782C191.186 66.3782 190.992 66.3782 190.828 66.3975C188.856 64.0967 186.758 61.7765 184.544 59.437C184.544 59.7173 184.525 59.9977 184.525 60.2684C184.525 60.5487 184.525 60.8291 184.525 61.1191V62.7916C184.525 63.3716 184.525 63.855 184.525 64.261C184.525 64.6671 184.534 65.0054 184.544 65.2761C184.554 65.5565 184.563 65.7885 184.583 65.9625C184.583 66.1365 184.602 66.2815 184.612 66.3879L184.254 66.3685H183.916C183.693 66.3685 183.471 66.3685 183.249 66.3879C183.268 66.3105 183.297 66.0398 183.316 65.5661C183.345 65.0924 183.374 64.522 183.413 63.8453C183.452 63.1686 183.471 62.4339 183.5 61.6411C183.519 60.8484 183.539 60.0847 183.539 59.3596C183.539 58.7022 183.539 58.1415 183.51 57.6871" fill="white"/>
<path d="M197.073 57.2426C196.628 57.2426 196.271 57.3683 195.99 57.6293C195.71 57.8903 195.575 58.19 195.575 58.5381C195.575 58.8861 195.681 59.1858 195.903 59.4081C196.116 59.6402 196.387 59.8432 196.715 60.0172C197.044 60.2009 197.392 60.3749 197.769 60.5392C198.146 60.7036 198.494 60.9066 198.823 61.158C199.142 61.3996 199.422 61.6993 199.635 62.0474C199.848 62.3954 199.954 62.8498 199.954 63.3911C199.954 63.8745 199.857 64.3096 199.683 64.7059C199.5 65.112 199.239 65.4406 198.91 65.7307C198.572 66.011 198.175 66.2237 197.701 66.3784C197.237 66.5234 196.715 66.6007 196.145 66.6007C195.623 66.6007 195.169 66.5427 194.763 66.4364C194.357 66.3301 194.047 66.1947 193.834 66.0207C193.931 65.6823 194.008 65.3826 194.076 65.1023C194.144 64.8219 194.202 64.5222 194.25 64.1935H194.521C194.56 64.4062 194.627 64.5996 194.734 64.7929C194.84 64.9766 194.975 65.141 195.14 65.286C195.304 65.431 195.497 65.547 195.729 65.6243C195.961 65.7017 196.213 65.7403 196.503 65.7403C197.083 65.7403 197.508 65.5953 197.779 65.3053C198.049 65.0153 198.185 64.6769 198.185 64.2709C198.185 63.9035 198.078 63.6038 197.866 63.3718C197.663 63.1398 197.392 62.9368 197.083 62.7628C196.764 62.5887 196.425 62.4147 196.048 62.2504C195.671 62.086 195.333 61.883 195.014 61.6413C194.695 61.3996 194.434 61.1096 194.221 60.7519C194.008 60.4039 193.902 59.9495 193.902 59.4081C193.902 58.9054 193.989 58.4704 194.163 58.0837C194.347 57.7067 194.579 57.378 194.869 57.117C195.169 56.8559 195.507 56.6626 195.894 56.5272C196.28 56.3919 196.696 56.3242 197.121 56.3242C197.634 56.3242 198.088 56.3919 198.485 56.5176C198.871 56.6432 199.21 56.8173 199.49 57.0396C199.403 57.262 199.326 57.4746 199.268 57.6873C199.21 57.8903 199.132 58.1514 199.036 58.4704H198.823C198.514 57.6487 197.933 57.233 197.083 57.233" fill="white"/>
<path d="M208.452 66.4072C207.92 66.2815 207.456 66.0592 207.06 65.7595C206.663 65.4501 206.354 65.0634 206.141 64.5897C205.909 64.116 205.803 63.536 205.803 62.8496V60.9741C205.803 60.7131 205.803 60.4617 205.813 60.22C205.813 59.9783 205.822 59.727 205.822 59.466C205.822 58.6926 205.822 58.0545 205.813 57.5808C205.813 57.0974 205.793 56.7397 205.774 56.498C205.967 56.5174 206.161 56.5367 206.354 56.5464C206.557 56.5561 206.75 56.5657 206.944 56.5657C207.137 56.5657 207.33 56.5657 207.524 56.5464C207.727 56.527 207.92 56.5077 208.113 56.498C208.017 57.4261 207.959 58.2962 207.939 59.0986C207.92 59.901 207.91 60.7131 207.91 61.5445C207.91 62.4242 207.978 63.1203 208.104 63.6713C208.229 64.203 208.413 64.6187 208.655 64.9184C208.897 65.2084 209.196 65.4018 209.554 65.4985C209.912 65.5951 210.318 65.6435 210.791 65.6435C211.371 65.6435 211.816 65.4985 212.145 65.2084C212.473 64.9184 212.725 64.5414 212.889 64.058C213.054 63.5746 213.16 63.0236 213.199 62.4049C213.237 61.7862 213.257 61.1384 213.257 60.4714C213.257 59.8043 213.247 59.1469 213.228 58.4895C213.208 57.8322 213.179 57.1748 213.141 56.5077L213.527 56.556L213.875 56.5754L214.233 56.556L214.591 56.5077C214.571 56.7107 214.552 57.0008 214.533 57.3585C214.513 57.7161 214.484 58.1222 214.475 58.5959C214.455 59.0599 214.436 59.5723 214.426 60.133C214.407 60.6937 214.407 61.2931 214.407 61.9118C214.407 63.5843 214.049 64.7831 213.324 65.5081C212.609 66.2332 211.555 66.6006 210.163 66.6006C209.554 66.6006 208.974 66.5329 208.452 66.4072Z" fill="white"/>
<path d="M217.065 57.7065C217.046 57.2521 217.027 56.8557 217.017 56.5077C217.288 56.5561 217.5 56.5754 217.665 56.5754C217.829 56.5754 218.042 56.5561 218.313 56.5077C219.357 57.6678 220.391 58.8086 221.416 59.93C222.441 61.0514 223.485 62.1922 224.558 63.3523V60.7034C224.558 60.2297 224.558 59.7753 224.558 59.3113C224.558 58.8569 224.558 58.4315 224.548 58.0545C224.548 57.6678 224.529 57.3391 224.519 57.0588C224.5 56.7784 224.48 56.5947 224.471 56.498C224.741 56.5464 224.954 56.5657 225.118 56.5657C225.283 56.5657 225.495 56.5464 225.766 56.498C225.718 57.3681 225.679 58.1608 225.65 58.8666C225.621 59.5723 225.602 60.2394 225.582 60.8581C225.563 61.4865 225.553 62.1052 225.553 62.7142C225.553 63.3233 225.553 63.971 225.553 64.6671V66.3975C225.36 66.3782 225.167 66.3782 224.964 66.3782C224.751 66.3782 224.558 66.3782 224.403 66.3975C222.421 64.0967 220.333 61.7765 218.11 59.437C218.11 59.7173 218.1 59.9977 218.09 60.2684C218.09 60.5487 218.09 60.8291 218.09 61.1191V62.7916C218.09 63.3716 218.09 63.855 218.09 64.261C218.09 64.6671 218.1 65.0054 218.11 65.2761C218.119 65.5565 218.129 65.7885 218.139 65.9625C218.148 66.1365 218.168 66.2815 218.177 66.3879L217.829 66.3685H217.491C217.268 66.3685 217.046 66.3685 216.824 66.3879C216.843 66.3105 216.862 66.0398 216.901 65.5661C216.93 65.0924 216.959 64.522 216.998 63.8453C217.027 63.1686 217.056 62.4339 217.085 61.6411C217.104 60.8484 217.123 60.0847 217.123 59.3596C217.123 58.7022 217.114 58.1415 217.094 57.6871" fill="white"/>
<path d="M228.193 58.3736C228.174 57.7549 228.145 57.1362 228.096 56.5078C228.261 56.5271 228.444 56.5465 228.628 56.5561C228.821 56.5658 229.034 56.5755 229.276 56.5755C229.517 56.5755 229.73 56.5755 229.923 56.5561C230.117 56.5368 230.291 56.5271 230.455 56.5078C230.426 57.1362 230.397 57.7549 230.378 58.3736C230.358 58.9924 230.358 59.6981 230.358 60.5005V62.463C230.358 63.2557 230.358 63.9711 230.378 64.5898C230.397 65.2085 230.416 65.8176 230.455 66.417C230.291 66.3976 230.117 66.388 229.923 66.388H228.628C228.435 66.388 228.261 66.388 228.096 66.417C228.135 65.8176 228.174 65.2085 228.193 64.5898C228.212 63.9711 228.222 63.2654 228.222 62.463V60.5005C228.222 59.6981 228.222 59.002 228.193 58.3736Z" fill="white"/>
<path d="M238.547 60.0655C239.02 58.8281 239.436 57.6487 239.813 56.5176C240.055 56.5659 240.268 56.5853 240.451 56.5853C240.635 56.5853 240.848 56.5659 241.08 56.5176C240.838 57.0783 240.558 57.7647 240.21 58.5671C239.871 59.3598 239.523 60.2106 239.156 61.1C238.798 61.9894 238.431 62.8981 238.073 63.8262C237.715 64.7446 237.406 65.605 237.126 66.4171C236.932 66.4074 236.729 66.3977 236.497 66.3977C236.265 66.3977 236.053 66.3977 235.869 66.4171C235.724 66.0304 235.55 65.5663 235.347 65.025C235.144 64.4739 234.921 63.8939 234.68 63.2848C234.448 62.6758 234.196 62.0377 233.945 61.3997C233.684 60.7616 233.433 60.1332 233.201 59.5338C232.959 58.9344 232.727 58.3737 232.524 57.8614C232.311 57.3393 232.128 56.8946 231.973 56.5369C232.195 56.5562 232.408 56.5756 232.63 56.5853C232.843 56.5949 233.065 56.6046 233.268 56.6046C233.471 56.6046 233.694 56.6046 233.906 56.5853C234.119 56.5659 234.332 56.5562 234.544 56.5369C234.709 57.0686 234.892 57.639 235.096 58.2384C235.299 58.8378 235.511 59.4372 235.734 60.0559C235.956 60.6746 236.188 61.303 236.42 61.9217C236.652 62.5501 236.884 63.1591 237.106 63.7682C237.599 62.5501 238.092 61.3223 238.556 60.0849" fill="white"/>
<path d="M242.394 58.3736C242.375 57.7549 242.356 57.1362 242.327 56.5078C242.762 56.5078 243.187 56.5271 243.612 56.5465C244.038 56.5755 244.473 56.5755 244.908 56.5755C245.614 56.5755 246.252 56.5755 246.793 56.5561C247.344 56.5368 247.721 56.5271 247.914 56.5078C247.876 56.6625 247.856 56.8655 247.856 57.1169C247.856 57.2715 247.856 57.3876 247.876 57.4746L247.924 57.7646C247.644 57.7452 247.344 57.7259 247.006 57.7066C246.667 57.6872 246.348 57.6679 246.039 57.6486C245.73 57.6292 245.449 57.6196 245.198 57.6099C244.947 57.6002 244.773 57.5906 244.666 57.5906C244.628 58.1223 244.599 58.6443 244.599 59.1567C244.599 59.6787 244.599 60.2008 244.599 60.7228C245.217 60.7132 245.788 60.6938 246.29 60.6745C246.793 60.6552 247.315 60.6262 247.866 60.5972C247.837 60.7615 247.818 60.8872 247.808 60.9645L247.789 61.2449L247.808 61.4866C247.827 61.5639 247.837 61.6896 247.856 61.8443C246.764 61.7669 245.672 61.7283 244.589 61.7283C244.589 62.0279 244.589 62.3373 244.579 62.6467C244.579 62.956 244.57 63.2654 244.57 63.5651C244.57 64.1935 244.589 64.7928 244.618 65.3632C245.169 65.3632 245.71 65.3439 246.261 65.3149C246.803 65.2859 247.354 65.2375 247.914 65.1602L247.876 65.4502C247.866 65.5372 247.856 65.6532 247.856 65.8079C247.856 65.9626 247.856 66.0883 247.876 66.1656L247.914 66.3783C247.653 66.3686 247.334 66.359 246.957 66.359C246.58 66.359 246.058 66.359 245.401 66.359H243.11C242.887 66.359 242.733 66.359 242.617 66.359L242.336 66.3783C242.365 65.7789 242.394 65.1699 242.404 64.5512C242.423 63.9324 242.433 63.2267 242.433 62.4243V60.4618C242.433 59.6594 242.433 58.9634 242.404 58.335" fill="white"/>
<path d="M251.878 61.8733V62.463C251.878 63.2654 251.878 63.9711 251.907 64.5898C251.926 65.2085 251.955 65.8079 251.994 66.4073C251.83 66.388 251.656 66.3783 251.462 66.3783H250.167C249.973 66.3783 249.799 66.388 249.635 66.4073C249.664 65.8079 249.693 65.1989 249.712 64.5802C249.732 63.9614 249.732 63.2557 249.732 62.463V60.5005C249.732 59.7077 249.732 59.002 249.712 58.3736C249.693 57.7549 249.674 57.1362 249.635 56.5078C249.799 56.5271 249.973 56.5465 250.167 56.5561C250.36 56.5658 250.573 56.5755 250.815 56.5755C251.076 56.5755 251.375 56.5755 251.704 56.5465C252.033 56.5271 252.448 56.5078 252.941 56.5078C253.309 56.5078 253.618 56.5078 253.879 56.5368C254.14 56.5561 254.363 56.5852 254.546 56.6238C254.73 56.6625 254.894 56.7205 255.039 56.7785C255.184 56.8462 255.31 56.9138 255.436 57.0009C255.726 57.2135 255.948 57.4746 256.122 57.7839C256.286 58.0933 256.373 58.4703 256.373 58.9053C256.373 59.6014 256.18 60.1718 255.793 60.6165C255.407 61.0612 254.856 61.3706 254.14 61.5542C254.604 62.3663 255.097 63.1784 255.619 64.0001C256.151 64.8122 256.673 65.6146 257.205 66.417C256.982 66.3976 256.77 66.388 256.557 66.388H255.252C255.039 66.388 254.817 66.3976 254.595 66.417L252.004 61.8829H251.878V61.8733ZM254.034 58.219C253.947 57.9676 253.811 57.7839 253.637 57.6486C253.454 57.5132 253.231 57.4359 252.941 57.3972C252.661 57.3586 252.323 57.3392 251.926 57.3392C251.897 58.6443 251.878 59.9494 251.878 61.2545L252.042 61.2739H252.197C252.835 61.2739 253.318 61.1095 253.657 60.7712C253.995 60.4328 254.16 59.9108 254.16 59.2244C254.16 58.799 254.121 58.4703 254.034 58.219Z" fill="white"/>
<path d="M261.053 57.2426C260.608 57.2426 260.25 57.3683 259.97 57.6293C259.689 57.8903 259.554 58.19 259.554 58.5381C259.554 58.8861 259.66 59.1858 259.873 59.4081C260.086 59.6402 260.357 59.8432 260.685 60.0172C261.014 60.2009 261.362 60.3749 261.739 60.5392C262.106 60.7036 262.464 60.9066 262.793 61.158C263.121 61.3996 263.392 61.6993 263.605 62.0474C263.817 62.3954 263.924 62.8498 263.924 63.3911C263.924 63.8745 263.827 64.3096 263.653 64.7059C263.469 65.112 263.208 65.4406 262.88 65.7307C262.541 66.011 262.135 66.2237 261.681 66.3784C261.217 66.5234 260.695 66.6007 260.125 66.6007C259.602 66.6007 259.138 66.5427 258.732 66.4364C258.326 66.3301 258.017 66.1947 257.804 66.0207C257.901 65.6823 257.978 65.3826 258.046 65.1023C258.114 64.8219 258.172 64.5222 258.22 64.1935H258.491C258.529 64.4062 258.597 64.5996 258.703 64.7929C258.81 64.9766 258.945 65.141 259.109 65.286C259.274 65.431 259.467 65.547 259.699 65.6243C259.921 65.7017 260.183 65.7403 260.473 65.7403C261.043 65.7403 261.468 65.5953 261.739 65.3053C262.01 65.0153 262.145 64.6769 262.145 64.2709C262.145 63.9035 262.048 63.6038 261.826 63.3718C261.613 63.1398 261.352 62.9368 261.033 62.7628C260.714 62.5887 260.376 62.4147 259.999 62.2504C259.622 62.086 259.283 61.883 258.964 61.6413C258.645 61.3996 258.384 61.1096 258.181 60.7519C257.969 60.4039 257.862 59.9495 257.862 59.4081C257.862 58.9054 257.949 58.4704 258.133 58.0837C258.307 57.7067 258.549 57.378 258.848 57.117C259.138 56.8559 259.486 56.6626 259.873 56.5272C260.26 56.3919 260.676 56.3242 261.101 56.3242C261.623 56.3242 262.068 56.3919 262.464 56.5176C262.851 56.6432 263.179 56.8173 263.46 57.0396C263.373 57.262 263.295 57.4746 263.237 57.6873C263.179 57.8903 263.102 58.1514 262.996 58.4704H262.783C262.474 57.6487 261.903 57.233 261.043 57.233" fill="white"/>
<path d="M265.77 58.3736C265.751 57.7549 265.722 57.1362 265.674 56.5078C265.838 56.5271 266.012 56.5465 266.205 56.5561C266.399 56.5658 266.611 56.5755 266.853 56.5755C267.095 56.5755 267.307 56.5755 267.501 56.5561C267.694 56.5368 267.868 56.5271 268.032 56.5078C267.994 57.1362 267.974 57.7549 267.955 58.3736C267.936 58.9924 267.936 59.6981 267.936 60.5005V62.463C267.936 63.2557 267.936 63.9711 267.955 64.5898C267.974 65.2085 267.994 65.8176 268.032 66.417C267.868 66.3976 267.694 66.388 267.501 66.388H266.205C266.012 66.388 265.838 66.388 265.674 66.417C265.712 65.8176 265.751 65.2085 265.77 64.5898C265.79 63.9711 265.799 63.2654 265.799 62.463V60.5005C265.799 59.6981 265.799 59.002 265.77 58.3736Z" fill="white"/>
<path d="M272.247 58.0933C272.247 57.8613 272.228 57.6969 272.209 57.5809C272.064 57.5809 271.89 57.5809 271.677 57.6002C271.464 57.6099 271.242 57.6196 271 57.6389C270.759 57.6582 270.517 57.6776 270.266 57.6969C270.014 57.7259 269.782 57.7549 269.57 57.7839L269.618 57.4649L269.637 57.1459L269.618 56.8268L269.57 56.5078C269.898 56.5175 270.188 56.5271 270.459 56.5368C270.72 56.5465 270.991 56.5561 271.261 56.5561C271.532 56.5561 271.832 56.5658 272.151 56.5658C272.47 56.5658 272.857 56.5658 273.311 56.5658C273.765 56.5658 274.152 56.5658 274.471 56.5658C274.79 56.5658 275.09 56.5658 275.351 56.5561C275.621 56.5561 275.882 56.5465 276.134 56.5368C276.395 56.5271 276.666 56.5175 276.965 56.5078L276.917 56.8268L276.898 57.1459L276.917 57.4649L276.965 57.7839C276.772 57.7549 276.559 57.7259 276.317 57.6969C276.076 57.6679 275.844 57.6486 275.602 57.6389C275.37 57.6292 275.148 57.6099 274.935 57.6002C274.722 57.5906 274.548 57.5809 274.403 57.5809L274.384 57.7839V58.0836V58.8473V62.4533C274.384 63.246 274.384 63.9614 274.413 64.5802C274.432 65.1989 274.452 65.8079 274.49 66.4073C274.326 66.388 274.142 66.3783 273.959 66.3783H272.663C272.47 66.3783 272.296 66.388 272.131 66.4073C272.17 65.8079 272.199 65.1989 272.218 64.5802C272.238 63.9614 272.257 63.246 272.257 62.4533V58.8473C272.257 58.567 272.257 58.3156 272.257 58.0836" fill="white"/>
<path d="M282.901 59.8915C283.094 59.5435 283.278 59.1761 283.462 58.7894C283.645 58.4027 283.819 58.016 283.993 57.6293C284.167 57.2426 284.342 56.8753 284.496 56.5176L284.815 56.5659L285.154 56.5853L285.492 56.5659L285.85 56.5176C285.685 56.7883 285.482 57.1363 285.241 57.5713C284.989 58.0064 284.738 58.4801 284.458 58.9924C284.177 59.5048 283.897 60.0269 283.616 60.5586C283.336 61.0903 283.075 61.5833 282.843 62.0377C282.843 62.2697 282.843 62.5017 282.833 62.7338C282.833 62.9658 282.833 63.2075 282.833 63.4492C282.833 63.9422 282.833 64.4256 282.853 64.9089C282.862 65.3826 282.911 65.895 282.978 66.4171C282.775 66.3977 282.572 66.3881 282.36 66.3881H281.132C280.929 66.3881 280.716 66.3977 280.523 66.4171C280.542 65.9724 280.581 65.5277 280.629 65.0636C280.678 64.5996 280.707 64.1452 280.707 63.6812C280.707 63.4588 280.707 63.2365 280.707 63.0141C280.707 62.7918 280.707 62.5597 280.687 62.3471C280.446 61.8637 280.175 61.332 279.856 60.7423C279.546 60.1525 279.237 59.5725 278.947 59.0215C278.657 58.4607 278.386 57.958 278.145 57.5037C277.903 57.059 277.719 56.7303 277.603 56.5272C277.826 56.5466 278.038 56.5659 278.251 56.5756C278.464 56.5949 278.676 56.5949 278.899 56.5949C279.121 56.5949 279.334 56.5949 279.537 56.5756C279.74 56.5659 279.962 56.5466 280.175 56.5272C280.339 56.8849 280.523 57.2813 280.726 57.7067C280.929 58.1417 281.142 58.5671 281.335 58.9828C281.538 59.3888 281.722 59.7658 281.896 60.1042C282.07 60.4426 282.205 60.6939 282.311 60.8583H282.34C282.534 60.5779 282.727 60.2686 282.92 59.9109" fill="white"/>
</svg>
