<svg width="297" height="90" viewBox="0 0 297 90" fill="none" xmlns="http://www.w3.org/2000/svg">
<g clip-path="url(#clip0_145_2168)">
<path d="M222.17 53.1098H241.79V59.6498H245.53V50.8398H222.17V53.1098Z" fill="white"/>
<path d="M93.1201 33.3299C93.1201 33.3299 95.2901 33.6399 95.2901 34.7299V42.2399H86.92L84.5501 38.3199L86.45 33.0499H78.9101V33.9199C78.9101 33.9199 81.92 34.4399 81.77 36.1699L74.05 56.7699H77.9001L83.2201 42.0199L91.82 56.7699H95.2901V59.6499H99.13V32.6699H93.1201V33.3299ZM88.25 44.4499H95.2901V56.1299L88.25 44.4499Z" fill="white"/>
<path d="M249.98 44.4499V42.2499H245.53V32.6699H239.62V33.3299C239.62 33.3299 241.79 33.6399 241.79 34.7299V49.2699H245.53V44.4499H249.98Z" fill="white"/>
<path d="M184.84 32.6692H178.88V33.3292C178.88 33.3292 181.05 33.6392 181.05 34.7292V56.1092L170.96 38.3492L171.59 36.5292H178.08V34.2392H161.39V36.5292H167.87L160.56 56.7492H164.51L169.59 42.2492L177.57 56.7492H181.05V59.6292H184.84V44.4392H189.36V42.2392H184.84V32.6592V32.6692Z" fill="white"/>
<path d="M151.58 33.3299C151.58 33.3299 153.75 33.6399 153.75 34.7299V35.9699L144.15 35.7699C143.61 35.5599 143.03 35.3899 142.44 35.2699L142.65 32.8099H137.82V33.4799C137.82 33.4799 138.78 33.5299 138.72 34.3699V35.2399C134.54 36.0099 131.4 39.3799 131.4 43.4199C131.4 48.0299 135.49 51.7699 140.55 51.7699C143.4 51.7699 145.94 50.5799 147.62 48.7199H153.77V59.6299H157.61V32.6699H151.6V33.3299H151.58ZM140.54 49.1599C137.72 49.1599 135.44 46.5999 135.44 43.4399C135.44 40.2799 137.72 37.7199 140.54 37.7199C143.36 37.7199 145.64 40.2799 145.64 43.4399C145.64 46.5999 143.36 49.1599 140.54 49.1599ZM153.76 46.3399H149.11C149.48 45.4299 149.69 44.4599 149.69 43.4299C149.69 41.4099 148.91 39.5599 147.6 38.1199H153.76V46.3299V46.3399Z" fill="white"/>
<path d="M221.32 41.9095C221.32 45.7395 225.01 48.8395 229.57 48.8395C234.13 48.8395 237.82 45.7395 237.82 41.9095C237.82 39.7395 236.63 37.8095 234.77 36.5395H239.12V34.4995H231.33L231.76 32.2695H226.98V32.9395C226.98 32.9395 227.94 32.9895 227.88 33.8295V34.4895H220.23V36.5295H224.38C222.52 37.7995 221.33 39.7295 221.33 41.8995L221.32 41.9095ZM229.57 36.8295C232.03 36.8295 234.02 38.9795 234.02 41.6295C234.02 44.2795 232.03 46.4295 229.57 46.4295C227.11 46.4295 225.12 44.2795 225.12 41.6295C225.12 38.9795 227.11 36.8295 229.57 36.8295Z" fill="white"/>
<path d="M210.74 33.3299C210.74 33.3299 212.91 33.6399 212.91 34.7299V42.2399H209.06V32.6699H203.15V33.3299C203.15 33.3299 205.33 33.6399 205.33 34.7299V48.1099L195.44 50.5099V36.5499H202.1V34.2599H188.91V34.9999C188.91 34.9999 191.63 35.2999 191.84 36.5699V53.9299L205.32 50.7599V59.6599H209.06V44.4599H212.91V59.6599H216.65V32.6699H210.74V33.3299Z" fill="white"/>
<path d="M272.72 56.0291L273.48 33.8691H251.31V36.1791H269.67L269 56.0191H265.53V42.2591H260.08V42.9191C260.08 42.9191 261.9 42.9591 261.9 44.3191V56.0191H258.23V42.2591H252.77V42.9191C252.77 42.9191 254.59 42.9591 254.59 44.3191V56.0191H249.98V58.3291H275.91V56.0191H272.73L272.72 56.0291Z" fill="white"/>
<path d="M125.24 38.6696C125.24 35.3596 122.2 32.5796 118.12 31.8596L118.36 30.3096H113.12V30.9896C113.12 30.9896 114.05 31.0396 114.02 31.8496C109.9 32.5496 106.81 35.3396 106.81 38.6796C106.81 40.4296 107.66 42.0196 109.05 43.2396H102.48V45.6796H113.86V48.0596H104.46V50.4296H122.91V52.4996H104.46V59.4096H127.98V57.0596H108.53V54.9396H126.98V48.0696H117.59V45.6896H129.49V43.2496H122.99C124.38 42.0296 125.23 40.4396 125.23 38.6896L125.24 38.6696ZM116.03 43.3696C113.13 43.3696 110.77 41.2596 110.77 38.6696C110.77 36.0796 113.12 33.9696 116.03 33.9696C118.94 33.9696 121.29 36.0796 121.29 38.6696C121.29 41.2596 118.93 43.3696 116.03 43.3696Z" fill="white"/>
<path fill-rule="evenodd" clip-rule="evenodd" d="M66.51 44.78L53.34 55.9L50.87 58.36L39.76 71.53L28.63 58.36L26.16 55.9L13 44.78L26.16 33.66L28.63 31.17L39.76 18L50.87 31.17L53.34 33.66L66.51 44.78ZM45.57 38.14V37.53L45.58 37.51H52V38.12C51.79 38.13 51.55 38.17 51.27 38.25C51 38.33 50.75 38.44 50.51 38.56C50.23 38.73 49.99 38.92 49.81 39.13C49.63 39.34 49.47 39.64 49.34 40.02C48.9018 41.2976 47.4484 45.5764 46.5248 48.2956C46.2049 49.2373 45.9486 49.9919 45.82 50.37C46.4 52.76 46.56 56.59 42.65 58.94C40.66 60.13 38.12 59.65 37.35 58.59C37.3365 58.5719 37.3199 58.5503 37.3007 58.5255C36.949 58.0716 35.7442 56.516 37.65 54.43C37.65 54.43 37.62 56.18 38.7 57.52C39.54 58.56 40.85 59.32 42.52 58.41C44.31 57.44 45.67 55.18 42.46 49.82C42.46 49.82 40.52 46.5 39.81 45.43C39.56 45.06 39.26 44.57 38.96 44.01L34.42 53.66H33.32C32.8605 52.1916 31.6313 48.2732 30.5868 44.9433C29.7676 42.3317 29.0619 40.082 28.93 39.66C28.85 39.42 28.75 39.22 28.6 39.04C28.46 38.87 28.26 38.7 28.01 38.55C27.8 38.42 27.56 38.32 27.28 38.26C27 38.19 26.75 38.15 26.52 38.14V37.53H33.74V38.14C33.17 38.17 32.64 38.3 32.17 38.46C31.74 38.6 31.59 39.03 31.59 39.22C31.59 39.2863 31.6037 39.3663 31.6198 39.46C31.6232 39.4794 31.6266 39.4994 31.63 39.52C31.6404 39.5877 31.6536 39.6446 31.6652 39.6948C31.6758 39.741 31.6852 39.7817 31.69 39.82C31.8035 40.2141 32.5482 42.5414 33.3343 44.9976C33.8644 46.6542 34.4133 48.3695 34.8 49.59L38.17 42.39C38.17 42.39 34.63 35.31 40.61 31.71C42.6 30.52 45.14 31 45.91 32.06C45.9249 32.0808 45.944 32.1061 45.9664 32.1357C46.3203 32.6036 47.4904 34.1509 45.6 36.22C45.6 36.22 45.63 34.47 44.55 33.13C43.7 32.09 42.4 31.33 40.73 32.24C38.95 33.22 37.58 35.47 40.79 40.83C40.79 40.83 42.74 44.16 43.44 45.23C43.96 46.03 44.72 47.32 45.26 48.7C45.71 47.31 47.9 40.05 47.95 39.79C48 39.53 48.03 39.31 48.03 39.13C48.03 38.87 47.84 38.66 47.45 38.49C47.06 38.32 46.44 38.2 45.57 38.14Z" fill="white"/>
</g>
<defs>
<clipPath id="clip0_145_2168">
<rect width="262.9" height="53.53" fill="white" transform="translate(13 18)"/>
</clipPath>
</defs>
</svg>
