<svg width="443" height="99" viewBox="0 0 443 99" fill="none" xmlns="http://www.w3.org/2000/svg">
<path d="M441.551 51.753C440.582 49.4715 439.327 47.266 437.768 45.1556C438.225 44.1479 438.548 43.1022 438.738 41.9994C438.909 40.8967 439.004 39.7559 439.004 38.5771V19.222C439.004 15.7427 438.13 12.5675 436.4 9.67755C434.67 6.78759 432.351 4.48704 429.461 2.73785C426.572 1.00768 423.397 0.13309 419.918 0.13309H344.146V40.4974H319.225V19.222C319.225 15.7427 318.35 12.5675 316.62 9.67755C314.89 6.78759 312.552 4.48704 309.625 2.73785C306.697 1.00768 303.485 0.13309 300.006 0.13309H239.46C235.981 0.13309 232.807 1.00768 229.917 2.73785C227.028 4.48704 224.728 6.78759 222.979 9.67755C221.249 12.5675 220.375 15.7427 220.375 19.222V80.7286H131.429V0H113.313V98.981H238.51V58.6167H300.975V98.981H319.225V58.2744H344.146V98.981H423.758C427.237 98.981 430.431 98.1064 433.358 96.3762C436.286 94.6461 438.624 92.3265 440.354 89.4365C442.084 86.5466 442.958 83.3714 442.958 79.8921V58.6167C442.958 56.3351 442.483 54.0346 441.513 51.753H441.551ZM300.975 40.4974H238.51V20.0396C238.51 19.5833 238.681 19.203 238.985 18.8798C239.308 18.5566 239.688 18.4045 240.145 18.4045H299.169C299.626 18.4045 300.044 18.5756 300.405 18.8798C300.766 19.203 300.956 19.5833 300.956 20.0396V40.4974H300.975ZM362.262 20.0396C362.262 19.5833 362.414 19.203 362.738 18.8798C363.061 18.5566 363.441 18.4045 363.897 18.4045H419.082C419.538 18.4045 419.899 18.5756 420.185 18.8798C420.451 19.203 420.603 19.5833 420.603 20.0396V37.8926C420.603 38.349 420.47 38.7292 420.185 39.0524C419.918 39.3757 419.538 39.5278 419.082 39.5278H363.897C363.441 39.5278 363.042 39.3566 362.738 39.0524C362.414 38.7292 362.262 38.349 362.262 37.8926V20.0396ZM424.728 79.0745C424.728 79.5308 424.538 79.9301 424.177 80.2343C423.815 80.5575 423.397 80.7096 422.941 80.7096H363.916C363.46 80.7096 363.061 80.5575 362.757 80.2343C362.433 79.9111 362.281 79.5308 362.281 79.0745V59.4342C362.281 58.9779 362.433 58.5977 362.757 58.2744H424.196C424.557 58.5977 424.747 58.9779 424.747 59.4342V79.0745H424.728Z" fill="#00D9B3"/>
<path d="M89.2311 2.88992C86.3036 1.15975 83.091 0.285156 79.6122 0.285156H0V99H18.1162V65.2141L79.6122 65.081C79.9354 65.081 80.2586 65.043 80.5817 65.024V46.8287H19.77C19.3138 46.8287 18.9336 46.6956 18.6104 46.4104C18.2872 46.1442 18.1352 45.783 18.1352 45.3076V20.0395C18.1352 19.5832 18.3062 19.203 18.6104 18.8797C18.9336 18.5565 19.3138 18.4044 19.77 18.4044H78.7948C79.251 18.4044 79.6693 18.5755 80.0304 18.8797C80.3916 19.203 80.5817 19.5832 80.5817 20.0395V46.8097H98.7929C98.7929 46.5245 98.8499 46.2583 98.8499 45.9921V19.3551C98.8499 15.8757 97.9755 12.7006 96.2456 9.8106C94.5158 6.92065 92.1776 4.62009 89.2501 2.87091L89.2311 2.88992Z" fill="#00D9B3"/>
</svg>
