<svg width="820" height="717" viewBox="0 0 820 717" fill="none" xmlns="http://www.w3.org/2000/svg">
<path d="M297.258 0L0 186.38V460.607L362.212 233.473V64.5587L297.258 0Z" fill="#4F7FEF"/>
<path d="M819.555 186.085L522.742 0L457.788 64.5587V233.473L600.893 323.162L819.555 186.085Z" fill="#A152F3"/>
<path d="M600.894 323.162L819.555 460.239L820 459.944V186.38L819.555 186.085L600.894 323.162Z" fill="#524692"/>
<path d="M409.963 442.846L0 185.791V459.944L409.963 717V442.846Z" fill="#A152F3"/>
<path d="M219.181 323.162L0.519034 460.239L0 459.944V186.38L0.519034 186.085L219.181 323.162Z" fill="#4150A0"/>
<path d="M409.963 442.846V717L819.555 460.239L600.893 323.162L409.963 442.846Z" fill="#4F7FEF"/>
</svg>
