<svg width="511" height="105" viewBox="0 0 511 105" fill="none" xmlns="http://www.w3.org/2000/svg">
<g clip-path="url(#clip0_140_709)">
<path d="M122.411 78.4276C122.411 78.7769 122.276 79.0724 122.007 79.2874C121.738 79.5292 121.416 79.6635 121.093 79.6635H89.2193C88.8696 79.6635 88.5737 79.5292 88.3586 79.2874C88.1165 79.0455 88.0089 78.75 88.0089 78.4276V0H74.4525V79.0455C74.4525 81.6517 75.0981 84.0161 76.416 86.1656C77.7071 88.315 79.4286 90.0345 81.5804 91.3511C83.7322 92.6407 86.1261 93.2856 88.7082 93.2856H121.819C124.428 93.2856 126.795 92.6407 128.947 91.3511C131.099 90.0614 132.82 88.315 134.138 86.1656C135.429 84.0161 136.102 81.6517 136.102 79.0455V0H122.465V78.4276H122.411Z" fill="white"/>
<path d="M511 93.2856L489.536 50.1087H493.624C496.233 50.1087 498.627 49.4639 500.806 48.2011C502.984 46.9383 504.733 45.2188 506.051 43.0156C507.342 40.8393 507.987 38.4481 507.987 35.8419V14.3475C507.987 11.7413 507.342 9.37692 506.051 7.22748C504.76 5.07804 503.011 3.3585 500.806 2.04197C498.627 0.752303 496.233 0.107472 493.624 0.107472L467.883 0H237.452C234.843 0 232.476 0.644831 230.324 1.96136C228.172 3.25102 226.451 4.97057 225.133 7.14688C223.842 9.29632 223.196 11.6607 223.196 14.2669V35.9493C223.196 38.6093 223.842 41.0274 225.133 43.1768C226.424 45.3263 228.172 47.0458 230.324 48.3623C232.476 49.652 234.843 50.2968 237.452 50.2968H269.998C270.347 50.2968 270.643 50.4043 270.858 50.6192C271.101 50.8342 271.208 51.1029 271.208 51.4521V78.4813C271.208 78.8306 271.074 79.1262 270.858 79.3411C270.616 79.5829 270.321 79.6904 269.998 79.6904H162.461V50.2968H197.24L207.515 36.5673H162.461V13.6221H200.225L210.5 0H159.906C153.8 0 148.824 4.9437 148.824 11.0696V81.0875C148.824 87.8314 154.284 93.2856 161.036 93.2856H270.616C273.225 93.2856 275.592 92.6407 277.744 91.3242C279.896 90.0345 281.618 88.315 282.936 86.1656C284.227 84.0161 284.899 81.6249 284.899 79.0455V50.8879C284.899 48.228 284.253 45.8099 282.936 43.6604C281.644 41.511 279.923 39.7915 277.744 38.5018C275.592 37.2121 273.199 36.5404 270.616 36.5404H237.963C237.613 36.5404 237.344 36.433 237.102 36.2449C236.86 36.0568 236.752 35.7613 236.752 35.412V14.858C236.752 14.5087 236.86 14.24 237.102 13.9982C237.344 13.7564 237.64 13.6489 237.963 13.6489H321.587V93.3124H335.224V13.6221H371.993V81.0875C371.993 87.8314 377.454 93.2856 384.205 93.2856H418.365L428.64 79.6635H385.657V50.27H415.406L425.681 36.5404H385.657V13.6221H446.419V93.2856H459.948V50.1894L471.837 50.1356L493.032 93.2856H511.027H511ZM460.271 36.1643C460.029 35.9493 459.922 35.6807 459.922 35.3314V14.858C459.922 14.5087 460.029 14.24 460.271 13.9982C460.513 13.7564 460.809 13.6489 461.132 13.6489H493.005C493.355 13.6489 493.651 13.7833 493.92 13.9982C494.189 14.24 494.323 14.5356 494.323 14.858V35.3314C494.323 35.6807 494.189 35.9493 493.92 36.1643C493.651 36.3792 493.328 36.4598 493.005 36.4598H461.132C460.782 36.4598 460.486 36.3524 460.271 36.1643Z" fill="white"/>
<path d="M40.8036 105L33.2992 91.7541H11.3239C5.16433 91.7541 0 86.891 0 80.4427V11.3114C0 4.8631 5.16433 0 11.3239 0H50.3791C56.5387 0 61.703 4.8631 61.703 11.3114V80.4427C61.703 86.891 56.5387 91.7541 50.3791 91.7541H46.9632L54.871 105H40.8036ZM48.2273 13.837C48.2273 12.8698 47.4473 12.0906 46.479 12.0906H15.224C14.2557 12.0906 13.4757 12.8698 13.4757 13.837V77.8902C13.4757 78.8575 14.2557 79.6366 15.224 79.6366H46.4521C47.4204 79.6366 48.2004 78.8575 48.2004 77.8902V13.837H48.2273Z" fill="white"/>
</g>
<defs>
<clipPath id="clip0_140_709">
<rect width="511" height="105" fill="white"/>
</clipPath>
</defs>
</svg>
