<svg width="254" height="74" viewBox="0 0 254 74" fill="none" xmlns="http://www.w3.org/2000/svg">
<g clip-path="url(#clip0_598_484)">
<path d="M101.97 43.55V6.78H128.23C133.82 6.78 136.61 9.01 136.61 13.47V22.97C136.61 27.43 133.82 29.66 128.23 29.66H108.71V43.56H101.98L101.97 43.55ZM108.7 23.83H127.64C129.13 23.83 129.87 23.23 129.87 22.04V14.39C129.87 13.2 129.13 12.6 127.64 12.6H108.7V23.84V23.83Z" fill="black"/>
<path d="M142.23 43.55V6.78H148.96V37.79H172.6V43.56H142.22L142.23 43.55Z" fill="black"/>
<path d="M174.21 43.55L191.51 6.78H198.49L215.74 43.55H208.81L204.69 34.88H185.26L181.19 43.55H174.21ZM187.87 29.16H202.11L194.99 14.04L187.87 29.16Z" fill="black"/>
<path d="M218.97 43.55V6.78H244.74C250.33 6.78 253.12 9.01 253.12 13.47V17.88C253.12 20.79 251.91 22.76 249.49 23.79C252.27 24.73 253.66 26.76 253.66 29.89V36.87C253.66 41.33 250.88 43.56 245.33 43.56H218.97V43.55ZM225.7 21.07H244.16C245.65 21.07 246.39 20.47 246.39 19.28V14.34C246.39 13.15 245.65 12.55 244.16 12.55H225.7V21.08V21.07ZM225.7 37.78H244.69C246.18 37.78 246.92 37.18 246.92 35.99V28.58C246.92 27.42 246.18 26.84 244.69 26.84H225.7V37.79V37.78Z" fill="black"/>
<path d="M118.47 67.31V56.55H126.16C127.8 56.55 128.61 57.2 128.61 58.51V61.29C128.61 62.59 127.79 63.25 126.16 63.25H120.44V67.32H118.47V67.31ZM120.44 61.54H125.99C126.42 61.54 126.64 61.37 126.64 61.02V58.78C126.64 58.43 126.42 58.26 125.99 58.26H120.44V61.55V61.54Z" fill="#717071"/>
<path d="M130.26 67.31V56.55H132.23V65.63H139.15V67.32H130.26V67.31Z" fill="#717071"/>
<path d="M139.62 67.31L144.68 56.55H146.72L151.77 67.31H149.74L148.53 64.77H142.84L141.65 67.31H139.61H139.62ZM143.62 63.1H147.79L145.71 58.68L143.63 63.1H143.62Z" fill="#717071"/>
<path d="M150.39 56.54H152.94L156.16 61.39L159.39 56.54H161.93L157.31 63.23V67.3H155.03V63.23L150.39 56.54Z" fill="#717071"/>
<path d="M165.61 58.24V56.54H175.89V58.24H171.75V67.3H169.76V58.24H165.6H165.61Z" fill="#717071"/>
<path d="M176.81 67.31V56.55H178.78V60.72H185.01V56.55H186.98V67.31H185.01V62.4H178.78V67.31H176.81Z" fill="#717071"/>
<path d="M188.83 67.31V56.55H198.36V58.24H190.8V60.72H197.96V62.41H190.8V65.62H198.36V67.32H188.83V67.31Z" fill="#717071"/>
<path d="M203.43 67.31V56.55H205.4V65.63H212.32V67.32H203.43V67.31Z" fill="#717071"/>
<path d="M212.79 67.31L217.85 56.55H219.89L224.94 67.31H222.91L221.7 64.77H216.01L214.82 67.31H212.78H212.79ZM216.79 63.1H220.96L218.88 58.68L216.8 63.1H216.79Z" fill="#717071"/>
<path d="M225.9 67.31V56.55H233.44C235.08 56.55 235.89 57.2 235.89 58.51V59.8C235.89 60.65 235.54 61.23 234.83 61.53C235.64 61.8 236.05 62.4 236.05 63.32V65.36C236.05 66.66 235.24 67.32 233.61 67.32H225.89L225.9 67.31ZM227.87 60.73H233.27C233.7 60.73 233.92 60.55 233.92 60.21V58.76C233.92 58.41 233.7 58.24 233.27 58.24H227.87V60.74V60.73ZM227.87 65.62H233.43C233.86 65.62 234.08 65.45 234.08 65.1V62.93C234.08 62.59 233.86 62.42 233.43 62.42H227.87V65.62Z" fill="#717071"/>
<path d="M30.27 0L0 19.1V47.18L36.88 23.92V6.61L30.27 0Z" fill="#4F7FEF"/>
<path d="M83.44 19.06L53.22 0L46.61 6.61V23.92L61.18 33.11L83.44 19.06Z" fill="#A152F3"/>
<path d="M61.1801 33.11L83.4401 47.15L83.4901 47.12V19.1L83.4401 19.06L61.1801 33.11Z" fill="#524692"/>
<path d="M41.75 45.37L0 19.03V47.12L41.75 73.45V45.37Z" fill="#A152F3"/>
<path d="M22.31 33.11L0.05 47.15L0 47.12V19.1L0.05 19.06L22.31 33.11Z" fill="#4150A0"/>
<path d="M41.75 45.37V73.45L83.44 47.15L61.18 33.11L41.75 45.37Z" fill="#4F7FEF"/>
</g>
<defs>
<clipPath id="clip0_598_484">
<rect width="253.66" height="73.45" fill="white"/>
</clipPath>
</defs>
</svg>
