<svg width="149" height="32" viewBox="0 0 149 32" fill="none" xmlns="http://www.w3.org/2000/svg">
<g clip-path="url(#clip0_202_368)">
<path d="M59.7465 21.918C59.7465 21.9959 59.7128 22.0626 59.653 22.1145C59.5895 22.1702 59.5185 22.1961 59.4401 22.1961H52.1165C52.0381 22.1961 51.9708 22.1665 51.9185 22.1145C51.8625 22.0589 51.8363 21.9959 51.8363 21.918V4.01953H48.7238V22.0552C48.7238 22.6485 48.8733 23.1899 49.1722 23.6793C49.4711 24.1688 49.8672 24.5618 50.3604 24.8622C50.8574 25.1588 51.4029 25.3071 52.0007 25.3071H59.6045C60.2023 25.3071 60.7478 25.1588 61.2411 24.8622C61.738 24.5655 62.1341 24.1725 62.433 23.6793C62.7319 23.1862 62.8814 22.6485 62.8814 22.0552V4.01953H59.7465V21.9143V21.918Z" fill="white"/>
<path d="M149 25.3069L144.072 15.4548H145.009C145.607 15.4548 146.157 15.3102 146.661 15.021C147.165 14.7317 147.565 14.3387 147.864 13.8381C148.163 13.3375 148.312 12.7924 148.312 12.2029V7.29349C148.312 6.70021 148.163 6.15885 147.864 5.66939C147.565 5.17623 147.165 4.78318 146.661 4.48654C146.157 4.1899 145.607 4.04158 145.009 4.04158L139.098 4.01562H86.1709C85.5731 4.01562 85.0275 4.16394 84.5343 4.46058C84.0374 4.75722 83.6413 5.15027 83.3424 5.64344C83.0435 6.13289 82.894 6.67426 82.894 7.26754V12.2103C82.894 12.8184 83.0435 13.3672 83.3424 13.8604C83.6413 14.3498 84.0374 14.7429 84.5343 15.0432C85.0275 15.3398 85.5731 15.4882 86.1709 15.4882H93.6476C93.7261 15.4882 93.7933 15.5104 93.8494 15.5586C93.9054 15.6068 93.9316 15.6661 93.9316 15.744V21.9141C93.9316 21.992 93.9017 22.0587 93.8494 22.1106C93.7933 22.1663 93.7261 22.1922 93.6476 22.1922H68.9457V15.4845H76.9343L79.292 12.3512H68.9457V7.12663H77.6181L79.9758 4.01562H68.3553C66.9504 4.01562 65.8145 5.14656 65.8145 6.54077V22.5185C65.8145 24.0573 67.07 25.3032 68.6206 25.3032H93.7934C94.3912 25.3032 94.9367 25.1549 95.4299 24.8583C95.9269 24.5616 96.323 24.1686 96.6219 23.6791C96.9208 23.186 97.0703 22.6446 97.0703 22.0513V15.6254C97.0703 15.0172 96.9208 14.4685 96.6219 13.9753C96.323 13.4858 95.9269 13.0928 95.4299 12.7962C94.9367 12.4995 94.3875 12.3512 93.7934 12.3512H86.2905C86.212 12.3512 86.1448 12.3289 86.0924 12.2807C86.0401 12.2325 86.0102 12.1732 86.0102 12.0953V7.40844C86.0102 7.33057 86.0364 7.26383 86.0924 7.21192C86.1485 7.1563 86.212 7.13034 86.2905 7.13034H105.496V25.3069H108.631V7.13034H117.075V22.5222C117.075 24.061 118.331 25.3069 119.882 25.3069H127.728L130.086 22.1959H120.21V15.4882H127.044L129.402 12.3549H120.21V7.13034H134.166V25.3069H137.275V15.477L140.006 15.4659L144.875 25.3106H149.007L149 25.3069ZM137.35 12.2733C137.294 12.2251 137.267 12.1658 137.267 12.0879V7.41215C137.267 7.33428 137.294 7.26754 137.35 7.21562C137.406 7.16 137.469 7.13405 137.548 7.13405H144.864C144.942 7.13405 145.013 7.16371 145.073 7.21562C145.136 7.27124 145.166 7.33799 145.166 7.41215V12.0879C145.166 12.1658 145.133 12.2288 145.073 12.2733C145.009 12.3215 144.938 12.3438 144.864 12.3438H137.548C137.469 12.3438 137.402 12.3215 137.35 12.2733Z" fill="white"/>
<path d="M41.0042 27.9806L39.278 24.9549H34.2337C32.8213 24.9549 31.6331 23.8425 31.6331 22.3741V6.6003C31.6331 5.13193 32.8213 4.01953 34.2337 4.01953H43.2013C44.6137 4.01953 45.8019 5.13193 45.8019 6.6003V22.3741C45.8019 23.8425 44.6137 24.9549 43.2013 24.9549H42.4166L44.2326 27.9806H41.0042ZM42.7081 7.17874C42.7081 6.95626 42.5287 6.77828 42.3045 6.77828H35.1305C34.9063 6.77828 34.7269 6.95626 34.7269 7.17874V21.7957C34.7269 22.0181 34.9063 22.1961 35.1305 22.1961H42.3045C42.5287 22.1961 42.7081 22.0181 42.7081 21.7957V7.17874Z" fill="white"/>
<path d="M0 5.78076V27.8433H8.95637V0L0 5.78076Z" fill="white"/>
<path d="M23.312 26.2193V4.15674H14.3556V32.0001L23.312 26.2193Z" fill="white"/>
<path opacity="0.7" d="M14.3556 9.50738H8.95636V7.57922L14.3556 4.15674V9.50738Z" fill="white"/>
<path opacity="0.7" d="M8.95636 22.4927H14.3556V24.4208L8.95636 27.8433V22.4927Z" fill="white"/>
</g>
<defs>
<clipPath id="clip0_202_368">
<rect width="149" height="32" fill="white"/>
</clipPath>
</defs>
</svg>
