<svg width="149" height="32" viewBox="0 0 149 32" fill="none" xmlns="http://www.w3.org/2000/svg">
<g clip-path="url(#clip0_601_1089)">
<path d="M59.7463 21.918C59.7463 21.9959 59.7126 22.0626 59.6529 22.1145C59.5893 22.1702 59.5184 22.1961 59.4399 22.1961H52.1164C52.0379 22.1961 51.9706 22.1665 51.9183 22.1145C51.8623 22.0589 51.8361 21.9959 51.8361 21.918V4.01953H48.7236V22.0552C48.7236 22.6485 48.8731 23.1899 49.172 23.6793C49.4709 24.1688 49.867 24.5618 50.3602 24.8622C50.8572 25.1588 51.4027 25.3071 52.0005 25.3071H59.6043C60.2021 25.3071 60.7477 25.1588 61.2409 24.8622C61.7378 24.5655 62.1339 24.1725 62.4328 23.6793C62.7317 23.1862 62.8812 22.6485 62.8812 22.0552V4.01953H59.7463V21.9143V21.918Z" fill="#283063"/>
<path d="M149 25.3069L144.071 15.4548H145.009C145.607 15.4548 146.156 15.3102 146.661 15.021C147.165 14.7317 147.565 14.3387 147.864 13.8381C148.163 13.3375 148.312 12.7924 148.312 12.2029V7.29349C148.312 6.70021 148.163 6.15885 147.864 5.66939C147.565 5.17623 147.165 4.78318 146.661 4.48654C146.156 4.1899 145.607 4.04158 145.009 4.04158L139.098 4.01562H86.1708C85.573 4.01562 85.0275 4.16394 84.5343 4.46058C84.0373 4.75722 83.6412 5.15027 83.3423 5.64344C83.0434 6.13289 82.8939 6.67426 82.8939 7.26754V12.2103C82.8939 12.8184 83.0434 13.3672 83.3423 13.8604C83.6412 14.3498 84.0373 14.7429 84.5343 15.0432C85.0275 15.3398 85.573 15.4882 86.1708 15.4882H93.6476C93.726 15.4882 93.7933 15.5104 93.8493 15.5586C93.9054 15.6068 93.9315 15.6661 93.9315 15.744V21.9141C93.9315 21.992 93.9016 22.0587 93.8493 22.1106C93.7933 22.1663 93.726 22.1922 93.6476 22.1922H68.9456V15.4845H76.9342L79.292 12.3512H68.9456V7.12663H77.618L79.9757 4.01562H68.3553C66.9503 4.01562 65.8145 5.14656 65.8145 6.54077V22.5185C65.8145 24.0573 67.0699 25.3032 68.6206 25.3032H93.7933C94.3911 25.3032 94.9367 25.1549 95.4299 24.8583C95.9268 24.5616 96.3229 24.1686 96.6218 23.6791C96.9207 23.186 97.0702 22.6446 97.0702 22.0513V15.6254C97.0702 15.0172 96.9207 14.4685 96.6218 13.9753C96.3229 13.4858 95.9268 13.0928 95.4299 12.7962C94.9367 12.4995 94.3874 12.3512 93.7933 12.3512H86.2904C86.212 12.3512 86.1447 12.3289 86.0924 12.2807C86.0401 12.2325 86.0102 12.1732 86.0102 12.0953V7.40844C86.0102 7.33057 86.0363 7.26383 86.0924 7.21192C86.1484 7.1563 86.212 7.13034 86.2904 7.13034H105.496V25.3069H108.631V7.13034H117.075V22.5222C117.075 24.061 118.331 25.3069 119.881 25.3069H127.728L130.086 22.1959H120.21V15.4882H127.044L129.402 12.3549H120.21V7.13034H134.166V25.3069H137.275V15.477L140.006 15.4659L144.875 25.3106H149.007L149 25.3069ZM137.35 12.2733C137.294 12.2251 137.267 12.1658 137.267 12.0879V7.41215C137.267 7.33428 137.294 7.26754 137.35 7.21562C137.406 7.16 137.469 7.13405 137.548 7.13405H144.864C144.942 7.13405 145.013 7.16371 145.073 7.21562C145.136 7.27124 145.166 7.33799 145.166 7.41215V12.0879C145.166 12.1658 145.133 12.2288 145.073 12.2733C145.009 12.3215 144.938 12.3438 144.864 12.3438H137.548C137.469 12.3438 137.402 12.3215 137.35 12.2733Z" fill="#283063"/>
<path d="M41.0044 27.9806L39.2782 24.9549H34.2339C32.8215 24.9549 31.6333 23.8425 31.6333 22.3741V6.6003C31.6333 5.13193 32.8215 4.01953 34.2339 4.01953H43.2015C44.6139 4.01953 45.8021 5.13193 45.8021 6.6003V22.3741C45.8021 23.8425 44.6139 24.9549 43.2015 24.9549H42.4168L44.2327 27.9806H41.0044ZM42.7083 7.17874C42.7083 6.95626 42.5289 6.77828 42.3047 6.77828H35.1307C34.9065 6.77828 34.7271 6.95626 34.7271 7.17874V21.7957C34.7271 22.0181 34.9065 22.1961 35.1307 22.1961H42.3047C42.5289 22.1961 42.7083 22.0181 42.7083 21.7957V7.17874Z" fill="#283063"/>
<path d="M0 5.78076V27.8433H8.95637V0L0 5.78076Z" fill="#283063"/>
<path d="M23.3118 26.2193V4.15674H14.3555V32.0001L23.3118 26.2193Z" fill="#283063"/>
<path opacity="0.7" d="M14.3558 9.50738H8.95654V7.57922L14.3558 4.15674V9.50738Z" fill="#283063"/>
<path opacity="0.7" d="M8.95654 22.4927H14.3558V24.4208L8.95654 27.8433V22.4927Z" fill="#283063"/>
</g>
<defs>
<clipPath id="clip0_601_1089">
<rect width="149" height="32" fill="white"/>
</clipPath>
</defs>
</svg>
