<svg width="398" height="89" viewBox="0 0 398 89" fill="none" xmlns="http://www.w3.org/2000/svg">
<path d="M396.736 46.5199C395.864 44.4691 394.736 42.4866 393.335 40.5896C393.745 39.6838 394.036 38.7438 394.207 37.7526C394.36 36.7613 394.446 35.7359 394.446 34.6763V17.2783C394.446 14.1508 393.66 11.2967 392.105 8.69898C390.55 6.10125 388.465 4.03332 385.868 2.46101C383.271 0.905788 380.417 0.119632 377.29 0.119632H309.18V36.4024H286.778V17.2783C286.778 14.1508 285.992 11.2967 284.437 8.69898C282.882 6.10125 280.78 4.03332 278.149 2.46101C275.517 0.905788 272.63 0.119632 269.503 0.119632H215.079C211.952 0.119632 209.099 0.905788 206.501 2.46101C203.904 4.03332 201.837 6.10125 200.264 8.69898C198.71 11.2967 197.924 14.1508 197.924 17.2783V72.5656H117.972V0H101.687V88.9723H214.225V52.6895H270.374V88.9723H286.778V52.3819H309.18V88.9723H380.742C383.869 88.9723 386.739 88.1862 389.371 86.6309C392.002 85.0757 394.104 82.9907 395.659 80.393C397.214 77.7952 398 74.9412 398 71.8136V52.6895C398 50.6387 397.573 48.5708 396.701 46.5199H396.736ZM270.374 36.4024H214.225V18.0132C214.225 17.6031 214.379 17.2612 214.652 16.9707C214.943 16.6802 215.284 16.5435 215.694 16.5435H268.751C269.161 16.5435 269.537 16.6973 269.861 16.9707C270.186 17.2612 270.357 17.6031 270.357 18.0132V36.4024H270.374ZM325.464 18.0132C325.464 17.6031 325.601 17.2612 325.891 16.9707C326.182 16.6802 326.523 16.5435 326.933 16.5435H376.538C376.948 16.5435 377.273 16.6973 377.529 16.9707C377.768 17.2612 377.905 17.6031 377.905 18.0132V34.0611C377.905 34.4712 377.786 34.813 377.529 35.1036C377.29 35.3941 376.948 35.5308 376.538 35.5308H326.933C326.523 35.5308 326.165 35.377 325.891 35.1036C325.601 34.813 325.464 34.4712 325.464 34.0611V18.0132ZM381.613 71.0787C381.613 71.4889 381.442 71.8478 381.118 72.1212C380.793 72.4118 380.417 72.5485 380.007 72.5485H326.951C326.54 72.5485 326.182 72.4118 325.908 72.1212C325.618 71.8307 325.481 71.4889 325.481 71.0787V53.4244C325.481 53.0142 325.618 52.6724 325.908 52.3819H381.135C381.459 52.6724 381.63 53.0142 381.63 53.4244V71.0787H381.613Z" fill="#283063"/>
<path d="M80.2083 2.59775C77.5768 1.04253 74.6891 0.256378 71.5621 0.256378H0V88.9894H16.2843V58.6199L71.5621 58.5003C71.8526 58.5003 72.143 58.4661 72.4335 58.449V42.0935H17.7709C17.3608 42.0935 17.0191 41.9739 16.7286 41.7175C16.4381 41.4783 16.3014 41.1536 16.3014 40.7263V18.0132C16.3014 17.6031 16.4552 17.2613 16.7286 16.9707C17.0191 16.6802 17.3608 16.5435 17.7709 16.5435H70.8273C71.2374 16.5435 71.6133 16.6973 71.938 16.9707C72.2626 17.2613 72.4335 17.6031 72.4335 18.0132V42.0764H88.8033C88.8033 41.8201 88.8545 41.5808 88.8545 41.3416V17.398C88.8545 14.2705 88.0685 11.4164 86.5135 8.81864C84.9586 6.22091 82.8568 4.15298 80.2254 2.58066L80.2083 2.59775Z" fill="#283063"/>
</svg>
