<svg width="136" height="28" viewBox="0 0 136 28" fill="none" xmlns="http://www.w3.org/2000/svg">
<g clip-path="url(#clip0_137_776)">
<path d="M32.579 20.914C32.579 21.0072 32.5432 21.086 32.4716 21.1433C32.4 21.2078 32.3141 21.2436 32.2282 21.2436H23.7452C23.6522 21.2436 23.5734 21.2078 23.5161 21.1433C23.4517 21.0788 23.4231 21 23.4231 20.914V0H19.8151V21.0788C19.8151 21.7738 19.9869 22.4043 20.3377 22.9775C20.6813 23.5507 21.1395 24.0092 21.7122 24.3603C22.2849 24.7042 22.922 24.8762 23.6092 24.8762H32.4215C33.1159 24.8762 33.7459 24.7042 34.3185 24.3603C34.8912 24.0164 35.3494 23.5507 35.7002 22.9775C36.0438 22.4043 36.2227 21.7738 36.2227 21.0788V0H32.5933V20.914H32.579Z" fill="white"/>
<path d="M136 24.8762L130.287 13.3623H131.376C132.07 13.3623 132.707 13.1904 133.287 12.8536C133.867 12.5169 134.332 12.0583 134.683 11.4708C135.026 10.8905 135.198 10.2528 135.198 9.55783V3.826C135.198 3.13101 135.026 2.50051 134.683 1.92733C134.339 1.35415 133.874 0.895599 133.287 0.544524C132.707 0.200614 132.07 0.0286592 131.376 0.0286592L124.525 0H63.1966C62.5022 0 61.8722 0.171955 61.2995 0.52303C60.7268 0.86694 60.2687 1.32549 59.9179 1.90583C59.5743 2.47902 59.4025 3.10952 59.4025 3.8045V9.58649C59.4025 10.2958 59.5743 10.9406 59.9179 11.5138C60.2615 12.087 60.7268 12.5455 61.2995 12.8966C61.8722 13.2405 62.5022 13.4125 63.1966 13.4125H71.8585C71.9516 13.4125 72.0303 13.4411 72.0876 13.4985C72.152 13.5558 72.1807 13.6274 72.1807 13.7206V20.9283C72.1807 21.0215 72.1449 21.1003 72.0876 21.1576C72.0232 21.2221 71.9444 21.2508 71.8585 21.2508H43.2383V13.4125H52.4944L55.229 9.75128H43.2383V3.63255H53.289L56.0236 0H42.5582C40.9332 0 39.6088 1.31832 39.6088 2.95189V21.6233C39.6088 23.4217 41.062 24.8762 42.8589 24.8762H72.0232C72.7176 24.8762 73.3475 24.7042 73.9202 24.3531C74.4929 24.0092 74.9511 23.5507 75.3018 22.9775C75.6455 22.4043 75.8244 21.7666 75.8244 21.0788V13.5701C75.8244 12.8608 75.6526 12.216 75.3018 11.6428C74.9582 11.0696 74.5001 10.6111 73.9202 10.2671C73.3475 9.92323 72.7104 9.74411 72.0232 9.74411H63.3326C63.2395 9.74411 63.1679 9.71545 63.1035 9.6653C63.0391 9.61515 63.0104 9.53633 63.0104 9.44319V3.96213C63.0104 3.86899 63.0391 3.79734 63.1035 3.73286C63.1679 3.66837 63.2467 3.63971 63.3326 3.63971H85.5888V24.8833H89.2183V3.63255H99.0041V21.6233C99.0041 23.4217 100.457 24.8762 102.254 24.8762H111.346L114.08 21.2436H102.641V13.4053H110.558L113.293 9.74411H102.641V3.63255H118.812V24.8762H122.413V13.3838L125.577 13.3695L131.218 24.8762H136.007H136ZM122.499 9.64381C122.434 9.58649 122.406 9.51484 122.406 9.4217V3.96213C122.406 3.86899 122.434 3.79734 122.499 3.73286C122.563 3.66837 122.642 3.63971 122.728 3.63971H131.211C131.304 3.63971 131.383 3.67554 131.454 3.73286C131.526 3.79734 131.562 3.87615 131.562 3.96213V9.4217C131.562 9.51484 131.526 9.58649 131.454 9.64381C131.383 9.70113 131.297 9.72262 131.211 9.72262H122.728C122.635 9.72262 122.556 9.69396 122.499 9.64381Z" fill="white"/>
<path d="M10.8597 28L8.86241 24.4678H3.01379C1.37446 24.4678 0 23.1709 0 21.4514V3.01638C0 1.29683 1.37446 0 3.01379 0H13.4081C15.0475 0 16.4219 1.29683 16.4219 3.01638V21.4514C16.4219 23.1709 15.0475 24.4678 13.4081 24.4678H12.499L14.6036 28H10.8597ZM12.8355 3.68987C12.8355 3.43193 12.6279 3.22416 12.3701 3.22416H4.0518C3.79408 3.22416 3.58648 3.43193 3.58648 3.68987V20.7707C3.58648 21.0287 3.79408 21.2364 4.0518 21.2364H12.363C12.6207 21.2364 12.8283 21.0287 12.8283 20.7707V3.68987H12.8355Z" fill="white"/>
</g>
<defs>
<clipPath id="clip0_137_776">
<rect width="136" height="28" fill="white"/>
</clipPath>
</defs>
</svg>
