<svg width="91" height="19" viewBox="0 0 91 19" fill="none" xmlns="http://www.w3.org/2000/svg">
<path d="M1.29 3.23V15.245H2.865V6.38L6.735 13.22H7.875L11.745 6.38V15.245H13.32V3.23H11.94L7.305 11.39L2.67 3.23H1.29ZM21.6998 15.515C25.3448 15.515 28.0298 12.86 28.0298 9.23C28.0298 5.6 25.3298 2.945 21.6848 2.945C18.0398 2.945 15.3548 5.6 15.3548 9.23C15.3548 12.86 18.0548 15.515 21.6998 15.515ZM21.6998 14.075C18.9548 14.075 16.9298 12.05 16.9298 9.23C16.9298 6.395 18.9398 4.385 21.6848 4.385C24.4298 4.385 26.4548 6.395 26.4548 9.23C26.4548 12.05 24.4298 14.075 21.6998 14.075ZM39.8685 15.245L36.8535 10.655C38.5035 10.07 39.4185 8.81 39.4185 7.115C39.4185 4.745 37.6335 3.23 34.6035 3.23H30.1035V15.245H31.6785V11H34.6035C34.8285 11 35.0535 10.985 35.2785 10.97L38.0085 15.245H39.8685ZM34.4835 9.59H31.6785V4.64H34.4835C36.5685 4.64 37.8435 5.495 37.8435 7.115C37.8435 8.735 36.5685 9.59 34.4835 9.59ZM41.5439 3.23V15.245H50.2139V13.85H43.1189V9.8H49.5539V8.405H43.1189V4.625H50.0789V3.23H41.5439Z" fill="white"/>
<path d="M90.7071 9.7071C91.0976 9.31658 91.0976 8.68341 90.7071 8.29289L84.3431 1.92893C83.9526 1.53841 83.3195 1.53841 82.9289 1.92893C82.5384 2.31945 82.5384 2.95262 82.9289 3.34314L88.5858 9L82.9289 14.6569C82.5384 15.0474 82.5384 15.6805 82.9289 16.0711C83.3195 16.4616 83.9526 16.4616 84.3431 16.0711L90.7071 9.7071ZM58 10L90 10L90 8L58 8L58 10Z" fill="white"/>
</svg>
