<svg width="95" height="95" viewBox="0 0 95 95" fill="none" xmlns="http://www.w3.org/2000/svg">
<path d="M58.8246 27.0102L51.4051 21.8137C50.5976 21.2532 49.6381 20.9492 48.6596 20.9492H28.5956C25.9546 20.9492 23.8076 23.0867 23.8076 25.7372V75.8117C23.8076 78.4527 25.9451 80.5997 28.5956 80.5997H71.7351C74.3761 80.5997 76.5231 78.4622 76.5231 75.8117V32.6722C76.5231 30.0312 74.3856 27.8842 71.7351 27.8842H61.5701C60.5916 27.8842 59.6321 27.5802 58.8246 27.0197V27.0102Z" fill="url(#paint0_linear_904_39972)"/>
<path d="M53.4945 20.2251L46.075 15.0286C45.2675 14.4681 44.308 14.1641 43.3295 14.1641H23.2655C20.6245 14.1641 18.4775 16.3016 18.4775 18.9521V69.0266C18.4775 71.6676 20.615 73.8146 23.2655 73.8146H66.405C69.046 73.8146 71.193 71.6771 71.193 69.0266V25.8776C71.193 23.2366 69.0555 21.0896 66.405 21.0896H56.24C55.2615 21.0896 54.302 20.7856 53.4945 20.2251Z" fill="url(#paint1_linear_904_39972)"/>
<path d="M47.5003 45.3697C50.8319 45.3697 53.5328 42.6688 53.5328 39.3372C53.5328 36.0055 50.8319 33.3047 47.5003 33.3047C44.1686 33.3047 41.4678 36.0055 41.4678 39.3372C41.4678 42.6688 44.1686 45.3697 47.5003 45.3697Z" fill="url(#paint2_linear_904_39972)"/>
<path d="M47.4999 47.6875C39.0164 47.6875 32.1289 54.2045 32.1289 61.6905H62.8614C62.8614 54.2045 55.9834 47.6875 47.4904 47.6875H47.4999Z" fill="url(#paint3_linear_904_39972)"/>
<defs>
<linearGradient id="paint0_linear_904_39972" x1="-347.148" y1="50.7602" x2="243.742" y2="50.7602" gradientUnits="userSpaceOnUse">
<stop stop-color="white" stop-opacity="0"/>
<stop offset="0.16" stop-color="#CADBF9" stop-opacity="0.22"/>
<stop offset="0.37" stop-color="#89AFF3" stop-opacity="0.49"/>
<stop offset="0.57" stop-color="#558CEE" stop-opacity="0.71"/>
<stop offset="0.74" stop-color="#3073EB" stop-opacity="0.87"/>
<stop offset="0.88" stop-color="#1963E8" stop-opacity="0.97"/>
<stop offset="0.97" stop-color="#115EE8"/>
</linearGradient>
<linearGradient id="paint1_linear_904_39972" x1="25.878" y1="24.3576" x2="64.6" y2="71.4966" gradientUnits="userSpaceOnUse">
<stop stop-color="white" stop-opacity="0"/>
<stop offset="0.16" stop-color="#CADBF9" stop-opacity="0.22"/>
<stop offset="0.37" stop-color="#89AFF3" stop-opacity="0.49"/>
<stop offset="0.57" stop-color="#558CEE" stop-opacity="0.71"/>
<stop offset="0.74" stop-color="#3073EB" stop-opacity="0.87"/>
<stop offset="0.88" stop-color="#1963E8" stop-opacity="0.97"/>
<stop offset="0.97" stop-color="#115EE8"/>
</linearGradient>
<linearGradient id="paint2_linear_904_39972" x1="53.6278" y1="33.0197" x2="29.0513" y2="58.3372" gradientUnits="userSpaceOnUse">
<stop offset="0.68" stop-color="white"/>
<stop offset="1" stop-color="white" stop-opacity="0"/>
</linearGradient>
<linearGradient id="paint3_linear_904_39972" x1="63.5074" y1="42.5955" x2="38.9214" y2="67.9225" gradientUnits="userSpaceOnUse">
<stop offset="0.68" stop-color="white"/>
<stop offset="1" stop-color="white" stop-opacity="0"/>
</linearGradient>
</defs>
</svg>
