<svg width="95" height="95" viewBox="0 0 95 95" fill="none" xmlns="http://www.w3.org/2000/svg">
<path d="M84.9015 57.707V69.088C84.9015 69.7815 84.341 70.3515 83.638 70.3515H16.3685C15.675 70.3515 15.105 69.791 15.105 69.088V57.707H84.9015Z" fill="url(#paint0_linear_806_11019)"/>
<path d="M58.463 77.6562H36.5465C35.8645 77.6562 35.3115 78.2092 35.3115 78.8912V81.7792C35.3115 82.4613 35.8645 83.0142 36.5465 83.0142H58.463C59.1451 83.0142 59.698 82.4613 59.698 81.7792V78.8912C59.698 78.2092 59.1451 77.6562 58.463 77.6562Z" fill="url(#paint1_linear_806_11019)"/>
<path d="M82.3932 21.7088C82.3932 21.0153 81.8327 20.4453 81.1297 20.4453H13.8602C13.1667 20.4453 12.5967 21.0058 12.5967 21.7088V55.6998H82.3932V21.7088Z" fill="url(#paint2_linear_806_11019)"/>
<path d="M12.6064 55.6992V67.0802C12.6064 67.7737 13.1669 68.3437 13.8699 68.3437H81.1489C81.8424 68.3437 82.4124 67.7832 82.4124 67.0802V55.6992H12.6064Z" fill="url(#paint3_linear_806_11019)"/>
<path d="M41.7142 66.4297H53.2947C53.7412 66.4297 54.1022 66.7907 54.1022 67.2372V79.6157C54.1022 80.1667 53.6557 80.6132 53.1047 80.6132H41.9042C41.3532 80.6132 40.9067 80.1667 40.9067 79.6157V67.2372C40.9067 66.7907 41.2677 66.4297 41.7142 66.4297Z" fill="url(#paint4_linear_806_11019)"/>
<path d="M48.9157 30.0074C49.6757 30.2829 50.4452 30.5489 51.2052 30.8244C52.0222 31.1189 52.2977 31.7839 51.9367 32.5629C51.5947 33.2944 51.2432 34.0259 50.9107 34.7669C50.7777 35.0614 50.7112 35.3844 50.6542 35.5649C50.6827 36.2489 50.8632 36.7239 51.2527 37.1134C51.7372 37.5979 52.2217 38.0919 52.7062 38.5669C53.4092 39.2509 54.1882 39.3839 55.0812 38.9754C55.8127 38.6334 56.5442 38.2819 57.2757 37.9494C58.0927 37.5789 58.7482 37.8449 59.0427 38.6809C59.3277 39.4694 59.5937 40.2579 59.8787 41.0464C60.1922 41.8919 60.8667 42.3669 61.7692 42.3764C62.4532 42.3764 63.1467 42.3764 63.8307 42.3764C64.8092 42.3764 65.4647 41.9014 65.7877 40.9799C66.0632 40.2199 66.3292 39.4504 66.6047 38.6904C66.9087 37.8449 67.5642 37.5694 68.3717 37.9399C69.1317 38.2914 69.8822 38.6524 70.6422 39.0039C71.4782 39.3839 72.2572 39.2414 72.9127 38.6049C73.3972 38.1299 73.8627 37.6549 74.3377 37.1799C75.0502 36.4674 75.1737 35.6884 74.7462 34.7669C74.4042 34.0354 74.0527 33.3039 73.7202 32.5724C73.3592 31.7839 73.6347 31.1189 74.4422 30.8244C75.2117 30.5489 75.9907 30.2734 76.7697 29.9979C77.6627 29.6844 78.1472 29.0099 78.1567 28.0694C78.1567 27.3854 78.1567 26.6919 78.1567 26.0079C78.1567 25.0674 77.6817 24.3929 76.7792 24.0699C76.0192 23.7944 75.2497 23.5284 74.4897 23.2529C73.6252 22.9394 73.3497 22.3029 73.7297 21.4669C74.0812 20.7069 74.4422 19.9564 74.7842 19.1869C75.1547 18.3794 75.0122 17.5909 74.3947 16.9544C73.9292 16.4699 73.4447 15.9949 72.9697 15.5294C72.2382 14.7979 71.4782 14.6744 70.5282 15.1114C69.8062 15.4439 69.0842 15.7859 68.3622 16.1184C67.5452 16.4984 66.8897 16.2229 66.5952 15.3869C66.3102 14.5984 66.0442 13.8099 65.7592 13.0214C65.4457 12.1759 64.7712 11.7009 63.8687 11.6914C63.1847 11.6914 62.4912 11.6914 61.8072 11.6914C60.8382 11.6914 60.1732 12.1664 59.8407 13.0879C59.5652 13.8479 59.2992 14.6174 59.0237 15.3774C58.7197 16.2229 58.0642 16.4984 57.2567 16.1279C56.4967 15.7764 55.7462 15.4154 54.9862 15.0639C54.1502 14.6839 53.3712 14.8264 52.7157 15.4629C52.2407 15.9189 51.7847 16.3939 51.3192 16.8594C50.5687 17.6099 50.4452 18.3604 50.9012 19.3389C51.2337 20.0514 51.5662 20.7544 51.8892 21.4669C52.2787 22.3029 52.0127 22.9489 51.1482 23.2624C50.3692 23.5379 49.5997 23.8039 48.8207 24.0889C47.9562 24.4024 47.4812 25.0864 47.4717 26.0079C47.4717 26.6824 47.4717 27.3569 47.4717 28.0314C47.4717 29.0289 47.9372 29.6749 48.8872 30.0169L48.9157 30.0074ZM62.8332 21.9799C65.6262 21.9799 67.8872 24.2409 67.8872 27.0339C67.8872 29.8269 65.6262 32.0879 62.8332 32.0879C60.0402 32.0879 57.7792 29.8269 57.7792 27.0339C57.7792 24.2409 60.0402 21.9799 62.8332 21.9799Z" fill="url(#paint5_linear_806_11019)"/>
<defs>
<linearGradient id="paint0_linear_806_11019" x1="15.1145" y1="64.034" x2="84.911" y2="64.034" gradientUnits="userSpaceOnUse">
<stop stop-color="white"/>
<stop offset="1" stop-color="white" stop-opacity="0"/>
</linearGradient>
<linearGradient id="paint1_linear_806_11019" x1="47.5" y1="83.0142" x2="47.5" y2="77.6562" gradientUnits="userSpaceOnUse">
<stop stop-color="white" stop-opacity="0"/>
<stop offset="0.16" stop-color="#CADBF9" stop-opacity="0.22"/>
<stop offset="0.37" stop-color="#89AFF3" stop-opacity="0.49"/>
<stop offset="0.57" stop-color="#558CEE" stop-opacity="0.71"/>
<stop offset="0.74" stop-color="#3073EB" stop-opacity="0.87"/>
<stop offset="0.88" stop-color="#1963E8" stop-opacity="0.97"/>
<stop offset="0.97" stop-color="#115EE8"/>
</linearGradient>
<linearGradient id="paint2_linear_806_11019" x1="47.4997" y1="67.5558" x2="47.4997" y2="23.5708" gradientUnits="userSpaceOnUse">
<stop stop-color="white" stop-opacity="0"/>
<stop offset="0.16" stop-color="#CADBF9" stop-opacity="0.22"/>
<stop offset="0.37" stop-color="#89AFF3" stop-opacity="0.49"/>
<stop offset="0.57" stop-color="#558CEE" stop-opacity="0.71"/>
<stop offset="0.74" stop-color="#3073EB" stop-opacity="0.87"/>
<stop offset="0.88" stop-color="#1963E8" stop-opacity="0.97"/>
<stop offset="0.97" stop-color="#115EE8"/>
</linearGradient>
<linearGradient id="paint3_linear_806_11019" x1="82.3934" y1="62.0167" x2="12.6064" y2="62.0167" gradientUnits="userSpaceOnUse">
<stop stop-color="white" stop-opacity="0"/>
<stop offset="0.16" stop-color="#CADBF9" stop-opacity="0.22"/>
<stop offset="0.37" stop-color="#89AFF3" stop-opacity="0.49"/>
<stop offset="0.57" stop-color="#558CEE" stop-opacity="0.71"/>
<stop offset="0.74" stop-color="#3073EB" stop-opacity="0.87"/>
<stop offset="0.88" stop-color="#1963E8" stop-opacity="0.97"/>
<stop offset="0.97" stop-color="#115EE8"/>
</linearGradient>
<linearGradient id="paint4_linear_806_11019" x1="-0.000260749" y1="80.6227" x2="0.949739" y2="66.4297" gradientUnits="userSpaceOnUse">
<stop stop-color="white" stop-opacity="0"/>
<stop offset="0.16" stop-color="#CADBF9" stop-opacity="0.22"/>
<stop offset="0.37" stop-color="#89AFF3" stop-opacity="0.49"/>
<stop offset="0.57" stop-color="#558CEE" stop-opacity="0.71"/>
<stop offset="0.74" stop-color="#3073EB" stop-opacity="0.87"/>
<stop offset="0.88" stop-color="#1963E8" stop-opacity="0.97"/>
<stop offset="0.97" stop-color="#115EE8"/>
</linearGradient>
<linearGradient id="paint5_linear_806_11019" x1="70" y1="35" x2="71.705" y2="14.0065" gradientUnits="userSpaceOnUse">
<stop stop-color="white"/>
<stop offset="0.97" stop-color="#115EE8"/>
</linearGradient>
</defs>
</svg>
