<svg width="95" height="95" viewBox="0 0 95 95" fill="none" xmlns="http://www.w3.org/2000/svg">
<path d="M67.265 65.5565C66.394 62.8765 63.8815 60.9 60.9 60.9H57.55V50.85C57.55 49.9615 57.1971 49.1094 56.5688 48.4812C55.9406 47.8529 55.0885 47.5 54.2 47.5H34.1V40.8H40.8C41.6885 40.8 42.5406 40.4471 43.1688 39.8188C43.7971 39.1906 44.15 38.3385 44.15 37.45V30.75H50.85C52.6269 30.75 54.3311 30.0441 55.5876 28.7876C56.8441 27.5311 57.55 25.827 57.55 24.05V22.6765C61.5582 24.2924 65.1151 26.8555 67.9163 30.1464C70.7175 33.4374 72.6796 37.358 73.6345 41.5729C74.5894 45.7877 74.5088 50.1712 73.3995 54.3481C72.2902 58.525 70.1853 62.3708 67.265 65.5565ZM44.15 74.0655C30.9175 72.424 20.7 61.168 20.7 47.5C20.7 45.423 20.968 43.413 21.4035 41.5035L37.45 57.55V60.9C37.45 62.6769 38.1559 64.3811 39.4124 65.6376C40.6689 66.8941 42.373 67.6 44.15 67.6M47.5 14C43.1007 14 38.7445 14.8665 34.6801 16.55C30.6157 18.2336 26.9227 20.7012 23.8119 23.8119C17.5295 30.0944 14 38.6152 14 47.5C14 56.3848 17.5295 64.9056 23.8119 71.1881C26.9227 74.2988 30.6157 76.7664 34.6801 78.45C38.7445 80.1335 43.1007 81 47.5 81C56.3848 81 64.9056 77.4705 71.1881 71.1881C77.4705 64.9056 81 56.3848 81 47.5C81 43.1007 80.1335 38.7445 78.45 34.6801C76.7664 30.6157 74.2988 26.9227 71.1881 23.8119C68.0773 20.7012 64.3843 18.2336 60.3199 16.55C56.2555 14.8665 51.8993 14 47.5 14Z" fill="url(#paint0_linear_904_39971)"/>
<defs>
<linearGradient id="paint0_linear_904_39971" x1="113.876" y1="72.973" x2="88.2246" y2="-0.953087" gradientUnits="userSpaceOnUse">
<stop stop-color="white" stop-opacity="0"/>
<stop offset="0.16" stop-color="#CADBF9" stop-opacity="0.22"/>
<stop offset="0.37" stop-color="#89AFF3" stop-opacity="0.49"/>
<stop offset="0.57" stop-color="#558CEE" stop-opacity="0.71"/>
<stop offset="0.74" stop-color="#3073EB" stop-opacity="0.87"/>
<stop offset="0.88" stop-color="#1963E8" stop-opacity="0.97"/>
<stop offset="0.97" stop-color="#115EE8"/>
</linearGradient>
</defs>
</svg>
