<svg width="71" height="59" viewBox="0 0 71 59" fill="none" xmlns="http://www.w3.org/2000/svg">
<path d="M52 57.7215V7.27855C52 6.57242 51.5537 6 51.0031 6L3.99688 6C3.44632 6 3 6.57242 3 7.27855V57.7215C3 58.4276 3.44632 59 3.99688 59L51.0031 59C51.5537 59 52 58.4276 52 57.7215Z" fill="url(#paint0_linear_904_39942)"/>
<path d="M49 53.6815V1.31846C49 0.590296 48.5507 0 47.9965 0L1.00353 0C0.449295 0 0 0.590296 0 1.31846V53.6815C0 54.4097 0.449295 55 1.00353 55L47.9965 55C48.5507 55 49 54.4097 49 53.6815Z" fill="url(#paint1_linear_904_39942)"/>
<path d="M40.2232 14.7969H9.53711" stroke="white" stroke-width="2" stroke-linecap="round" stroke-linejoin="round"/>
<path d="M40.2232 27.3086H9.53711" stroke="white" stroke-width="2" stroke-linecap="round" stroke-linejoin="round"/>
<path d="M40.2232 39.8242H9.53711" stroke="white" stroke-width="2" stroke-linecap="round" stroke-linejoin="round"/>
<path d="M61.0998 7.04286C61.4336 6.60282 62.0608 6.51664 62.5009 6.85038L69.2834 11.9945C69.7235 12.3282 69.8096 12.9555 69.4759 13.3955L46.7977 43.2971C46.6784 43.4543 46.5153 43.5728 46.3288 43.6375L39.0779 46.1544C38.4036 46.3884 37.7083 45.8611 37.7518 45.1487L38.2202 37.4877C38.2322 37.2907 38.3023 37.1016 38.4216 36.9444L61.0998 7.04286Z" fill="url(#paint2_linear_904_39942)"/>
<defs>
<linearGradient id="paint0_linear_904_39942" x1="52" y1="32.5" x2="2.99335" y2="32.5" gradientUnits="userSpaceOnUse">
<stop stop-color="white" stop-opacity="0"/>
<stop offset="0.16" stop-color="#CADBF9" stop-opacity="0.22"/>
<stop offset="0.37" stop-color="#89AFF3" stop-opacity="0.49"/>
<stop offset="0.57" stop-color="#558CEE" stop-opacity="0.71"/>
<stop offset="0.74" stop-color="#3073EB" stop-opacity="0.87"/>
<stop offset="0.88" stop-color="#1963E8" stop-opacity="0.97"/>
<stop offset="0.97" stop-color="#115EE8"/>
</linearGradient>
<linearGradient id="paint1_linear_904_39942" x1="24.5033" y1="54.1007" x2="24.5033" y2="3.57994" gradientUnits="userSpaceOnUse">
<stop stop-color="white" stop-opacity="0"/>
<stop offset="0.16" stop-color="#CADBF9" stop-opacity="0.22"/>
<stop offset="0.37" stop-color="#89AFF3" stop-opacity="0.49"/>
<stop offset="0.57" stop-color="#558CEE" stop-opacity="0.71"/>
<stop offset="0.74" stop-color="#3073EB" stop-opacity="0.87"/>
<stop offset="0.88" stop-color="#1963E8" stop-opacity="0.97"/>
<stop offset="0.97" stop-color="#115EE8"/>
</linearGradient>
<linearGradient id="paint2_linear_904_39942" x1="49.3407" y1="48.4803" x2="38.6656" y2="18.9247" gradientUnits="userSpaceOnUse">
<stop stop-color="white" stop-opacity="0"/>
<stop offset="0.16" stop-color="#CADBF9" stop-opacity="0.22"/>
<stop offset="0.37" stop-color="#89AFF3" stop-opacity="0.49"/>
<stop offset="0.57" stop-color="#558CEE" stop-opacity="0.71"/>
<stop offset="0.74" stop-color="#3073EB" stop-opacity="0.87"/>
<stop offset="0.88" stop-color="#1963E8" stop-opacity="0.97"/>
<stop offset="0.97" stop-color="#115EE8"/>
</linearGradient>
</defs>
</svg>
