<svg width="95" height="95" viewBox="0 0 95 95" fill="none" xmlns="http://www.w3.org/2000/svg">
<path d="M73.6002 47.0498V47.4417L81.8771 39.1648C84.4777 36.5642 84.4777 32.3605 81.8771 29.7598L72.6027 20.4973C70.0021 17.8967 65.7983 17.8967 63.1977 20.4973L58.4358 25.2592C58.1152 25.2236 57.7827 25.1998 57.4502 25.1998H44.1502C39.7446 25.1998 36.1227 28.5248 35.6477 32.7998H35.6002V47.0498C35.6002 49.6742 37.7258 51.7998 40.3502 51.7998C42.9746 51.7998 45.1002 49.6742 45.1002 47.0498V36.5998H64.1002C69.3489 36.5998 73.6002 40.8511 73.6002 46.0998V47.0498ZM48.9002 40.3998V47.0498C48.9002 51.7761 45.0764 55.5998 40.3502 55.5998C35.6239 55.5998 31.8002 51.7761 31.8002 47.0498V32.9661C27.5371 33.7023 23.9864 36.8017 22.7752 41.0648L20.8158 47.9048L12.1233 56.5973C9.5227 59.198 9.5227 63.4017 12.1233 66.0023L21.3977 75.2767C23.9983 77.8773 28.2021 77.8773 30.8027 75.2767L35.2796 70.7998C35.3864 70.7998 35.4933 70.8117 35.6002 70.8117H54.6002C57.7471 70.8117 60.3002 68.2586 60.3002 65.1117C60.3002 64.4467 60.1814 63.8055 59.9796 63.2117H60.3002C63.4471 63.2117 66.0002 60.6586 66.0002 57.5117C66.0002 55.9917 65.4064 54.6142 64.4327 53.593C67.4846 52.9992 69.7883 50.3155 69.8002 47.0855V47.038C69.7883 43.3805 66.8196 40.4117 63.1502 40.4117H48.9002V40.3998Z" fill="url(#paint0_linear_904_39984)"/>
<defs>
<linearGradient id="paint0_linear_904_39984" x1="119.969" y1="70.1969" x2="101.339" y2="2.80522" gradientUnits="userSpaceOnUse">
<stop stop-color="white" stop-opacity="0"/>
<stop offset="0.16" stop-color="#CADBF9" stop-opacity="0.22"/>
<stop offset="0.37" stop-color="#89AFF3" stop-opacity="0.49"/>
<stop offset="0.57" stop-color="#558CEE" stop-opacity="0.71"/>
<stop offset="0.74" stop-color="#3073EB" stop-opacity="0.87"/>
<stop offset="0.88" stop-color="#1963E8" stop-opacity="0.97"/>
<stop offset="0.97" stop-color="#115EE8"/>
</linearGradient>
</defs>
</svg>
