<svg width="40" height="40" viewBox="0 0 40 40" fill="none" xmlns="http://www.w3.org/2000/svg">
<circle cx="20" cy="20" r="20" fill="#4776E6"/>
<g clip-path="url(#clip0_2801_41)">
<path d="M12 22V19C12 16.8783 12.8429 14.8434 14.3431 13.3431C15.8434 11.8429 17.8783 11 20 11C22.1217 11 24.1566 11.8429 25.6569 13.3431C27.1571 14.8434 28 16.8783 28 19V22" stroke="white" stroke-width="1.5" stroke-linecap="round" stroke-linejoin="round"/>
<path d="M26 27C26 28.657 23.314 30 20 30" stroke="white" stroke-width="1.5" stroke-linecap="round" stroke-linejoin="round"/>
<path d="M12 22C12 21.4696 12.2107 20.9609 12.5858 20.5858C12.9609 20.2107 13.4696 20 14 20H15C15.5304 20 16.0391 20.2107 16.4142 20.5858C16.7893 20.9609 17 21.4696 17 22V25C17 25.5304 16.7893 26.0391 16.4142 26.4142C16.0391 26.7893 15.5304 27 15 27H14C13.4696 27 12.9609 26.7893 12.5858 26.4142C12.2107 26.0391 12 25.5304 12 25V22Z" stroke="white" stroke-width="1.5" stroke-linecap="round" stroke-linejoin="round"/>
<path d="M23 22C23 21.4696 23.2107 20.9609 23.5858 20.5858C23.9609 20.2107 24.4696 20 25 20H26C26.5304 20 27.0391 20.2107 27.4142 20.5858C27.7893 20.9609 28 21.4696 28 22V25C28 25.5304 27.7893 26.0391 27.4142 26.4142C27.0391 26.7893 26.5304 27 26 27H25C24.4696 27 23.9609 26.7893 23.5858 26.4142C23.2107 26.0391 23 25.5304 23 25V22Z" stroke="white" stroke-width="1.5" stroke-linecap="round" stroke-linejoin="round"/>
</g>
<defs>
<clipPath id="clip0_2801_41">
<rect width="24" height="24" fill="white" transform="translate(8 8)"/>
</clipPath>
</defs>
</svg>
