<svg width="120" height="120" viewBox="0 0 120 120" fill="none" xmlns="http://www.w3.org/2000/svg">
<path d="M32.1939 98.3996C30.6247 98.3996 29.2567 97.8371 28.11 96.6921C26.9633 95.547 26.4 94.1809 26.4 92.614V34.4164C26.4 32.8494 26.9633 31.4834 28.11 30.3383C29.2567 29.1932 30.6247 28.6307 32.1939 28.6307H39.6173V21.5996H44.6869V28.6307H76.6338V21.5996H81.5827V28.6307H88.9659C90.5351 28.6307 91.9031 29.1932 93.0498 30.3383C94.1965 31.4834 94.7598 32.8494 94.7598 34.4164V92.5939C94.7598 94.1609 94.1965 95.5269 93.0498 96.672C91.9031 97.817 90.5351 98.3795 88.9659 98.3795H32.1939V98.3996ZM32.1939 93.8394H88.986C89.2878 93.8394 89.5694 93.7189 89.8309 93.4577C90.0925 93.1966 90.2132 92.9153 90.2132 92.614V52.6973H30.9667V92.614C30.9667 92.9153 31.0874 93.1966 31.3489 93.4577C31.6105 93.7189 31.8921 93.8394 32.1939 93.8394ZM30.9466 48.1371H90.2132V34.4164C90.2132 34.115 90.0925 33.8338 89.8309 33.5726C89.5694 33.3115 89.2878 33.1909 88.986 33.1909H32.1939C31.8921 33.1909 31.6105 33.3115 31.3489 33.5726C31.0874 33.8338 30.9667 34.115 30.9667 34.4164V48.1371H30.9466ZM60.5799 68.5675C59.5941 68.5675 58.7492 68.226 58.0652 67.5229C57.3812 66.8198 57.0191 65.9962 57.0191 65.0118C57.0191 64.0274 57.3611 63.1837 58.0652 62.5007C58.7693 61.8177 59.5941 61.4561 60.5799 61.4561C61.5656 61.4561 62.4106 61.7976 63.0946 62.5007C63.7786 63.2038 64.1407 64.0274 64.1407 65.0118C64.1407 65.9962 63.7987 66.8399 63.0946 67.5229C62.3905 68.2059 61.5656 68.5675 60.5799 68.5675ZM44.4858 68.5675C43.5 68.5675 42.6551 68.226 41.9711 67.5229C41.2871 66.8198 40.9249 65.9962 40.9249 65.0118C40.9249 64.0274 41.2669 63.1837 41.9711 62.5007C42.6752 61.8177 43.5 61.4561 44.4858 61.4561C45.4715 61.4561 46.3165 61.7976 47.0005 62.5007C47.6845 63.2038 48.0466 64.0274 48.0466 65.0118C48.0466 65.9962 47.7046 66.8399 47.0005 67.5229C46.2963 68.2059 45.4715 68.5675 44.4858 68.5675ZM76.674 68.5675C75.6882 68.5675 74.8433 68.226 74.1593 67.5229C73.4753 66.8198 73.1132 65.9962 73.1132 65.0118C73.1132 64.0274 73.4552 63.1837 74.1593 62.5007C74.8634 61.8177 75.6882 61.4561 76.674 61.4561C77.6598 61.4561 78.5047 61.7976 79.1887 62.5007C79.8727 63.2038 80.2348 64.0274 80.2348 65.0118C80.2348 65.9962 79.8928 66.8399 79.1887 67.5229C78.4846 68.2059 77.6598 68.5675 76.674 68.5675ZM60.5799 84.3374C59.5941 84.3374 58.7492 83.9958 58.0652 83.2927C57.3812 82.5896 57.0191 81.766 57.0191 80.7816C57.0191 79.7973 57.3611 78.9535 58.0652 78.2705C58.7492 77.5875 59.5941 77.2259 60.5799 77.2259C61.5656 77.2259 62.4106 77.5674 63.0946 78.2705C63.7786 78.9535 64.1407 79.7973 64.1407 80.7816C64.1407 81.766 63.7987 82.6097 63.0946 83.2927C62.3905 83.9758 61.5656 84.3374 60.5799 84.3374ZM44.4858 84.3374C43.5 84.3374 42.6551 83.9958 41.9711 83.2927C41.2871 82.5896 40.9249 81.766 40.9249 80.7816C40.9249 79.7973 41.2669 78.9535 41.9711 78.2705C42.6551 77.5875 43.5 77.2259 44.4858 77.2259C45.4715 77.2259 46.3165 77.5674 47.0005 78.2705C47.6845 78.9535 48.0466 79.7973 48.0466 80.7816C48.0466 81.766 47.7046 82.6097 47.0005 83.2927C46.2963 83.9758 45.4715 84.3374 44.4858 84.3374ZM76.674 84.3374C75.6882 84.3374 74.8433 83.9958 74.1593 83.2927C73.4753 82.5896 73.1132 81.766 73.1132 80.7816C73.1132 79.7973 73.4552 78.9535 74.1593 78.2705C74.8433 77.5875 75.6882 77.2259 76.674 77.2259C77.6598 77.2259 78.5047 77.5674 79.1887 78.2705C79.8727 78.9535 80.2348 79.7973 80.2348 80.7816C80.2348 81.766 79.8928 82.6097 79.1887 83.2927C78.4846 83.9758 77.6598 84.3374 76.674 84.3374Z" fill="#283063"/>
</svg>
