<svg width="120" height="120" viewBox="0 0 120 120" fill="none" xmlns="http://www.w3.org/2000/svg">
<path d="M23.8404 93.579C22.2379 93.579 20.8787 93.0082 19.7224 91.846C18.5661 90.6839 17.9981 89.2975 17.9981 87.7072V66.8499C17.9981 65.2392 18.5661 63.8732 19.7224 62.7111C20.8787 61.5489 22.2581 60.9781 23.8404 60.9781H26.1124V43.3014H25.727C24.6721 43.0975 23.7999 42.5878 23.1101 41.7315C22.4204 40.8751 22.0553 39.8761 22.0553 38.714V31.1091C22.0553 29.8247 22.5219 28.7033 23.4347 27.7858C24.3476 26.8683 25.4633 26.3994 26.7413 26.3994H49.8264C51.1044 26.3994 52.2201 26.8683 53.133 27.7858C54.0458 28.7033 54.5124 29.8247 54.5124 31.1091V38.714C54.5124 39.8761 54.1676 40.8955 53.4576 41.7315C52.7678 42.5878 51.8956 43.0975 50.8407 43.3014H50.4553V60.9781H70.741V43.3014H70.3555C69.3007 43.0975 68.4284 42.5878 67.7387 41.7315C67.049 40.8751 66.6838 39.8761 66.6838 38.714V31.1091C66.6838 29.8247 67.1504 28.7033 68.0633 27.7858C68.9761 26.8683 70.0918 26.3994 71.3698 26.3994H94.455C95.733 26.3994 96.8487 26.8683 97.7615 27.7858C98.6744 28.7033 99.141 29.8247 99.141 31.1091V38.714C99.141 39.8761 98.7961 40.8955 98.0861 41.7315C97.3964 42.5878 96.5241 43.0975 95.4693 43.3014H95.0838V60.9781H97.3558C98.9584 60.9781 100.318 61.5489 101.474 62.7111C102.63 63.8732 103.198 65.2596 103.198 66.8499V87.7072C103.198 89.3179 102.63 90.6839 101.474 91.846C100.318 93.0082 98.9381 93.579 97.3558 93.579H23.8404ZM71.2887 38.7751H94.5361V31.0072H71.2887V38.7751ZM26.6601 38.7751H49.9076V31.0072H26.6601V38.7751ZM75.3458 60.9577H90.479V43.3829H75.3458V60.9577ZM30.7173 60.9577H45.8504V43.3829H30.7173V60.9577ZM23.8607 88.9509H97.3558C97.721 88.9509 98.0253 88.8285 98.2484 88.6043C98.4715 88.38 98.5933 88.0742 98.5933 87.7072V66.8499C98.5933 66.4829 98.4715 66.1771 98.2484 65.9528C98.0253 65.7285 97.721 65.6062 97.3558 65.6062H23.8404C23.4753 65.6062 23.171 65.7285 22.9479 65.9528C22.7247 66.1771 22.603 66.4829 22.603 66.8499V87.7072C22.603 88.0742 22.7247 88.38 22.9479 88.6043C23.171 88.8285 23.4753 88.9509 23.8404 88.9509H23.8607Z" fill="#283063"/>
</svg>
