<svg width="96" height="84" viewBox="0 0 96 84" fill="none" xmlns="http://www.w3.org/2000/svg">
<g clip-path="url(#clip0_569_1895)">
<path d="M34.801 0L0 21.8353V53.9624L42.4053 27.3525V7.56337L34.801 0Z" fill="#4F7FEF"/>
<path d="M95.9479 21.8008L61.199 0L53.5947 7.56337V27.3525L70.3485 37.86L95.9479 21.8008Z" fill="#A152F3"/>
<path d="M70.3486 37.86L95.9481 53.9192L96.0001 53.8847V21.8353L95.9481 21.8008L70.3486 37.86Z" fill="#524692"/>
<path d="M47.9957 51.8817L0 21.7664V53.8848L47.9957 84.0001V51.8817Z" fill="#A152F3"/>
<path d="M25.6602 37.86L0.060765 53.9192L0 53.8847V21.8353L0.060765 21.8008L25.6602 37.86Z" fill="#4150A0"/>
<path d="M47.9956 51.8817V84.0001L95.9479 53.9193L70.3484 37.8601L47.9956 51.8817Z" fill="#4F7FEF"/>
</g>
<defs>
<clipPath id="clip0_569_1895">
<rect width="96" height="84" fill="white"/>
</clipPath>
</defs>
</svg>
