<svg width="254" height="74" viewBox="0 0 254 74" fill="none" xmlns="http://www.w3.org/2000/svg">
<g clip-path="url(#clip0_569_575)">
<path d="M101.97 43.5498V6.77979H128.23C133.82 6.77979 136.61 9.00979 136.61 13.4698V22.9698C136.61 27.4298 133.82 29.6598 128.23 29.6598H108.71V43.5598H101.98L101.97 43.5498ZM108.7 23.8298H127.64C129.13 23.8298 129.87 23.2298 129.87 22.0398V14.3898C129.87 13.1998 129.13 12.5998 127.64 12.5998H108.7V23.8398V23.8298Z" fill="black"/>
<path d="M142.23 43.5498V6.77979H148.96V37.7898H172.6V43.5598H142.22L142.23 43.5498Z" fill="black"/>
<path d="M174.21 43.5498L191.51 6.77979H198.49L215.74 43.5498H208.81L204.69 34.8798H185.26L181.19 43.5498H174.21ZM187.87 29.1598H202.11L194.99 14.0398L187.87 29.1598Z" fill="black"/>
<path d="M218.97 43.5498V6.77979H244.74C250.33 6.77979 253.12 9.00979 253.12 13.4698V17.8798C253.12 20.7898 251.91 22.7598 249.49 23.7898C252.27 24.7298 253.66 26.7598 253.66 29.8898V36.8698C253.66 41.3298 250.88 43.5598 245.33 43.5598H218.97V43.5498ZM225.7 21.0698H244.16C245.65 21.0698 246.39 20.4698 246.39 19.2798V14.3398C246.39 13.1498 245.65 12.5498 244.16 12.5498H225.7V21.0798V21.0698ZM225.7 37.7798H244.69C246.18 37.7798 246.92 37.1798 246.92 35.9898V28.5798C246.92 27.4198 246.18 26.8398 244.69 26.8398H225.7V37.7898V37.7798Z" fill="black"/>
<path d="M118.47 67.3098V56.5498H126.16C127.8 56.5498 128.61 57.1998 128.61 58.5098V61.2898C128.61 62.5898 127.79 63.2498 126.16 63.2498H120.44V67.3198H118.47V67.3098ZM120.44 61.5398H125.99C126.42 61.5398 126.64 61.3698 126.64 61.0198V58.7798C126.64 58.4298 126.42 58.2598 125.99 58.2598H120.44V61.5498V61.5398Z" fill="#717071"/>
<path d="M130.26 67.3098V56.5498H132.23V65.6298H139.15V67.3198H130.26V67.3098Z" fill="#717071"/>
<path d="M139.62 67.3098L144.68 56.5498H146.72L151.77 67.3098H149.74L148.53 64.7698H142.84L141.65 67.3098H139.61H139.62ZM143.62 63.0998H147.79L145.71 58.6798L143.63 63.0998H143.62Z" fill="#717071"/>
<path d="M150.39 56.54H152.94L156.16 61.39L159.39 56.54H161.93L157.31 63.23V67.3H155.03V63.23L150.39 56.54Z" fill="#717071"/>
<path d="M165.61 58.24V56.54H175.89V58.24H171.75V67.3H169.76V58.24H165.6H165.61Z" fill="#717071"/>
<path d="M176.81 67.3098V56.5498H178.78V60.7198H185.01V56.5498H186.98V67.3098H185.01V62.3998H178.78V67.3098H176.81Z" fill="#717071"/>
<path d="M188.83 67.3098V56.5498H198.36V58.2398H190.8V60.7198H197.96V62.4098H190.8V65.6198H198.36V67.3198H188.83V67.3098Z" fill="#717071"/>
<path d="M203.43 67.3098V56.5498H205.4V65.6298H212.32V67.3198H203.43V67.3098Z" fill="#717071"/>
<path d="M212.79 67.3098L217.85 56.5498H219.89L224.94 67.3098H222.91L221.7 64.7698H216.01L214.82 67.3098H212.78H212.79ZM216.79 63.0998H220.96L218.88 58.6798L216.8 63.0998H216.79Z" fill="#717071"/>
<path d="M225.9 67.3098V56.5498H233.44C235.08 56.5498 235.89 57.1998 235.89 58.5098V59.7998C235.89 60.6498 235.54 61.2298 234.83 61.5298C235.64 61.7998 236.05 62.3998 236.05 63.3198V65.3598C236.05 66.6598 235.24 67.3198 233.61 67.3198H225.89L225.9 67.3098ZM227.87 60.7298H233.27C233.7 60.7298 233.92 60.5498 233.92 60.2098V58.7598C233.92 58.4098 233.7 58.2398 233.27 58.2398H227.87V60.7398V60.7298ZM227.87 65.6198H233.43C233.86 65.6198 234.08 65.4498 234.08 65.0998V62.9298C234.08 62.5898 233.86 62.4198 233.43 62.4198H227.87V65.6198Z" fill="#717071"/>
<path d="M30.27 0L0 19.1V47.18L36.88 23.92V6.61L30.27 0Z" fill="#4F7FEF"/>
<path d="M83.4399 19.06L53.2199 0L46.6099 6.61V23.92L61.1799 33.11L83.4399 19.06Z" fill="#A152F3"/>
<path d="M61.1802 33.1101L83.4402 47.1501L83.4902 47.1201V19.1001L83.4402 19.0601L61.1802 33.1101Z" fill="#524692"/>
<path d="M41.75 45.3698L0 19.0298V47.1198L41.75 73.4498V45.3698Z" fill="#A152F3"/>
<path d="M22.31 33.1101L0.05 47.1501L0 47.1201V19.1001L0.05 19.0601L22.31 33.1101Z" fill="#4150A0"/>
<path d="M41.75 45.3699V73.4499L83.44 47.1499L61.18 33.1099L41.75 45.3699Z" fill="#4F7FEF"/>
</g>
<defs>
<clipPath id="clip0_569_575">
<rect width="253.66" height="73.45" fill="white"/>
</clipPath>
</defs>
</svg>
