<svg width="696" height="231" viewBox="0 0 696 231" fill="none" xmlns="http://www.w3.org/2000/svg">
<path d="M14.5102 209.667V218.474H12.5461V209.667H14.5102ZM16.7292 213.291V214.919H13.9633V213.291H16.7292ZM4.62142 210.475V216.945H2.65733V210.475H4.62142ZM3.98122 215.932C5.18703 215.932 6.37625 215.881 7.5489 215.777C8.7257 215.669 9.91907 215.491 11.129 215.242L11.3652 216.852C10.118 217.109 8.8873 217.291 7.67321 217.399C6.45912 217.503 5.22846 217.552 3.98122 217.548H2.65733V215.932H3.98122ZM10.0351 220.501C10.0309 221.321 9.78855 222.073 9.30788 222.757C8.83136 223.441 8.15388 224.015 7.27542 224.479C6.40111 224.943 5.38178 225.26 4.21741 225.43L3.45291 223.95C4.45153 223.822 5.32377 223.581 6.06962 223.229C6.81548 222.877 7.3873 222.463 7.78509 221.986C8.18288 221.51 8.38385 221.015 8.38799 220.501V220.028H10.0351V220.501ZM10.4577 220.501C10.4536 220.998 10.6525 221.487 11.0544 221.968C11.4564 222.448 12.0323 222.869 12.7823 223.229C13.5365 223.59 14.4087 223.838 15.399 223.975L14.647 225.467C13.4826 225.293 12.4591 224.968 11.5765 224.491C10.6981 224.019 10.0185 223.436 9.53785 222.744C9.06134 222.052 8.82308 221.305 8.82308 220.501V220.028H10.4577V220.501ZM14.734 219.189V220.756H4.10553V219.189H14.734ZM32.0061 217.884V219.444H17.5303V217.884H32.0061ZM30.3714 223.671V225.256H19.3141V223.671H30.3714ZM21.2782 220.619V224.174H19.3141V220.619H21.2782ZM24.7589 210.189C25.9066 210.185 26.9094 210.314 27.7671 210.575C28.629 210.831 29.2962 211.202 29.7685 211.687C30.2409 212.168 30.4771 212.738 30.4771 213.396C30.4771 214.064 30.2409 214.644 29.7685 215.137C29.2962 215.626 28.629 216.001 27.7671 216.262C26.9094 216.523 25.9066 216.653 24.7589 216.653C23.6069 216.653 22.6 216.523 21.7381 216.262C20.8763 216.001 20.2091 215.626 19.7368 215.137C19.2644 214.644 19.0303 214.064 19.0344 213.396C19.0303 212.738 19.2644 212.168 19.7368 211.687C20.2091 211.202 20.8763 210.831 21.7381 210.575C22.6 210.314 23.6069 210.185 24.7589 210.189ZM24.7589 211.743C23.9881 211.743 23.3252 211.809 22.7699 211.942C22.2147 212.07 21.7899 212.259 21.4957 212.508C21.2015 212.756 21.0565 213.052 21.0607 213.396C21.0565 213.757 21.2015 214.061 21.4957 214.31C21.7899 214.559 22.2126 214.747 22.7637 214.876C23.3189 215 23.984 215.062 24.7589 215.062C25.5337 215.062 26.1967 215 26.7478 214.876C27.3031 214.747 27.7278 214.559 28.022 214.31C28.3203 214.061 28.4695 213.757 28.4695 213.396C28.4695 213.052 28.3203 212.756 28.022 212.508C27.7278 212.259 27.3031 212.07 26.7478 211.942C26.1926 211.809 25.5296 211.743 24.7589 211.743ZM42.6602 214.186C42.6602 215.358 42.4758 216.502 42.107 217.617C41.7382 218.731 41.2141 219.724 40.5345 220.594C39.8549 221.464 39.0676 222.115 38.1726 222.546L37.0228 221.004C37.8391 220.619 38.5559 220.059 39.1733 219.326C39.7907 218.593 40.2652 217.778 40.5967 216.883C40.9281 215.984 41.096 215.085 41.1001 214.186V212.085H42.6602V214.186ZM43.058 214.186C43.0538 215.023 43.2092 215.862 43.5241 216.703C43.8432 217.544 44.3031 218.311 44.904 219.003C45.5048 219.695 46.2113 220.229 47.0234 220.606L45.9295 222.148C45.0304 221.729 44.2451 221.106 43.5739 220.277C42.9067 219.444 42.395 218.499 42.0386 217.443C41.6823 216.382 41.5041 215.296 41.5041 214.186V212.085H43.058V214.186ZM46.377 211.246V212.849H37.6381V211.246H46.377ZM49.8018 209.68V225.554H47.8439V209.68H49.8018ZM52.2507 215.858V217.499H49.3729V215.858H52.2507ZM66.1788 209.68V225.554H64.2085V209.68H66.1788ZM61.4427 211.364C61.4427 213.021 61.2044 214.542 60.7279 215.926C60.2514 217.306 59.4661 218.574 58.3722 219.73C57.2824 220.886 55.8404 221.893 54.0462 222.751L53.0207 221.184C54.5414 220.459 55.7783 219.633 56.7313 218.704C57.6885 217.776 58.3888 216.736 58.8322 215.584C59.2797 214.432 59.5055 213.135 59.5096 211.693V211.364H61.4427ZM60.3922 211.364V212.912H53.8287V211.364H60.3922ZM76.297 211.917C76.2928 212.849 76.0235 213.703 75.4889 214.478C74.9544 215.253 74.2086 215.899 73.2514 216.417C72.2983 216.935 71.2023 217.285 69.9634 217.468L69.23 215.932C70.2824 215.796 71.2148 215.526 72.0269 215.124C72.8432 214.718 73.4731 214.235 73.9164 213.676C74.3639 213.117 74.5898 212.53 74.5939 211.917V211.376H76.297V211.917ZM76.8377 211.917C76.8336 212.53 77.0532 213.117 77.4965 213.676C77.9399 214.235 78.5697 214.718 79.386 215.124C80.2023 215.526 81.1429 215.796 82.2079 215.932L81.4869 217.468C80.2396 217.285 79.1353 216.935 78.174 216.417C77.2127 215.899 76.4648 215.255 75.9302 214.484C75.3957 213.709 75.1284 212.854 75.1284 211.917V211.376H76.8377V211.917ZM76.6388 219.637V225.554H74.7058V219.637H76.6388ZM82.9475 218.53V220.109H68.4717V218.53H82.9475ZM81.6174 210.568V212.11H69.7956V210.568H81.6174ZM96.9254 216.896V218.45H85.7873V216.896H96.9254ZM98.5539 222.079V223.683H84.0283V222.079H98.5539ZM92.2265 217.592V222.633H90.2873V217.592H92.2265ZM96.8011 210.854V212.421H87.7452V217.604H85.7873V210.854H96.8011ZM113.298 211.196V212.744H103.869V211.196H113.298ZM108.593 213.359C109.347 213.363 110.016 213.485 110.6 213.726C111.189 213.966 111.646 214.308 111.974 214.751C112.301 215.191 112.465 215.696 112.465 216.268C112.465 216.84 112.301 217.345 111.974 217.785C111.646 218.224 111.191 218.566 110.606 218.81C110.022 219.05 109.351 219.171 108.593 219.171C107.83 219.171 107.153 219.05 106.56 218.81C105.968 218.566 105.506 218.224 105.174 217.785C104.847 217.345 104.685 216.84 104.689 216.268C104.685 215.696 104.847 215.191 105.174 214.751C105.506 214.308 105.968 213.966 106.56 213.726C107.153 213.485 107.83 213.363 108.593 213.359ZM108.593 214.838C108.187 214.838 107.83 214.896 107.524 215.012C107.221 215.128 106.987 215.294 106.821 215.51C106.66 215.721 106.581 215.974 106.585 216.268C106.581 216.562 106.66 216.815 106.821 217.026C106.987 217.233 107.221 217.393 107.524 217.505C107.83 217.613 108.187 217.664 108.593 217.66C108.99 217.664 109.341 217.613 109.643 217.505C109.946 217.393 110.182 217.231 110.352 217.02C110.521 216.809 110.609 216.558 110.613 216.268C110.609 215.974 110.521 215.721 110.352 215.51C110.182 215.294 109.946 215.128 109.643 215.012C109.341 214.896 108.99 214.838 108.593 214.838ZM116.393 209.68V219.624H114.429V209.68H116.393ZM118.612 213.9V215.497H115.846V213.9H118.612ZM116.393 220.364V225.554H114.429V221.936H105.802V220.364H116.393ZM109.562 209.605V212.066H107.617V209.605H109.562ZM123.093 219.202V220.718H130.085V219.202H132.037V225.367H121.153V219.202H123.093ZM123.093 223.82H130.085V222.216H123.093V223.82ZM133.889 216.709V218.3H119.413V216.709H133.889ZM127.338 210.45C127.338 211.354 127.062 212.186 126.511 212.949C125.96 213.711 125.196 214.347 124.218 214.857C123.24 215.363 122.127 215.7 120.88 215.87L120.159 214.335C121.24 214.198 122.198 213.937 123.03 213.552C123.863 213.162 124.508 212.696 124.963 212.153C125.419 211.61 125.647 211.043 125.647 210.45V209.847H127.338V210.45ZM127.661 210.45C127.657 211.026 127.883 211.59 128.338 212.141C128.798 212.688 129.445 213.158 130.278 213.552C131.111 213.945 132.062 214.206 133.131 214.335L132.434 215.87C131.175 215.7 130.056 215.358 129.078 214.845C128.1 214.331 127.338 213.695 126.791 212.936C126.248 212.178 125.979 211.349 125.983 210.45V209.847H127.661V210.45ZM147.817 213.807V215.385H136.853V213.807H147.817ZM138.798 209.953V214.521H136.853V209.953H138.798ZM149.47 216.908V218.499H134.97V216.908H149.47ZM142.186 219.649C143.33 219.649 144.314 219.763 145.138 219.991C145.963 220.219 146.595 220.552 147.034 220.992C147.473 221.427 147.693 221.953 147.693 222.57C147.693 223.188 147.473 223.716 147.034 224.155C146.595 224.595 145.963 224.926 145.138 225.15C144.314 225.378 143.33 225.492 142.186 225.492C141.038 225.492 140.05 225.378 139.221 225.15C138.392 224.926 137.756 224.595 137.313 224.155C136.874 223.716 136.654 223.188 136.654 222.57C136.654 221.953 136.874 221.427 137.313 220.992C137.756 220.552 138.392 220.219 139.221 219.991C140.05 219.763 141.038 219.649 142.186 219.649ZM142.186 221.172C141.407 221.176 140.754 221.23 140.228 221.334C139.706 221.433 139.31 221.586 139.041 221.794C138.772 222.001 138.639 222.26 138.643 222.57C138.639 222.873 138.772 223.132 139.041 223.347C139.31 223.559 139.71 223.72 140.24 223.832C140.771 223.94 141.419 223.994 142.186 223.994C142.948 223.994 143.593 223.94 144.119 223.832C144.645 223.72 145.045 223.559 145.318 223.347C145.596 223.132 145.737 222.873 145.741 222.57C145.737 222.26 145.598 222.001 145.325 221.794C145.051 221.586 144.651 221.433 144.125 221.334C143.603 221.23 142.957 221.176 142.186 221.172ZM152.341 217.362C153.97 217.366 155.234 217.343 156.133 217.294C157.036 217.244 157.929 217.136 158.812 216.97L158.992 218.549C158.097 218.702 157.183 218.804 156.251 218.854C155.318 218.899 154.015 218.924 152.341 218.928H151.167V217.362H152.341ZM158.109 210.618V215.41H153.1V218.356H151.167V213.95H156.164V212.166H151.142V210.618H158.109ZM163.834 209.692V219.463H161.882V209.692H163.834ZM162.261 211.948V213.502H159.073V211.948H162.261ZM162.261 215.286V216.852H159.073V215.286H162.261ZM163.834 220.215V225.566H161.882V221.787H152.969V220.215H163.834Z" fill="#898989"/>
<path d="M539.877 213.452V215.019H528.857V213.452H539.877ZM530.802 209.997V214.478H528.857V209.997H530.802ZM541.449 216.61V218.176H526.974V216.61H541.449ZM535.184 214.559V217.729H533.226V214.559H535.184ZM539.883 219.444V220.961H528.546V219.444H539.883ZM540.045 223.789V225.367H528.409V223.789H540.045ZM532.742 219.842V224.559H530.802V219.842H532.742ZM537.621 219.842V224.559H535.694V219.842H537.621ZM557.006 217.884V219.444H542.53V217.884H557.006ZM555.371 223.671V225.256H544.314V223.671H555.371ZM546.278 220.619V224.174H544.314V220.619H546.278ZM549.759 210.189C550.907 210.185 551.909 210.314 552.767 210.575C553.629 210.831 554.296 211.202 554.769 211.687C555.241 212.168 555.477 212.738 555.477 213.396C555.477 214.064 555.241 214.644 554.769 215.137C554.296 215.626 553.629 216.001 552.767 216.262C551.909 216.523 550.907 216.653 549.759 216.653C548.607 216.653 547.6 216.523 546.738 216.262C545.876 216.001 545.209 215.626 544.737 215.137C544.264 214.644 544.03 214.064 544.034 213.396C544.03 212.738 544.264 212.168 544.737 211.687C545.209 211.202 545.876 210.831 546.738 210.575C547.6 210.314 548.607 210.185 549.759 210.189ZM549.759 211.743C548.988 211.743 548.325 211.809 547.77 211.942C547.215 212.07 546.79 212.259 546.496 212.508C546.202 212.756 546.057 213.052 546.061 213.396C546.057 213.757 546.202 214.061 546.496 214.31C546.79 214.559 547.213 214.747 547.764 214.876C548.319 215 548.984 215.062 549.759 215.062C550.534 215.062 551.197 215 551.748 214.876C552.303 214.747 552.728 214.559 553.022 214.31C553.32 214.061 553.469 213.757 553.469 213.396C553.469 213.052 553.32 212.756 553.022 212.508C552.728 212.259 552.303 212.07 551.748 211.942C551.193 211.809 550.53 211.743 549.759 211.743ZM567.66 214.186C567.66 215.358 567.476 216.502 567.107 217.617C566.738 218.731 566.214 219.724 565.534 220.594C564.855 221.464 564.068 222.115 563.173 222.546L562.023 221.004C562.839 220.619 563.556 220.059 564.173 219.326C564.791 218.593 565.265 217.778 565.597 216.883C565.928 215.984 566.096 215.085 566.1 214.186V212.085H567.66V214.186ZM568.058 214.186C568.054 215.023 568.209 215.862 568.524 216.703C568.843 217.544 569.303 218.311 569.904 219.003C570.505 219.695 571.211 220.229 572.023 220.606L570.93 222.148C570.03 221.729 569.245 221.106 568.574 220.277C567.907 219.444 567.395 218.499 567.039 217.443C566.682 216.382 566.504 215.296 566.504 214.186V212.085H568.058V214.186ZM571.377 211.246V212.849H562.638V211.246H571.377ZM574.802 209.68V225.554H572.844V209.68H574.802ZM577.251 215.858V217.499H574.373V215.858H577.251ZM591.179 209.68V225.554H589.209V209.68H591.179ZM586.443 211.364C586.443 213.021 586.204 214.542 585.728 215.926C585.251 217.306 584.466 218.574 583.372 219.73C582.282 220.886 580.84 221.893 579.046 222.751L578.021 221.184C579.541 220.459 580.778 219.633 581.731 218.704C582.689 217.776 583.389 216.736 583.832 215.584C584.28 214.432 584.506 213.135 584.51 211.693V211.364H586.443ZM585.392 211.364V212.912H578.829V211.364H585.392ZM601.297 211.917C601.293 212.849 601.023 213.703 600.489 214.478C599.954 215.253 599.209 215.899 598.251 216.417C597.298 216.935 596.202 217.285 594.963 217.468L594.23 215.932C595.282 215.796 596.215 215.526 597.027 215.124C597.843 214.718 598.473 214.235 598.916 213.676C599.364 213.117 599.59 212.53 599.594 211.917V211.376H601.297V211.917ZM601.838 211.917C601.834 212.53 602.053 213.117 602.497 213.676C602.94 214.235 603.57 214.718 604.386 215.124C605.202 215.526 606.143 215.796 607.208 215.932L606.487 217.468C605.24 217.285 604.135 216.935 603.174 216.417C602.213 215.899 601.465 215.255 600.93 214.484C600.396 213.709 600.128 212.854 600.128 211.917V211.376H601.838V211.917ZM601.639 219.637V225.554H599.706V219.637H601.639ZM607.948 218.53V220.109H593.472V218.53H607.948ZM606.617 210.568V212.11H594.796V210.568H606.617ZM621.925 216.896V218.45H610.787V216.896H621.925ZM623.554 222.079V223.683H609.028V222.079H623.554ZM617.227 217.592V222.633H615.287V217.592H617.227ZM621.801 210.854V212.421H612.745V217.604H610.787V210.854H621.801ZM638.298 211.196V212.744H628.869V211.196H638.298ZM633.593 213.359C634.347 213.363 635.016 213.485 635.6 213.726C636.189 213.966 636.646 214.308 636.974 214.751C637.301 215.191 637.465 215.696 637.465 216.268C637.465 216.84 637.301 217.345 636.974 217.785C636.646 218.224 636.191 218.566 635.606 218.81C635.022 219.05 634.351 219.171 633.593 219.171C632.83 219.171 632.153 219.05 631.56 218.81C630.968 218.566 630.506 218.224 630.174 217.785C629.847 217.345 629.685 216.84 629.689 216.268C629.685 215.696 629.847 215.191 630.174 214.751C630.506 214.308 630.968 213.966 631.56 213.726C632.153 213.485 632.83 213.363 633.593 213.359ZM633.593 214.838C633.187 214.838 632.83 214.896 632.524 215.012C632.221 215.128 631.987 215.294 631.821 215.51C631.66 215.721 631.581 215.974 631.585 216.268C631.581 216.562 631.66 216.815 631.821 217.026C631.987 217.233 632.221 217.393 632.524 217.505C632.83 217.613 633.187 217.664 633.593 217.66C633.99 217.664 634.341 217.613 634.643 217.505C634.946 217.393 635.182 217.231 635.352 217.02C635.521 216.809 635.609 216.558 635.613 216.268C635.609 215.974 635.521 215.721 635.352 215.51C635.182 215.294 634.946 215.128 634.643 215.012C634.341 214.896 633.99 214.838 633.593 214.838ZM641.393 209.68V219.624H639.429V209.68H641.393ZM643.612 213.9V215.497H640.846V213.9H643.612ZM641.393 220.364V225.554H639.429V221.936H630.802V220.364H641.393ZM634.562 209.605V212.066H632.617V209.605H634.562ZM648.093 219.202V220.718H655.085V219.202H657.037V225.367H646.153V219.202H648.093ZM648.093 223.82H655.085V222.216H648.093V223.82ZM658.889 216.709V218.3H644.413V216.709H658.889ZM652.338 210.45C652.338 211.354 652.062 212.186 651.511 212.949C650.96 213.711 650.196 214.347 649.218 214.857C648.24 215.363 647.127 215.7 645.88 215.87L645.159 214.335C646.24 214.198 647.198 213.937 648.03 213.552C648.863 213.162 649.508 212.696 649.963 212.153C650.419 211.61 650.647 211.043 650.647 210.45V209.847H652.338V210.45ZM652.661 210.45C652.657 211.026 652.883 211.59 653.338 212.141C653.798 212.688 654.445 213.158 655.278 213.552C656.111 213.945 657.062 214.206 658.131 214.335L657.434 215.87C656.175 215.7 655.056 215.358 654.078 214.845C653.1 214.331 652.338 213.695 651.791 212.936C651.248 212.178 650.979 211.349 650.983 210.45V209.847H652.661V210.45ZM672.817 213.807V215.385H661.853V213.807H672.817ZM663.798 209.953V214.521H661.853V209.953H663.798ZM674.47 216.908V218.499H659.97V216.908H674.47ZM667.186 219.649C668.33 219.649 669.314 219.763 670.138 219.991C670.963 220.219 671.595 220.552 672.034 220.992C672.473 221.427 672.693 221.953 672.693 222.57C672.693 223.188 672.473 223.716 672.034 224.155C671.595 224.595 670.963 224.926 670.138 225.15C669.314 225.378 668.33 225.492 667.186 225.492C666.038 225.492 665.05 225.378 664.221 225.15C663.392 224.926 662.756 224.595 662.313 224.155C661.874 223.716 661.654 223.188 661.654 222.57C661.654 221.953 661.874 221.427 662.313 220.992C662.756 220.552 663.392 220.219 664.221 219.991C665.05 219.763 666.038 219.649 667.186 219.649ZM667.186 221.172C666.407 221.176 665.754 221.23 665.228 221.334C664.706 221.433 664.31 221.586 664.041 221.794C663.772 222.001 663.639 222.26 663.643 222.57C663.639 222.873 663.772 223.132 664.041 223.347C664.31 223.559 664.71 223.72 665.24 223.832C665.771 223.94 666.419 223.994 667.186 223.994C667.948 223.994 668.593 223.94 669.119 223.832C669.645 223.72 670.045 223.559 670.318 223.347C670.596 223.132 670.737 222.873 670.741 222.57C670.737 222.26 670.598 222.001 670.325 221.794C670.051 221.586 669.651 221.433 669.125 221.334C668.603 221.23 667.957 221.176 667.186 221.172ZM677.341 217.362C678.97 217.366 680.234 217.343 681.133 217.294C682.036 217.244 682.929 217.136 683.812 216.97L683.992 218.549C683.097 218.702 682.183 218.804 681.251 218.854C680.318 218.899 679.015 218.924 677.341 218.928H676.167V217.362H677.341ZM683.109 210.618V215.41H678.1V218.356H676.167V213.95H681.164V212.166H676.142V210.618H683.109ZM688.834 209.692V219.463H686.882V209.692H688.834ZM687.261 211.948V213.502H684.073V211.948H687.261ZM687.261 215.286V216.852H684.073V215.286H687.261ZM688.834 220.215V225.566H686.882V221.787H677.969V220.215H688.834Z" fill="#898989"/>
<path d="M685 162H15L37.0736 143.872L188.992 102.436L270.5 96.5L370.775 61L521.395 123.154L631.764 132.218L685 162Z" fill="#C7C7C7"/>
<path d="M696 163H3L263.848 118.967L470.5 59.5L696 163Z" fill="#8E54E9" fill-opacity="0.7"/>
<path d="M691.707 188.707C692.098 188.317 692.098 187.683 691.707 187.293L685.343 180.929C684.953 180.538 684.319 180.538 683.929 180.929C683.538 181.319 683.538 181.953 683.929 182.343L689.586 188L683.929 193.657C683.538 194.047 683.538 194.681 683.929 195.071C684.319 195.462 684.953 195.462 685.343 195.071L691.707 188.707ZM0.5 189H691V187H0.5V189Z" fill="#B0B0B0"/>
<circle cx="471.5" cy="35.5" r="10.5" fill="#8E54E9"/>
<circle cx="371.5" cy="35.5" r="10.5" fill="#C7C7C7"/>
<path d="M262.646 3.50967V5.3674H249.31V3.50967H262.646ZM262.528 7.70166V9.5732H249.427V7.70166H262.528ZM254.103 4.2279V8.92403H251.617V4.2279H254.103ZM260.332 4.2279V8.92403H257.825V4.2279H260.332ZM264.103 10.5055V12.4599H247.887V10.5055H264.103ZM262.121 13.4751V17.8674H252.217V19.5594H249.773V16.1685H259.662V15.2569H249.759V13.4751H262.121ZM262.583 18.8412V20.6782H249.773V18.8412H262.583ZM280.442 3.04005V12.9019H278.08V3.04005H280.442ZM278.846 7.00414V8.95856H275.973V7.00414H278.846ZM276.533 3.3232V12.7983H274.212V3.3232H276.533ZM270.759 13.634V15.1326H277.976V13.634H280.442V20.6022H268.294V13.634H270.759ZM270.759 18.6064H277.976V17.0594H270.759V18.6064ZM267.12 10.4019C268.137 10.4019 268.964 10.3927 269.599 10.3743C270.235 10.3559 270.861 10.3168 271.478 10.2569C272.095 10.1971 272.723 10.105 273.363 9.98066L273.591 11.9696C272.61 12.14 271.646 12.2551 270.697 12.3149C269.753 12.3702 268.561 12.3978 267.12 12.3978H265.891V10.4019H267.12ZM272.645 3.93784V9H268.301V12.1423H265.891V7.1837H270.248V5.89227H265.863V3.93784H272.645ZM293.137 7.04558C293.133 8.5511 292.949 9.96685 292.585 11.2928C292.226 12.6188 291.676 13.7928 290.934 14.8149C290.198 15.8324 289.288 16.6105 288.206 17.1492L286.68 15.1257C287.647 14.6791 288.462 14.0368 289.125 13.1989C289.793 12.3564 290.29 11.4079 290.617 10.3536C290.944 9.29466 291.109 8.19199 291.114 7.04558V4.38674H293.137V7.04558ZM293.607 7.04558C293.602 8.15055 293.754 9.20718 294.063 10.2155C294.371 11.2238 294.841 12.1331 295.472 12.9434C296.107 13.7491 296.885 14.3752 297.806 14.8218L296.3 16.8039C295.255 16.2882 294.38 15.5378 293.676 14.5525C292.972 13.5626 292.449 12.43 292.108 11.1547C291.772 9.87477 291.607 8.50506 291.611 7.04558V4.38674H293.607V7.04558ZM301.086 3.01243V20.8025H298.593V3.01243H301.086ZM303.711 9.87017V11.9765H300.534V9.87017H303.711ZM310.519 8.98619V12.2389H307.998V8.98619H310.519ZM316.824 8.98619V12.2389H314.345V8.98619H316.824ZM320.568 11.4517V13.4406H304.352V11.4517H320.568ZM312.425 14.366C313.705 14.366 314.808 14.4903 315.733 14.739C316.663 14.9876 317.375 15.3513 317.867 15.8301C318.365 16.3043 318.615 16.8821 318.62 17.5635C318.615 18.2495 318.365 18.8343 317.867 19.3177C317.375 19.8011 316.666 20.1648 315.74 20.4088C314.815 20.6529 313.71 20.7749 312.425 20.7749C311.127 20.7749 310.01 20.6529 309.076 20.4088C308.146 20.1648 307.434 19.8011 306.942 19.3177C306.449 18.8343 306.203 18.2495 306.203 17.5635C306.203 16.8821 306.449 16.3043 306.942 15.8301C307.439 15.3513 308.153 14.9876 309.083 14.739C310.013 14.4903 311.127 14.366 312.425 14.366ZM312.425 16.2445C311.597 16.2491 310.911 16.2997 310.367 16.3964C309.824 16.4885 309.417 16.6335 309.145 16.8315C308.873 17.0249 308.74 17.2689 308.744 17.5635C308.74 17.8628 308.873 18.1137 309.145 18.3163C309.417 18.5143 309.826 18.6639 310.374 18.7652C310.922 18.8665 311.606 18.9171 312.425 18.9171C313.236 18.9171 313.912 18.8665 314.456 18.7652C315.004 18.6639 315.416 18.5143 315.692 18.3163C315.973 18.1137 316.115 17.8628 316.12 17.5635C316.12 17.2689 315.98 17.0249 315.699 16.8315C315.418 16.6335 315.006 16.4885 314.463 16.3964C313.919 16.2997 313.24 16.2491 312.425 16.2445ZM312.446 3.27486C313.754 3.27947 314.893 3.41989 315.865 3.69613C316.836 3.96777 317.586 4.36142 318.116 4.87707C318.645 5.38812 318.91 5.99816 318.91 6.70718C318.91 7.407 318.645 8.01013 318.116 8.51657C317.591 9.01842 316.843 9.40285 315.871 9.66989C314.9 9.93232 313.758 10.0635 312.446 10.0635C311.129 10.0635 309.983 9.93232 309.007 9.66989C308.031 9.40285 307.28 9.01842 306.755 8.51657C306.231 8.01013 305.97 7.407 305.975 6.70718C305.97 5.99816 306.233 5.38812 306.762 4.87707C307.292 4.36142 308.042 3.96777 309.014 3.69613C309.99 3.41989 311.134 3.27947 312.446 3.27486ZM312.446 5.19475C311.608 5.19475 310.899 5.2523 310.319 5.3674C309.739 5.4825 309.299 5.65285 309 5.87845C308.705 6.09945 308.56 6.37569 308.565 6.70718C308.56 7.03407 308.705 7.30801 309 7.52901C309.299 7.7454 309.737 7.90884 310.312 8.01934C310.892 8.12983 311.603 8.18508 312.446 8.18508C313.284 8.18508 313.991 8.12983 314.566 8.01934C315.146 7.90884 315.586 7.74309 315.885 7.5221C316.189 7.3011 316.341 7.02947 316.341 6.70718C316.341 6.37569 316.189 6.09945 315.885 5.87845C315.581 5.65285 315.139 5.4825 314.559 5.3674C313.984 5.2523 313.279 5.19475 312.446 5.19475ZM340.045 7.6395V9.64917H335.832V7.6395H340.045ZM341.226 3.04005V16.0166H338.74V3.04005H341.226ZM341.647 18.482V20.4917H329.43V18.482H341.647ZM331.917 14.884V19.663H329.43V14.884H331.917ZM332.441 6.5C332.441 7.64641 332.255 8.72145 331.882 9.72514C331.514 10.7242 330.952 11.6013 330.197 12.3564C329.446 13.1068 328.521 13.6662 327.421 14.0345L326.143 12.018C327.091 11.7187 327.883 11.2836 328.519 10.7127C329.159 10.1418 329.633 9.49494 329.941 8.7721C330.254 8.04466 330.413 7.28729 330.418 6.5V5.34668H332.441V6.5ZM332.952 6.51381C332.952 7.23204 333.1 7.92956 333.394 8.60635C333.694 9.28315 334.149 9.89549 334.762 10.4434C335.374 10.9866 336.134 11.4056 337.041 11.7003L335.812 13.6754C334.739 13.3209 333.836 12.7845 333.104 12.0663C332.372 11.3481 331.824 10.5124 331.461 9.55939C331.102 8.60635 330.922 7.59116 330.922 6.51381V5.34668H332.952V6.51381ZM336.495 4.23481V6.23066H326.854V4.23481H336.495ZM298.162 43.1934C297.135 43.1934 296.215 43.0184 295.4 42.6685C294.589 42.314 293.952 41.8214 293.487 41.1906C293.026 40.5552 292.789 39.8324 292.775 39.0221H295.738C295.752 39.3628 295.865 39.6667 296.077 39.9337C296.293 40.1961 296.583 40.401 296.947 40.5483C297.31 40.6911 297.718 40.7624 298.169 40.7624C298.634 40.7624 299.051 40.6842 299.419 40.5276C299.787 40.3665 300.073 40.1386 300.275 39.8439C300.483 39.5493 300.584 39.2155 300.579 38.8425C300.584 38.4604 300.478 38.1197 300.262 37.8204C300.045 37.5212 299.734 37.2887 299.329 37.1229C298.924 36.9572 298.448 36.8743 297.9 36.8743H296.588V34.6989H297.9C298.36 34.6989 298.77 34.6206 299.129 34.4641C299.488 34.3076 299.767 34.0866 299.965 33.8011C300.167 33.5157 300.269 33.1888 300.269 32.8204C300.269 32.4613 300.183 32.1436 300.013 31.8674C299.843 31.5912 299.599 31.3794 299.281 31.232C298.968 31.0801 298.604 31.0041 298.19 31.0041C297.775 31.0041 297.393 31.0778 297.043 31.2251C296.693 31.3725 296.415 31.582 296.208 31.8536C296.001 32.1252 295.89 32.436 295.876 32.7859H293.059C293.072 31.9894 293.303 31.2781 293.749 30.6519C294.2 30.0258 294.815 29.5378 295.593 29.1878C296.376 28.8379 297.246 28.663 298.204 28.663C299.166 28.663 300.018 28.8379 300.759 29.1878C301.505 29.5378 302.083 30.0166 302.492 30.6243C302.902 31.2274 303.105 31.8996 303.1 32.6409C303.105 33.1611 302.994 33.6308 302.769 34.0497C302.543 34.4687 302.225 34.814 301.816 35.0856C301.41 35.3573 300.943 35.5414 300.414 35.6381V35.7486C301.1 35.8361 301.684 36.0272 302.168 36.3218C302.651 36.6165 303.017 36.9963 303.266 37.4613C303.514 37.9217 303.636 38.4466 303.632 39.0359C303.636 39.8278 303.404 40.5414 302.934 41.1768C302.469 41.8076 301.82 42.3025 300.987 42.6616C300.153 43.0161 299.212 43.1934 298.162 43.1934ZM306.996 43.1727C306.697 43.1727 306.421 43.099 306.168 42.9517C305.915 42.8043 305.714 42.6064 305.567 42.3577C305.42 42.1045 305.348 41.8306 305.353 41.5359C305.348 41.2413 305.42 40.9696 305.567 40.721C305.714 40.4724 305.915 40.2744 306.168 40.1271C306.421 39.9797 306.697 39.9061 306.996 39.9061C307.282 39.9061 307.549 39.9797 307.798 40.1271C308.046 40.2744 308.246 40.4724 308.398 40.721C308.555 40.9696 308.633 41.2413 308.633 41.5359C308.633 41.8306 308.557 42.1022 308.405 42.3508C308.253 42.5994 308.051 42.7997 307.798 42.9517C307.549 43.099 307.282 43.1727 306.996 43.1727ZM315.68 43.1934C314.621 43.1934 313.668 43.0207 312.82 42.6754C311.978 42.3255 311.32 41.849 310.845 41.2459C310.371 40.6381 310.134 39.9544 310.134 39.1948C310.134 38.6146 310.27 38.0737 310.541 37.5718C310.818 37.07 311.193 36.6556 311.667 36.3287C312.141 35.9972 312.666 35.7878 313.242 35.7003V35.6036C312.744 35.5069 312.3 35.3089 311.909 35.0097C311.517 34.7104 311.211 34.3398 310.99 33.8978C310.774 33.4558 310.666 32.9793 310.666 32.4682C310.666 31.7454 310.882 31.0939 311.315 30.5138C311.752 29.9337 312.351 29.4802 313.11 29.1533C313.875 28.8264 314.731 28.663 315.68 28.663C316.628 28.663 317.482 28.8264 318.242 29.1533C319.001 29.4802 319.598 29.9337 320.03 30.5138C320.468 31.0939 320.686 31.7454 320.686 32.4682C320.686 32.9793 320.576 33.4558 320.355 33.8978C320.134 34.3398 319.828 34.7104 319.436 35.0097C319.05 35.3089 318.608 35.5069 318.11 35.6036V35.7003C318.681 35.7878 319.204 35.9972 319.678 36.3287C320.152 36.6556 320.528 37.07 320.804 37.5718C321.08 38.0737 321.221 38.6146 321.225 39.1948C321.221 39.9544 320.979 40.6381 320.5 41.2459C320.026 41.849 319.367 42.3255 318.525 42.6754C317.682 43.0207 316.734 43.1934 315.68 43.1934ZM315.68 41.018C316.168 41.018 316.6 40.9328 316.978 40.7624C317.355 40.5875 317.648 40.3458 317.855 40.0373C318.062 39.7242 318.166 39.3674 318.166 38.9669C318.166 38.5617 318.058 38.198 317.841 37.8757C317.629 37.5534 317.332 37.3002 316.95 37.116C316.573 36.9319 316.149 36.8398 315.68 36.8398C315.205 36.8398 314.777 36.9319 314.395 37.116C314.017 37.2956 313.723 37.5488 313.511 37.8757C313.299 38.198 313.196 38.5617 313.2 38.9669C313.196 39.3628 313.295 39.7173 313.497 40.0304C313.704 40.3435 313.997 40.5875 314.374 40.7624C314.752 40.9328 315.187 41.018 315.68 41.018ZM315.68 34.692C316.089 34.692 316.455 34.6114 316.778 34.4503C317.105 34.2845 317.36 34.0566 317.544 33.7666C317.728 33.4719 317.82 33.1404 317.82 32.7721C317.82 32.4038 317.728 32.0769 317.544 31.7914C317.365 31.506 317.111 31.285 316.785 31.1285C316.462 30.9673 316.094 30.8867 315.68 30.8867C315.261 30.8867 314.888 30.9673 314.561 31.1285C314.238 31.285 313.988 31.506 313.808 31.7914C313.628 32.0769 313.539 32.4038 313.539 32.7721C313.539 33.1404 313.628 33.4719 313.808 33.7666C313.992 34.0566 314.248 34.2845 314.575 34.4503C314.901 34.6114 315.27 34.692 315.68 34.692ZM323.779 43L329.738 31.3633V31.2666H322.805V28.8564H332.784V31.308L326.817 43H323.779ZM340.828 28.8564V43H337.886V31.6533H337.803L334.557 33.6906V31.0801L338.059 28.8564H340.828Z" fill="#B0B0B0"/>
<path d="M515.29 3.50967V5.3674H501.954V3.50967H515.29ZM515.173 7.70166V9.5732H502.072V7.70166H515.173ZM506.747 4.2279V8.92403H504.261V4.2279H506.747ZM512.977 4.2279V8.92403H510.47V4.2279H512.977ZM516.747 10.5055V12.4599H500.532V10.5055H516.747ZM514.765 13.4751V17.8674H504.862V19.5594H502.417V16.1685H512.307V15.2569H502.403V13.4751H514.765ZM515.228 18.8412V20.6782H502.417V18.8412H515.228ZM533.086 3.04005V12.9019H530.724V3.04005H533.086ZM531.491 7.00414V8.95856H528.618V7.00414H531.491ZM529.177 3.3232V12.7983H526.857V3.3232H529.177ZM523.404 13.634V15.1326H530.621V13.634H533.086V20.6022H520.938V13.634H523.404ZM523.404 18.6064H530.621V17.0594H523.404V18.6064ZM519.764 10.4019C520.782 10.4019 521.608 10.3927 522.244 10.3743C522.879 10.3559 523.505 10.3168 524.122 10.2569C524.739 10.1971 525.368 10.105 526.008 9.98066L526.235 11.9696C525.255 12.14 524.29 12.2551 523.342 12.3149C522.398 12.3702 521.206 12.3978 519.764 12.3978H518.535V10.4019H519.764ZM525.289 3.93784V9H520.945V12.1423H518.535V7.1837H522.893V5.89227H518.508V3.93784H525.289ZM545.782 7.04558C545.777 8.5511 545.593 9.96685 545.229 11.2928C544.87 12.6188 544.32 13.7928 543.579 14.8149C542.842 15.8324 541.933 16.6105 540.851 17.1492L539.325 15.1257C540.292 14.6791 541.106 14.0368 541.769 13.1989C542.437 12.3564 542.934 11.4079 543.261 10.3536C543.588 9.29466 543.754 8.19199 543.758 7.04558V4.38674H545.782V7.04558ZM546.252 7.04558C546.247 8.15055 546.399 9.20718 546.707 10.2155C547.016 11.2238 547.485 12.1331 548.116 12.9434C548.752 13.7491 549.53 14.3752 550.45 14.8218L548.945 16.8039C547.9 16.2882 547.025 15.5378 546.321 14.5525C545.616 13.5626 545.094 12.43 544.753 11.1547C544.417 9.87477 544.251 8.50506 544.256 7.04558V4.38674H546.252V7.04558ZM553.731 3.01243V20.8025H551.238V3.01243H553.731ZM556.355 9.87017V11.9765H553.178V9.87017H556.355ZM563.164 8.98619V12.2389H560.643V8.98619H563.164ZM569.469 8.98619V12.2389H566.99V8.98619H569.469ZM573.212 11.4517V13.4406H556.997V11.4517H573.212ZM565.07 14.366C566.35 14.366 567.452 14.4903 568.378 14.739C569.308 14.9876 570.019 15.3513 570.512 15.8301C571.009 16.3043 571.26 16.8821 571.265 17.5635C571.26 18.2495 571.009 18.8343 570.512 19.3177C570.019 19.8011 569.31 20.1648 568.385 20.4088C567.459 20.6529 566.354 20.7749 565.07 20.7749C563.771 20.7749 562.655 20.6529 561.72 20.4088C560.79 20.1648 560.079 19.8011 559.586 19.3177C559.094 18.8343 558.847 18.2495 558.847 17.5635C558.847 16.8821 559.094 16.3043 559.586 15.8301C560.084 15.3513 560.797 14.9876 561.727 14.739C562.657 14.4903 563.771 14.366 565.07 14.366ZM565.07 16.2445C564.241 16.2491 563.555 16.2997 563.012 16.3964C562.469 16.4885 562.061 16.6335 561.789 16.8315C561.518 17.0249 561.384 17.2689 561.389 17.5635C561.384 17.8628 561.518 18.1137 561.789 18.3163C562.061 18.5143 562.471 18.6639 563.019 18.7652C563.567 18.8665 564.25 18.9171 565.07 18.9171C565.88 18.9171 566.557 18.8665 567.1 18.7652C567.648 18.6639 568.06 18.5143 568.336 18.3163C568.617 18.1137 568.76 17.8628 568.765 17.5635C568.765 17.2689 568.624 17.0249 568.343 16.8315C568.062 16.6335 567.65 16.4885 567.107 16.3964C566.564 16.2997 565.885 16.2491 565.07 16.2445ZM565.091 3.27486C566.398 3.27947 567.538 3.41989 568.509 3.69613C569.48 3.96777 570.231 4.36142 570.76 4.87707C571.29 5.38812 571.555 5.99816 571.555 6.70718C571.555 7.407 571.29 8.01013 570.76 8.51657C570.236 9.01842 569.487 9.40285 568.516 9.66989C567.544 9.93232 566.403 10.0635 565.091 10.0635C563.774 10.0635 562.627 9.93232 561.651 9.66989C560.675 9.40285 559.925 9.01842 559.4 8.51657C558.875 8.01013 558.615 7.407 558.62 6.70718C558.615 5.99816 558.877 5.38812 559.407 4.87707C559.936 4.36142 560.687 3.96777 561.658 3.69613C562.634 3.41989 563.778 3.27947 565.091 3.27486ZM565.091 5.19475C564.253 5.19475 563.544 5.2523 562.963 5.3674C562.383 5.4825 561.944 5.65285 561.644 5.87845C561.35 6.09945 561.205 6.37569 561.209 6.70718C561.205 7.03407 561.35 7.30801 561.644 7.52901C561.944 7.7454 562.381 7.90884 562.957 8.01934C563.537 8.12983 564.248 8.18508 565.091 8.18508C565.928 8.18508 566.635 8.12983 567.211 8.01934C567.791 7.90884 568.23 7.74309 568.53 7.5221C568.834 7.3011 568.986 7.02947 568.986 6.70718C568.986 6.37569 568.834 6.09945 568.53 5.87845C568.226 5.65285 567.784 5.4825 567.204 5.3674C566.628 5.2523 565.924 5.19475 565.091 5.19475ZM589.157 3.01243V20.8439H586.637V3.01243H589.157ZM579.503 4.26934C580.396 4.26934 581.197 4.52947 581.906 5.04972C582.615 5.56998 583.172 6.30893 583.577 7.26657C583.983 8.21961 584.185 9.32919 584.185 10.5953C584.185 11.8706 583.983 12.9894 583.577 13.9517C583.172 14.9139 582.615 15.6552 581.906 16.1754C581.202 16.6911 580.401 16.9489 579.503 16.9489C578.596 16.9489 577.785 16.6911 577.072 16.1754C576.358 15.6552 575.799 14.9162 575.394 13.9586C574.993 12.9963 574.795 11.8752 574.8 10.5953C574.795 9.32919 574.993 8.21731 575.394 7.25967C575.799 6.30203 576.358 5.56538 577.072 5.04972C577.79 4.52947 578.6 4.26934 579.503 4.26934ZM579.503 6.52072C579.042 6.52072 578.64 6.67956 578.294 6.99724C577.949 7.31031 577.68 7.77302 577.486 8.38536C577.297 8.9977 577.205 9.73435 577.21 10.5953C577.205 11.4655 577.297 12.2067 577.486 12.8191C577.68 13.4314 577.949 13.8964 578.294 14.2141C578.64 14.5318 579.042 14.6906 579.503 14.6906C579.959 14.6906 580.355 14.5318 580.691 14.2141C581.031 13.8964 581.296 13.4314 581.485 12.8191C581.678 12.2067 581.775 11.4655 581.775 10.5953C581.775 9.73435 581.678 8.9977 581.485 8.38536C581.296 7.77302 581.031 7.31031 580.691 6.99724C580.35 6.67956 579.954 6.52072 579.503 6.52072ZM606.933 4.86326V6.85912H592.34V4.86326H606.933ZM607.824 14.511V16.5276H591.567V14.511H607.824ZM600.89 16.2445V20.8163H598.425V16.2445H600.89ZM599.661 7.55663C600.936 7.55663 602.032 7.67403 602.948 7.90884C603.864 8.14365 604.566 8.48895 605.054 8.94475C605.547 9.40055 605.793 9.95534 605.793 10.6091C605.793 11.2537 605.547 11.8039 605.054 12.2597C604.566 12.7109 603.864 13.0539 602.948 13.2887C602.032 13.5235 600.936 13.6409 599.661 13.6409C598.381 13.6409 597.281 13.5235 596.36 13.2887C595.444 13.0539 594.741 12.7109 594.253 12.2597C593.77 11.8039 593.528 11.2537 593.528 10.6091C593.528 9.95534 593.77 9.40055 594.253 8.94475C594.741 8.48895 595.444 8.14365 596.36 7.90884C597.281 7.67403 598.381 7.55663 599.661 7.55663ZM599.661 9.40055C598.86 9.40055 598.197 9.44429 597.672 9.53177C597.152 9.61924 596.763 9.75276 596.505 9.93232C596.247 10.1119 596.118 10.3375 596.118 10.6091C596.118 10.8762 596.247 11.0971 596.505 11.2721C596.763 11.4424 597.152 11.5737 597.672 11.6657C598.197 11.7532 598.86 11.7947 599.661 11.7901C600.457 11.7947 601.113 11.7532 601.629 11.6657C602.149 11.5737 602.541 11.4424 602.803 11.2721C603.07 11.0971 603.206 10.8762 603.211 10.6091C603.206 10.3375 603.072 10.1119 602.81 9.93232C602.548 9.75276 602.156 9.61924 601.636 9.53177C601.116 9.44429 600.457 9.40055 599.661 9.40055ZM600.89 2.99862V6.19613H598.425V2.99862H600.89ZM500.877 40.4931V38.1796L506.865 28.8564H508.854V32.0746H507.659L503.84 38.0276V38.1381H512.334V40.4931H500.877ZM507.749 43V39.7887L507.79 38.7597V28.8564H510.552V43H507.749ZM515.696 43.1727C515.396 43.1727 515.12 43.099 514.867 42.9517C514.614 42.8043 514.413 42.6064 514.266 42.3577C514.119 42.1045 514.047 41.8306 514.052 41.5359C514.047 41.2413 514.119 40.9696 514.266 40.721C514.413 40.4724 514.614 40.2744 514.867 40.1271C515.12 39.9797 515.396 39.9061 515.696 39.9061C515.981 39.9061 516.248 39.9797 516.497 40.1271C516.745 40.2744 516.946 40.4724 517.098 40.721C517.254 40.9696 517.332 41.2413 517.332 41.5359C517.332 41.8306 517.256 42.1022 517.105 42.3508C516.953 42.5994 516.75 42.7997 516.497 42.9517C516.248 43.099 515.981 43.1727 515.696 43.1727ZM524.711 43.1934C523.739 43.1934 522.864 43.0161 522.086 42.6616C521.308 42.3025 520.694 41.8076 520.242 41.1768C519.796 40.5414 519.563 39.8232 519.545 39.0221H522.397C522.42 39.3812 522.537 39.7035 522.749 39.989C522.961 40.2698 523.237 40.4885 523.578 40.645C523.923 40.8016 524.301 40.8798 524.711 40.8798C525.194 40.8798 525.624 40.7739 526.002 40.5622C526.384 40.3458 526.681 40.0488 526.893 39.6713C527.105 39.2891 527.211 38.8541 527.211 38.366C527.211 37.878 527.102 37.4406 526.886 37.0539C526.67 36.6671 526.366 36.3656 525.974 36.1492C525.588 35.9328 525.15 35.8223 524.662 35.8177C524.133 35.8177 523.682 35.9167 523.309 36.1146C522.94 36.3126 522.655 36.6073 522.452 36.9986H519.78L520.553 28.8564H529.255V31.2666H522.97L522.584 34.837H522.694C522.869 34.6022 523.099 34.395 523.385 34.2155C523.675 34.0359 524.002 33.8955 524.365 33.7942C524.734 33.6883 525.123 33.6354 525.532 33.6354C526.389 33.6354 527.16 33.8356 527.846 34.2362C528.537 34.6321 529.075 35.1846 529.462 35.8936C529.853 36.6027 530.049 37.4015 530.049 38.2901C530.049 39.2339 529.826 40.0787 529.379 40.8246C528.933 41.5658 528.304 42.1459 527.494 42.5649C526.683 42.9839 525.756 43.1934 524.711 43.1934ZM537.291 43.1934C536.264 43.1934 535.344 43.0184 534.529 42.6685C533.718 42.314 533.081 41.8214 532.616 41.1906C532.155 40.5552 531.918 39.8324 531.904 39.0221H534.867C534.881 39.3628 534.994 39.6667 535.205 39.9337C535.422 40.1961 535.712 40.401 536.076 40.5483C536.439 40.6911 536.847 40.7624 537.298 40.7624C537.763 40.7624 538.18 40.6842 538.548 40.5276C538.916 40.3665 539.202 40.1386 539.404 39.8439C539.612 39.5493 539.713 39.2155 539.708 38.8425C539.713 38.4604 539.607 38.1197 539.391 37.8204C539.174 37.5212 538.863 37.2887 538.458 37.1229C538.053 36.9572 537.577 36.8743 537.029 36.8743H535.717V34.6989H537.029C537.489 34.6989 537.899 34.6206 538.258 34.4641C538.617 34.3076 538.896 34.0866 539.094 33.8011C539.296 33.5157 539.397 33.1888 539.397 32.8204C539.397 32.4613 539.312 32.1436 539.142 31.8674C538.972 31.5912 538.728 31.3794 538.41 31.232C538.097 31.0801 537.733 31.0041 537.319 31.0041C536.904 31.0041 536.522 31.0778 536.172 31.2251C535.822 31.3725 535.544 31.582 535.337 31.8536C535.129 32.1252 535.019 32.436 535.005 32.7859H532.188C532.201 31.9894 532.432 31.2781 532.878 30.6519C533.329 30.0258 533.944 29.5378 534.722 29.1878C535.505 28.8379 536.375 28.663 537.333 28.663C538.295 28.663 539.147 28.8379 539.888 29.1878C540.634 29.5378 541.211 30.0166 541.621 30.6243C542.031 31.2274 542.234 31.8996 542.229 32.6409C542.234 33.1611 542.123 33.6308 541.897 34.0497C541.672 34.4687 541.354 34.814 540.944 35.0856C540.539 35.3573 540.072 35.5414 539.542 35.6381V35.7486C540.228 35.8361 540.813 36.0272 541.297 36.3218C541.78 36.6165 542.146 36.9963 542.395 37.4613C542.643 37.9217 542.765 38.4466 542.761 39.0359C542.765 39.8278 542.533 40.5414 542.063 41.1768C541.598 41.8076 540.949 42.3025 540.116 42.6616C539.282 43.0161 538.341 43.1934 537.291 43.1934ZM550.14 43.1934C549.082 43.1934 548.129 43.0207 547.281 42.6754C546.439 42.3255 545.78 41.849 545.306 41.2459C544.832 40.6381 544.595 39.9544 544.595 39.1948C544.595 38.6146 544.731 38.0737 545.002 37.5718C545.279 37.07 545.654 36.6556 546.128 36.3287C546.602 35.9972 547.127 35.7878 547.703 35.7003V35.6036C547.205 35.5069 546.761 35.3089 546.37 35.0097C545.978 34.7104 545.672 34.3398 545.451 33.8978C545.235 33.4558 545.127 32.9793 545.127 32.4682C545.127 31.7454 545.343 31.0939 545.776 30.5138C546.213 29.9337 546.812 29.4802 547.571 29.1533C548.336 28.8264 549.192 28.663 550.14 28.663C551.089 28.663 551.943 28.8264 552.703 29.1533C553.462 29.4802 554.059 29.9337 554.491 30.5138C554.929 31.0939 555.147 31.7454 555.147 32.4682C555.147 32.9793 555.037 33.4558 554.816 33.8978C554.595 34.3398 554.289 34.7104 553.897 35.0097C553.511 35.3089 553.069 35.5069 552.571 35.6036V35.7003C553.142 35.7878 553.665 35.9972 554.139 36.3287C554.613 36.6556 554.989 37.07 555.265 37.5718C555.541 38.0737 555.681 38.6146 555.686 39.1948C555.681 39.9544 555.44 40.6381 554.961 41.2459C554.487 41.849 553.828 42.3255 552.986 42.6754C552.143 43.0207 551.195 43.1934 550.14 43.1934ZM550.14 41.018C550.629 41.018 551.061 40.9328 551.439 40.7624C551.816 40.5875 552.109 40.3458 552.316 40.0373C552.523 39.7242 552.627 39.3674 552.627 38.9669C552.627 38.5617 552.518 38.198 552.302 37.8757C552.09 37.5534 551.793 37.3002 551.411 37.116C551.034 36.9319 550.61 36.8398 550.14 36.8398C549.666 36.8398 549.238 36.9319 548.856 37.116C548.478 37.2956 548.184 37.5488 547.972 37.8757C547.76 38.198 547.657 38.5617 547.661 38.9669C547.657 39.3628 547.756 39.7173 547.958 40.0304C548.165 40.3435 548.458 40.5875 548.835 40.7624C549.213 40.9328 549.648 41.018 550.14 41.018ZM550.14 34.692C550.55 34.692 550.916 34.6114 551.239 34.4503C551.565 34.2845 551.821 34.0566 552.005 33.7666C552.189 33.4719 552.281 33.1404 552.281 32.7721C552.281 32.4038 552.189 32.0769 552.005 31.7914C551.826 31.506 551.572 31.285 551.245 31.1285C550.923 30.9673 550.555 30.8867 550.14 30.8867C549.722 30.8867 549.349 30.9673 549.022 31.1285C548.699 31.285 548.449 31.506 548.269 31.7914C548.089 32.0769 548 32.4038 548 32.7721C548 33.1404 548.089 33.4719 548.269 33.7666C548.453 34.0566 548.709 34.2845 549.036 34.4503C549.362 34.6114 549.731 34.692 550.14 34.692Z" fill="#8E54E9"/>
</svg>
