<svg width="76" height="17" viewBox="0 0 76 17" fill="none" xmlns="http://www.w3.org/2000/svg">
<path d="M7.32859 0.776516C10.8956 0.794262 13.1494 1.98328 13.1494 3.93539C13.1494 5.8875 10.8956 7.05877 7.32859 7.05877C3.79704 7.05877 1.47225 5.8875 1.47225 3.93539C1.47225 1.98328 3.79704 0.794262 7.32859 0.776516ZM0.0880249 9.82722V7.83962H14.5692V9.82722H0.0880249ZM1.7207 16.2514V10.7855H12.8655V16.2514H1.7207ZM4.06324 3.93539C4.06324 4.73398 5.21676 5.1244 7.32859 5.14215C9.40493 5.1244 10.5762 4.73398 10.5939 3.93539C10.5762 3.11905 9.40493 2.72863 7.32859 2.72863C5.21676 2.72863 4.06324 3.11905 4.06324 3.93539ZM4.16972 14.2638H10.4165V12.7376H4.16972V14.2638ZM21.6013 2.58666C21.5836 4.663 22.5064 6.61511 25.1506 7.4137L23.8374 9.36581C22.1515 8.78018 21.0334 7.75088 20.3768 6.40215C19.667 7.98159 18.4247 9.22384 16.5258 9.82722L15.2126 7.83962C18.0343 6.97004 19.0636 4.84046 19.0813 2.69314V1.30891H21.6013V2.58666ZM17.9101 13.3055C17.8923 11.3534 19.9864 10.1999 23.4115 10.1822C26.8188 10.1999 28.9129 11.3534 28.9129 13.3055C28.9129 15.3109 26.8188 16.4467 23.4115 16.4289C19.9864 16.4467 17.8923 15.3109 17.9101 13.3055ZM20.3946 13.3055C20.3768 14.1219 21.4061 14.4945 23.4115 14.5123C25.4168 14.4945 26.4461 14.1219 26.4639 13.3055C26.4461 12.5069 25.4168 12.1343 23.4115 12.1343C21.4061 12.1343 20.3768 12.5069 20.3946 13.3055ZM23.5889 5.31962V3.26102H26.3929V0.528065H28.8774V9.79173H26.3929V5.31962H23.5889ZM45.2442 7.66215V9.64976H39.2459V10.6968C41.9434 10.9098 43.5228 11.9213 43.5406 13.5185C43.5228 15.3996 41.4287 16.4467 37.9682 16.4289C34.4899 16.4467 32.378 15.3996 32.3958 13.5185C32.378 11.9036 34.0107 10.892 36.7614 10.6791V9.64976H30.7631V7.66215H45.2442ZM31.331 5.21314C34.2414 4.98243 35.6611 4.04187 36.1048 3.11905H32.0763V1.16694H43.931V3.11905H39.867C40.3107 4.04187 41.7127 4.98243 44.7118 5.21314L43.8245 7.20074C40.7366 6.9168 38.82 5.81652 37.9682 4.34356C37.1518 5.79877 35.253 6.9168 32.1473 7.20074L31.331 5.21314ZM34.9158 13.5185C34.9158 14.2106 35.8918 14.5655 37.9682 14.5478C40.009 14.5655 41.0206 14.2106 41.0206 13.5185C41.0206 12.8264 40.009 12.5247 37.9682 12.4892C35.8918 12.5247 34.9158 12.8264 34.9158 13.5185ZM55.5063 1.8413V3.79342H46.0651V1.8413H49.5434V0.457079H52.0279V1.8413H55.5063ZM46.8105 7.16525C46.8105 5.40835 48.4787 4.21933 50.7857 4.21933C53.1105 4.21933 54.7254 5.40835 54.7254 7.16525C54.7254 8.92215 53.1105 10.1112 50.7857 10.1112C48.4787 10.1112 46.8105 8.92215 46.8105 7.16525ZM47.9818 13.0926V11.105H58.7716V16.4289H56.2516V13.0926H47.9818ZM49.2595 7.16525C49.2418 7.89285 49.8629 8.23004 50.7857 8.23004C51.7263 8.23004 52.3651 7.89285 52.3829 7.16525C52.3651 6.43764 51.7263 6.06497 50.7857 6.06497C49.8629 6.06497 49.2418 6.43764 49.2595 7.16525ZM56.2516 10.5016V0.528065H58.7716V4.57426H60.8302V6.56187H58.7716V10.5016H56.2516ZM74.748 1.80581V3.29652C74.7303 5.21314 74.7303 7.44919 74.1446 10.7145L71.6956 10.5016C72.1748 7.6799 72.228 5.56807 72.228 3.79342H62.8224V1.80581H74.748ZM61.4382 14.5833V12.5602H64.3486V7.62666H66.8331V12.5602H68.3238V7.62666H70.7728V12.5602H75.9193V14.5833H61.4382Z" fill="#A87130"/>
</svg>
