<svg width="718" height="243" viewBox="0 0 718 243" fill="none" xmlns="http://www.w3.org/2000/svg">
<path d="M603 172H32L248.266 60L396.726 114.217L603 172Z" fill="#C7C7C7"/>
<path d="M14.3452 221.667V230.474H12.3811V221.667H14.3452ZM16.5641 225.291V226.919H13.7982V225.291H16.5641ZM4.45638 222.475V228.945H2.49229V222.475H4.45638ZM3.81619 227.932C5.02199 227.932 6.21121 227.881 7.38386 227.777C8.56066 227.669 9.75403 227.491 10.964 227.242L11.2002 228.852C9.95293 229.109 8.72226 229.291 7.50817 229.399C6.29409 229.503 5.06342 229.552 3.81619 229.548H2.49229V227.932H3.81619ZM9.87005 232.501C9.86591 233.321 9.62351 234.073 9.14284 234.757C8.66632 235.441 7.98884 236.015 7.11038 236.479C6.23607 236.943 5.21674 237.26 4.05237 237.43L3.28787 235.95C4.28649 235.822 5.15873 235.581 5.90458 235.229C6.65044 234.877 7.22226 234.463 7.62005 233.986C8.01784 233.51 8.21881 233.015 8.22295 232.501V232.028H9.87005V232.501ZM10.2927 232.501C10.2886 232.998 10.4875 233.487 10.8894 233.968C11.2913 234.448 11.8673 234.869 12.6173 235.229C13.3714 235.59 14.2437 235.838 15.234 235.975L14.4819 237.467C13.3176 237.293 12.2941 236.968 11.4115 236.491C10.533 236.019 9.85348 235.436 9.37282 234.744C8.8963 234.052 8.65804 233.305 8.65804 232.501V232.028H10.2927V232.501ZM14.5689 231.189V232.756H3.94049V231.189H14.5689ZM31.8411 229.884V231.444H17.3652V229.884H31.8411ZM30.2064 235.671V237.256H19.1491V235.671H30.2064ZM21.1132 232.619V236.174H19.1491V232.619H21.1132ZM24.5938 222.189C25.7416 222.185 26.7444 222.314 27.6021 222.575C28.464 222.831 29.1311 223.202 29.6035 223.687C30.0759 224.168 30.3121 224.738 30.3121 225.396C30.3121 226.064 30.0759 226.644 29.6035 227.137C29.1311 227.626 28.464 228.001 27.6021 228.262C26.7444 228.523 25.7416 228.653 24.5938 228.653C23.4419 228.653 22.435 228.523 21.5731 228.262C20.7112 228.001 20.0441 227.626 19.5717 227.137C19.0993 226.644 18.8652 226.064 18.8694 225.396C18.8652 224.738 19.0993 224.168 19.5717 223.687C20.0441 223.202 20.7112 222.831 21.5731 222.575C22.435 222.314 23.4419 222.185 24.5938 222.189ZM24.5938 223.743C23.8231 223.743 23.1601 223.809 22.6049 223.942C22.0496 224.07 21.6249 224.259 21.3307 224.508C21.0365 224.756 20.8915 225.052 20.8956 225.396C20.8915 225.757 21.0365 226.061 21.3307 226.31C21.6249 226.559 22.0475 226.747 22.5987 226.876C23.1539 227 23.819 227.062 24.5938 227.062C25.3687 227.062 26.0317 227 26.5828 226.876C27.138 226.747 27.5627 226.559 27.8569 226.31C28.1553 226.061 28.3045 225.757 28.3045 225.396C28.3045 225.052 28.1553 224.756 27.8569 224.508C27.5627 224.259 27.138 224.07 26.5828 223.942C26.0275 223.809 25.3645 223.743 24.5938 223.743ZM48.8349 223.128V224.7H38.654V223.128H48.8349ZM51.6692 233.912V235.515H37.1934V233.912H51.6692ZM42.3895 228.84V234.459H40.4378V228.84H42.3895ZM50.2272 224.75V224.868C50.2231 225.742 50.2085 226.499 50.1837 227.137C50.163 227.771 50.1112 228.5 50.0283 229.325C49.9454 230.145 49.817 231.03 49.6429 231.979L47.7224 231.786C47.8881 230.891 48.0103 230.044 48.0891 229.244C48.1678 228.44 48.2175 227.719 48.2382 227.081C48.259 226.439 48.2693 225.703 48.2693 224.874V224.75V223.128H50.2272V224.75ZM46.3301 228.84V234.459H44.4095V228.84H46.3301ZM60.4696 223.32V224.893H53.4523V223.32H60.4696ZM57.6105 227.87V233.253H55.6899V227.87H57.6105ZM61.6319 224.452V224.582C61.6278 225.258 61.6174 225.867 61.6008 226.41C61.5842 226.948 61.5428 227.58 61.4765 228.305C61.4144 229.026 61.317 229.793 61.1844 230.605L59.2576 230.45C59.386 229.637 59.4813 228.877 59.5435 228.169C59.6057 227.456 59.643 226.836 59.6554 226.31C59.672 225.78 59.6823 225.183 59.6865 224.52V224.452V223.32H61.6319V224.452ZM65.212 221.68V237.554H63.2417V221.68H65.212ZM67.5117 228.144V229.797H64.6402V228.144H67.5117ZM52.607 232.65C54.5131 232.642 56.27 232.606 57.8778 232.544C59.4855 232.482 60.9979 232.362 62.4151 232.184L62.5269 233.638C61.0476 233.883 59.4938 234.046 57.8653 234.129C56.2369 234.208 54.5483 234.241 52.7997 234.229L52.607 232.65ZM85.7984 221.68V237.591H83.8281V221.68H85.7984ZM77.2397 222.829C78.0312 222.834 78.7397 223.068 79.3654 223.532C79.9952 223.992 80.4863 224.644 80.8385 225.49C81.1948 226.335 81.373 227.319 81.373 228.442C81.373 229.573 81.1948 230.564 80.8385 231.413C80.4863 232.262 79.9952 232.919 79.3654 233.383C78.7397 233.843 78.0312 234.071 77.2397 234.067C76.4359 234.071 75.719 233.843 75.0892 233.383C74.4593 232.919 73.9662 232.262 73.6099 231.413C73.2577 230.564 73.0836 229.573 73.0878 228.442C73.0836 227.319 73.2577 226.333 73.6099 225.483C73.9662 224.634 74.4593 223.981 75.0892 223.526C75.7231 223.066 76.44 222.834 77.2397 222.829ZM77.2397 224.595C76.7881 224.595 76.3903 224.748 76.0464 225.055C75.7066 225.361 75.4414 225.805 75.2508 226.385C75.0643 226.961 74.9711 227.646 74.9711 228.442C74.9711 229.242 75.0643 229.934 75.2508 230.518C75.4414 231.098 75.7066 231.541 76.0464 231.848C76.3903 232.151 76.7881 232.302 77.2397 232.302C77.6831 232.302 78.0726 232.151 78.4082 231.848C78.748 231.541 79.0111 231.098 79.1976 230.518C79.3882 229.934 79.4835 229.242 79.4835 228.442C79.4835 227.646 79.3882 226.961 79.1976 226.385C79.0111 225.805 78.748 225.361 78.4082 225.055C78.0726 224.748 77.6831 224.595 77.2397 224.595ZM95.8855 224.203V225.776H88.1037V224.203H95.8855ZM92.0194 226.602C92.6824 226.602 93.277 226.762 93.8033 227.081C94.3295 227.396 94.7418 227.835 95.0401 228.398C95.3385 228.958 95.4877 229.596 95.4877 230.313C95.4877 231.034 95.3385 231.68 95.0401 232.252C94.7418 232.82 94.3295 233.261 93.8033 233.576C93.277 233.891 92.6824 234.048 92.0194 234.048C91.3564 234.048 90.7598 233.889 90.2294 233.57C89.7031 233.251 89.2908 232.809 88.9925 232.246C88.6942 231.678 88.5471 231.034 88.5512 230.313C88.5471 229.6 88.6942 228.962 88.9925 228.398C89.2908 227.835 89.7031 227.396 90.2294 227.081C90.7598 226.762 91.3564 226.602 92.0194 226.602ZM92.0194 228.231C91.6755 228.231 91.3709 228.318 91.1058 228.492C90.8406 228.662 90.6355 228.904 90.4904 229.219C90.3454 229.534 90.2729 229.898 90.2729 230.313C90.2729 230.731 90.3454 231.098 90.4904 231.413C90.6355 231.728 90.8406 231.968 91.1058 232.134C91.3709 232.3 91.6755 232.383 92.0194 232.383C92.3592 232.383 92.6596 232.3 92.9207 232.134C93.1817 231.968 93.3868 231.728 93.536 231.413C93.6893 231.098 93.766 230.731 93.766 230.313C93.766 229.898 93.6893 229.534 93.536 229.219C93.3868 228.904 93.1797 228.662 92.9145 228.492C92.6534 228.318 92.3551 228.231 92.0194 228.231ZM101.796 221.68V237.554H99.9379V221.68H101.796ZM100.547 228.218V229.797H97.7563V228.218H100.547ZM98.3779 222.015V236.839H96.5443V222.015H98.3779ZM92.9828 222.133V225.185H91.0498V222.133H92.9828ZM116.589 228.896V230.45H105.45V228.896H116.589ZM118.217 234.079V235.683H103.691V234.079H118.217ZM111.89 229.592V234.633H109.95V229.592H111.89ZM116.464 222.854V224.421H107.408V229.604H105.45V222.854H116.464Z" fill="#898989"/>
<path d="M583.712 225.452V227.019H572.692V225.452H583.712ZM574.637 221.997V226.478H572.692V221.997H574.637ZM585.284 228.61V230.176H570.809V228.61H585.284ZM579.019 226.559V229.729H577.061V226.559H579.019ZM583.718 231.444V232.961H572.381V231.444H583.718ZM583.88 235.789V237.367H572.244V235.789H583.88ZM576.577 231.842V236.559H574.637V231.842H576.577ZM581.456 231.842V236.559H579.529V231.842H581.456ZM600.841 229.884V231.444H586.365V229.884H600.841ZM599.206 235.671V237.256H588.149V235.671H599.206ZM590.113 232.619V236.174H588.149V232.619H590.113ZM593.594 222.189C594.742 222.185 595.744 222.314 596.602 222.575C597.464 222.831 598.131 223.202 598.603 223.687C599.076 224.168 599.312 224.738 599.312 225.396C599.312 226.064 599.076 226.644 598.603 227.137C598.131 227.626 597.464 228.001 596.602 228.262C595.744 228.523 594.742 228.653 593.594 228.653C592.442 228.653 591.435 228.523 590.573 228.262C589.711 228.001 589.044 227.626 588.572 227.137C588.099 226.644 587.865 226.064 587.869 225.396C587.865 224.738 588.099 224.168 588.572 223.687C589.044 223.202 589.711 222.831 590.573 222.575C591.435 222.314 592.442 222.185 593.594 222.189ZM593.594 223.743C592.823 223.743 592.16 223.809 591.605 223.942C591.05 224.07 590.625 224.259 590.331 224.508C590.036 224.756 589.891 225.052 589.896 225.396C589.891 225.757 590.036 226.061 590.331 226.31C590.625 226.559 591.048 226.747 591.599 226.876C592.154 227 592.819 227.062 593.594 227.062C594.369 227.062 595.032 227 595.583 226.876C596.138 226.747 596.563 226.559 596.857 226.31C597.155 226.061 597.304 225.757 597.304 225.396C597.304 225.052 597.155 224.756 596.857 224.508C596.563 224.259 596.138 224.07 595.583 223.942C595.028 223.809 594.365 223.743 593.594 223.743ZM617.835 223.128V224.7H607.654V223.128H617.835ZM620.669 233.912V235.515H606.193V233.912H620.669ZM611.389 228.84V234.459H609.438V228.84H611.389ZM619.227 224.75V224.868C619.223 225.742 619.209 226.499 619.184 227.137C619.163 227.771 619.111 228.5 619.028 229.325C618.945 230.145 618.817 231.03 618.643 231.979L616.722 231.786C616.888 230.891 617.01 230.044 617.089 229.244C617.168 228.44 617.218 227.719 617.238 227.081C617.259 226.439 617.269 225.703 617.269 224.874V224.75V223.128H619.227V224.75ZM615.33 228.84V234.459H613.41V228.84H615.33ZM629.47 223.32V224.893H622.452V223.32H629.47ZM626.61 227.87V233.253H624.69V227.87H626.61ZM630.632 224.452V224.582C630.628 225.258 630.617 225.867 630.601 226.41C630.584 226.948 630.543 227.58 630.477 228.305C630.414 229.026 630.317 229.793 630.184 230.605L628.258 230.45C628.386 229.637 628.481 228.877 628.544 228.169C628.606 227.456 628.643 226.836 628.655 226.31C628.672 225.78 628.682 225.183 628.686 224.52V224.452V223.32H630.632V224.452ZM634.212 221.68V237.554H632.242V221.68H634.212ZM636.512 228.144V229.797H633.64V228.144H636.512ZM621.607 232.65C623.513 232.642 625.27 232.606 626.878 232.544C628.485 232.482 629.998 232.362 631.415 232.184L631.527 233.638C630.048 233.883 628.494 234.046 626.865 234.129C625.237 234.208 623.548 234.241 621.8 234.229L621.607 232.65ZM654.798 221.68V237.591H652.828V221.68H654.798ZM646.24 222.829C647.031 222.834 647.74 223.068 648.365 223.532C648.995 223.992 649.486 224.644 649.838 225.49C650.195 226.335 650.373 227.319 650.373 228.442C650.373 229.573 650.195 230.564 649.838 231.413C649.486 232.262 648.995 232.919 648.365 233.383C647.74 233.843 647.031 234.071 646.24 234.067C645.436 234.071 644.719 233.843 644.089 233.383C643.459 232.919 642.966 232.262 642.61 231.413C642.258 230.564 642.084 229.573 642.088 228.442C642.084 227.319 642.258 226.333 642.61 225.483C642.966 224.634 643.459 223.981 644.089 223.526C644.723 223.066 645.44 222.834 646.24 222.829ZM646.24 224.595C645.788 224.595 645.39 224.748 645.046 225.055C644.707 225.361 644.441 225.805 644.251 226.385C644.064 226.961 643.971 227.646 643.971 228.442C643.971 229.242 644.064 229.934 644.251 230.518C644.441 231.098 644.707 231.541 645.046 231.848C645.39 232.151 645.788 232.302 646.24 232.302C646.683 232.302 647.073 232.151 647.408 231.848C647.748 231.541 648.011 231.098 648.198 230.518C648.388 229.934 648.484 229.242 648.484 228.442C648.484 227.646 648.388 226.961 648.198 226.385C648.011 225.805 647.748 225.361 647.408 225.055C647.073 224.748 646.683 224.595 646.24 224.595ZM664.885 224.203V225.776H657.104V224.203H664.885ZM661.019 226.602C661.682 226.602 662.277 226.762 662.803 227.081C663.33 227.396 663.742 227.835 664.04 228.398C664.338 228.958 664.488 229.596 664.488 230.313C664.488 231.034 664.338 231.68 664.04 232.252C663.742 232.82 663.33 233.261 662.803 233.576C662.277 233.891 661.682 234.048 661.019 234.048C660.356 234.048 659.76 233.889 659.229 233.57C658.703 233.251 658.291 232.809 657.992 232.246C657.694 231.678 657.547 231.034 657.551 230.313C657.547 229.6 657.694 228.962 657.992 228.398C658.291 227.835 658.703 227.396 659.229 227.081C659.76 226.762 660.356 226.602 661.019 226.602ZM661.019 228.231C660.676 228.231 660.371 228.318 660.106 228.492C659.841 228.662 659.635 228.904 659.49 229.219C659.345 229.534 659.273 229.898 659.273 230.313C659.273 230.731 659.345 231.098 659.49 231.413C659.635 231.728 659.841 231.968 660.106 232.134C660.371 232.3 660.676 232.383 661.019 232.383C661.359 232.383 661.66 232.3 661.921 232.134C662.182 231.968 662.387 231.728 662.536 231.413C662.689 231.098 662.766 230.731 662.766 230.313C662.766 229.898 662.689 229.534 662.536 229.219C662.387 228.904 662.18 228.662 661.914 228.492C661.653 228.318 661.355 228.231 661.019 228.231ZM670.796 221.68V237.554H668.938V221.68H670.796ZM669.547 228.218V229.797H666.756V228.218H669.547ZM667.378 222.015V236.839H665.544V222.015H667.378ZM661.983 222.133V225.185H660.05V222.133H661.983ZM685.589 228.896V230.45H674.45V228.896H685.589ZM687.217 234.079V235.683H672.691V234.079H687.217ZM680.89 229.592V234.633H678.95V229.592H680.89ZM685.464 222.854V224.421H676.408V229.604H674.45V222.854H685.464Z" fill="#898989"/>
<path d="M691.707 200.707C692.098 200.317 692.098 199.683 691.707 199.293L685.343 192.929C684.953 192.538 684.319 192.538 683.929 192.929C683.538 193.319 683.538 193.953 683.929 194.343L689.586 200L683.929 205.657C683.538 206.047 683.538 206.681 683.929 207.071C684.319 207.462 684.953 207.462 685.343 207.071L691.707 200.707ZM0.5 201H691V199H0.5V201Z" fill="#B0B0B0"/>
<circle cx="580.5" cy="35.5" r="10.5" fill="#3E52E9"/>
<circle cx="252.5" cy="35.5" r="10.5" fill="#C7C7C7"/>
<path d="M143.646 3.50967V5.3674H130.31V3.50967H143.646ZM143.528 7.70166V9.5732H130.427V7.70166H143.528ZM135.103 4.2279V8.92403H132.617V4.2279H135.103ZM141.332 4.2279V8.92403H138.825V4.2279H141.332ZM145.103 10.5055V12.4599H128.887V10.5055H145.103ZM143.121 13.4751V17.8674H133.217V19.5594H130.773V16.1685H140.662V15.2569H130.759V13.4751H143.121ZM143.583 18.8412V20.6782H130.773V18.8412H143.583ZM161.442 3.04005V12.9019H159.08V3.04005H161.442ZM159.846 7.00414V8.95856H156.973V7.00414H159.846ZM157.533 3.3232V12.7983H155.212V3.3232H157.533ZM151.759 13.634V15.1326H158.976V13.634H161.442V20.6022H149.294V13.634H151.759ZM151.759 18.6064H158.976V17.0594H151.759V18.6064ZM148.12 10.4019C149.137 10.4019 149.964 10.3927 150.599 10.3743C151.235 10.3559 151.861 10.3168 152.478 10.2569C153.095 10.1971 153.723 10.105 154.363 9.98066L154.591 11.9696C153.61 12.14 152.646 12.2551 151.697 12.3149C150.753 12.3702 149.561 12.3978 148.12 12.3978H146.891V10.4019H148.12ZM153.645 3.93784V9H149.301V12.1423H146.891V7.1837H151.248V5.89227H146.863V3.93784H153.645ZM174.137 7.04558C174.133 8.5511 173.949 9.96685 173.585 11.2928C173.226 12.6188 172.676 13.7928 171.934 14.8149C171.198 15.8324 170.288 16.6105 169.206 17.1492L167.68 15.1257C168.647 14.6791 169.462 14.0368 170.125 13.1989C170.793 12.3564 171.29 11.4079 171.617 10.3536C171.944 9.29466 172.109 8.19199 172.114 7.04558V4.38674H174.137V7.04558ZM174.607 7.04558C174.602 8.15055 174.754 9.20718 175.063 10.2155C175.371 11.2238 175.841 12.1331 176.472 12.9434C177.107 13.7491 177.885 14.3752 178.806 14.8218L177.3 16.8039C176.255 16.2882 175.38 15.5378 174.676 14.5525C173.972 13.5626 173.449 12.43 173.108 11.1547C172.772 9.87477 172.607 8.50506 172.611 7.04558V4.38674H174.607V7.04558ZM182.086 3.01243V20.8025H179.593V3.01243H182.086ZM184.711 9.87017V11.9765H181.534V9.87017H184.711ZM191.519 8.98619V12.2389H188.998V8.98619H191.519ZM197.824 8.98619V12.2389H195.345V8.98619H197.824ZM201.568 11.4517V13.4406H185.352V11.4517H201.568ZM193.425 14.366C194.705 14.366 195.808 14.4903 196.733 14.739C197.663 14.9876 198.375 15.3513 198.867 15.8301C199.365 16.3043 199.615 16.8821 199.62 17.5635C199.615 18.2495 199.365 18.8343 198.867 19.3177C198.375 19.8011 197.666 20.1648 196.74 20.4088C195.815 20.6529 194.71 20.7749 193.425 20.7749C192.127 20.7749 191.01 20.6529 190.076 20.4088C189.146 20.1648 188.434 19.8011 187.942 19.3177C187.449 18.8343 187.203 18.2495 187.203 17.5635C187.203 16.8821 187.449 16.3043 187.942 15.8301C188.439 15.3513 189.153 14.9876 190.083 14.739C191.013 14.4903 192.127 14.366 193.425 14.366ZM193.425 16.2445C192.597 16.2491 191.911 16.2997 191.367 16.3964C190.824 16.4885 190.417 16.6335 190.145 16.8315C189.873 17.0249 189.74 17.2689 189.744 17.5635C189.74 17.8628 189.873 18.1137 190.145 18.3163C190.417 18.5143 190.826 18.6639 191.374 18.7652C191.922 18.8665 192.606 18.9171 193.425 18.9171C194.236 18.9171 194.912 18.8665 195.456 18.7652C196.004 18.6639 196.416 18.5143 196.692 18.3163C196.973 18.1137 197.115 17.8628 197.12 17.5635C197.12 17.2689 196.98 17.0249 196.699 16.8315C196.418 16.6335 196.006 16.4885 195.463 16.3964C194.919 16.2997 194.24 16.2491 193.425 16.2445ZM193.446 3.27486C194.754 3.27947 195.893 3.41989 196.865 3.69613C197.836 3.96777 198.586 4.36142 199.116 4.87707C199.645 5.38812 199.91 5.99816 199.91 6.70718C199.91 7.407 199.645 8.01013 199.116 8.51657C198.591 9.01842 197.843 9.40285 196.871 9.66989C195.9 9.93232 194.758 10.0635 193.446 10.0635C192.129 10.0635 190.983 9.93232 190.007 9.66989C189.031 9.40285 188.28 9.01842 187.755 8.51657C187.231 8.01013 186.97 7.407 186.975 6.70718C186.97 5.99816 187.233 5.38812 187.762 4.87707C188.292 4.36142 189.042 3.96777 190.014 3.69613C190.99 3.41989 192.134 3.27947 193.446 3.27486ZM193.446 5.19475C192.608 5.19475 191.899 5.2523 191.319 5.3674C190.739 5.4825 190.299 5.65285 190 5.87845C189.705 6.09945 189.56 6.37569 189.565 6.70718C189.56 7.03407 189.705 7.30801 190 7.52901C190.299 7.7454 190.737 7.90884 191.312 8.01934C191.892 8.12983 192.603 8.18508 193.446 8.18508C194.284 8.18508 194.991 8.12983 195.566 8.01934C196.146 7.90884 196.586 7.74309 196.885 7.5221C197.189 7.3011 197.341 7.02947 197.341 6.70718C197.341 6.37569 197.189 6.09945 196.885 5.87845C196.581 5.65285 196.139 5.4825 195.559 5.3674C194.984 5.2523 194.279 5.19475 193.446 5.19475ZM221.045 7.6395V9.64917H216.832V7.6395H221.045ZM222.226 3.04005V16.0166H219.74V3.04005H222.226ZM222.647 18.482V20.4917H210.43V18.482H222.647ZM212.917 14.884V19.663H210.43V14.884H212.917ZM213.441 6.5C213.441 7.64641 213.255 8.72145 212.882 9.72514C212.514 10.7242 211.952 11.6013 211.197 12.3564C210.446 13.1068 209.521 13.6662 208.421 14.0345L207.143 12.018C208.091 11.7187 208.883 11.2836 209.519 10.7127C210.159 10.1418 210.633 9.49494 210.941 8.7721C211.254 8.04466 211.413 7.28729 211.418 6.5V5.34668H213.441V6.5ZM213.952 6.51381C213.952 7.23204 214.1 7.92956 214.394 8.60635C214.694 9.28315 215.149 9.89549 215.762 10.4434C216.374 10.9866 217.134 11.4056 218.041 11.7003L216.812 13.6754C215.739 13.3209 214.836 12.7845 214.104 12.0663C213.372 11.3481 212.824 10.5124 212.461 9.55939C212.102 8.60635 211.922 7.59116 211.922 6.51381V5.34668H213.952V6.51381ZM217.495 4.23481V6.23066H207.854V4.23481H217.495ZM171.85 40.4931V38.1796L177.837 28.8564H179.826V32.0746H178.631L174.812 38.0276V38.1381H183.307V40.4931H171.85ZM178.721 43V39.7887L178.763 38.7597V28.8564H181.525V43H178.721ZM186.668 43.1727C186.369 43.1727 186.093 43.099 185.84 42.9517C185.586 42.8043 185.386 42.6064 185.239 42.3577C185.091 42.1045 185.02 41.8306 185.025 41.5359C185.02 41.2413 185.091 40.9696 185.239 40.721C185.386 40.4724 185.586 40.2744 185.84 40.1271C186.093 39.9797 186.369 39.9061 186.668 39.9061C186.954 39.9061 187.221 39.9797 187.469 40.1271C187.718 40.2744 187.918 40.4724 188.07 40.721C188.227 40.9696 188.305 41.2413 188.305 41.5359C188.305 41.8306 188.229 42.1022 188.077 42.3508C187.925 42.5994 187.723 42.7997 187.469 42.9517C187.221 43.099 186.954 43.1727 186.668 43.1727ZM195.51 43.1934C194.461 43.1888 193.508 42.9586 192.651 42.5028C191.795 42.0424 191.104 41.2965 190.579 40.2652C190.059 39.2339 189.799 37.8964 189.799 36.2528C189.804 34.6828 190.043 33.3292 190.517 32.192C190.996 31.0502 191.673 30.1777 192.548 29.5746C193.422 28.9669 194.447 28.663 195.621 28.663C196.546 28.663 197.377 28.8425 198.114 29.2017C198.851 29.5608 199.442 30.0534 199.889 30.6796C200.335 31.3057 200.607 32.0078 200.704 32.7859H197.81C197.732 32.459 197.591 32.1759 197.389 31.9365C197.191 31.6924 196.94 31.506 196.636 31.3771C196.337 31.2482 195.998 31.1837 195.621 31.1837C194.99 31.1837 194.454 31.3656 194.012 31.7293C193.57 32.093 193.238 32.611 193.017 33.2831C192.796 33.9553 192.683 34.7564 192.679 35.6865H192.803C193.019 35.2767 193.312 34.9222 193.68 34.6229C194.048 34.3237 194.467 34.0958 194.937 33.9392C195.407 33.7781 195.904 33.6975 196.429 33.6975C197.267 33.6975 198.024 33.8932 198.701 34.2845C199.378 34.6759 199.905 35.2192 200.282 35.9144C200.665 36.6096 200.856 37.3923 200.856 38.2624C200.856 39.2155 200.632 40.0672 200.186 40.8177C199.739 41.5681 199.108 42.1529 198.293 42.5718C197.483 42.9908 196.555 43.198 195.51 43.1934ZM195.496 40.8798C195.966 40.8798 196.392 40.7693 196.774 40.5483C197.161 40.3227 197.462 40.0189 197.679 39.6367C197.9 39.25 198.008 38.8195 198.003 38.3453C198.008 37.8849 197.902 37.4636 197.686 37.0815C197.474 36.6948 197.177 36.3909 196.795 36.1699C196.417 35.9489 195.991 35.8384 195.517 35.8384C195.048 35.8384 194.619 35.9535 194.233 36.1837C193.846 36.4093 193.54 36.7155 193.314 37.1022C193.093 37.4843 192.98 37.9033 192.976 38.3591C192.976 38.8149 193.086 39.2362 193.307 39.6229C193.528 40.0051 193.83 40.3112 194.212 40.5414C194.594 40.767 195.022 40.8798 195.496 40.8798ZM208.362 43.1934C207.312 43.1888 206.359 42.9586 205.503 42.5028C204.646 42.0424 203.956 41.2965 203.431 40.2652C202.911 39.2339 202.651 37.8964 202.651 36.2528C202.655 34.6828 202.895 33.3292 203.369 32.192C203.848 31.0502 204.524 30.1777 205.399 29.5746C206.274 28.9669 207.298 28.663 208.472 28.663C209.398 28.663 210.229 28.8425 210.965 29.2017C211.702 29.5608 212.294 30.0534 212.74 30.6796C213.187 31.3057 213.459 32.0078 213.555 32.7859H210.662C210.583 32.459 210.443 32.1759 210.24 31.9365C210.042 31.6924 209.791 31.506 209.488 31.3771C209.188 31.2482 208.85 31.1837 208.472 31.1837C207.842 31.1837 207.305 31.3656 206.863 31.7293C206.421 32.093 206.09 32.611 205.869 33.2831C205.648 33.9553 205.535 34.7564 205.53 35.6865H205.655C205.871 35.2767 206.163 34.9222 206.532 34.6229C206.9 34.3237 207.319 34.0958 207.789 33.9392C208.258 33.7781 208.755 33.6975 209.28 33.6975C210.118 33.6975 210.876 33.8932 211.552 34.2845C212.229 34.6759 212.756 35.2192 213.134 35.9144C213.516 36.6096 213.707 37.3923 213.707 38.2624C213.707 39.2155 213.484 40.0672 213.037 40.8177C212.591 41.5681 211.96 42.1529 211.145 42.5718C210.335 42.9908 209.407 43.198 208.362 43.1934ZM208.348 40.8798C208.818 40.8798 209.244 40.7693 209.626 40.5483C210.012 40.3227 210.314 40.0189 210.53 39.6367C210.751 39.25 210.86 38.8195 210.855 38.3453C210.86 37.8849 210.754 37.4636 210.537 37.0815C210.325 36.6948 210.029 36.3909 209.646 36.1699C209.269 35.9489 208.843 35.8384 208.369 35.8384C207.899 35.8384 207.471 35.9535 207.084 36.1837C206.697 36.4093 206.391 36.7155 206.166 37.1022C205.945 37.4843 205.832 37.9033 205.827 38.3591C205.827 38.8149 205.938 39.2362 206.159 39.6229C206.38 40.0051 206.681 40.3112 207.063 40.5414C207.446 40.767 207.874 40.8798 208.348 40.8798ZM221.828 28.8564V43H218.886V31.6533H218.803L215.557 33.6906V31.0801L219.059 28.8564H221.828Z" fill="#B0B0B0"/>
<path d="M624.29 3.50967V5.3674H610.954V3.50967H624.29ZM624.173 7.70166V9.5732H611.072V7.70166H624.173ZM615.747 4.2279V8.92403H613.261V4.2279H615.747ZM621.977 4.2279V8.92403H619.47V4.2279H621.977ZM625.747 10.5055V12.4599H609.532V10.5055H625.747ZM623.765 13.4751V17.8674H613.862V19.5594H611.417V16.1685H621.307V15.2569H611.403V13.4751H623.765ZM624.228 18.8412V20.6782H611.417V18.8412H624.228ZM642.086 3.04005V12.9019H639.724V3.04005H642.086ZM640.491 7.00414V8.95856H637.618V7.00414H640.491ZM638.177 3.3232V12.7983H635.857V3.3232H638.177ZM632.404 13.634V15.1326H639.621V13.634H642.086V20.6022H629.938V13.634H632.404ZM632.404 18.6064H639.621V17.0594H632.404V18.6064ZM628.764 10.4019C629.782 10.4019 630.608 10.3927 631.244 10.3743C631.879 10.3559 632.505 10.3168 633.122 10.2569C633.739 10.1971 634.368 10.105 635.008 9.98066L635.235 11.9696C634.255 12.14 633.29 12.2551 632.342 12.3149C631.398 12.3702 630.206 12.3978 628.764 12.3978H627.535V10.4019H628.764ZM634.289 3.93784V9H629.945V12.1423H627.535V7.1837H631.893V5.89227H627.508V3.93784H634.289ZM654.782 7.04558C654.777 8.5511 654.593 9.96685 654.229 11.2928C653.87 12.6188 653.32 13.7928 652.579 14.8149C651.842 15.8324 650.933 16.6105 649.851 17.1492L648.325 15.1257C649.292 14.6791 650.106 14.0368 650.769 13.1989C651.437 12.3564 651.934 11.4079 652.261 10.3536C652.588 9.29466 652.754 8.19199 652.758 7.04558V4.38674H654.782V7.04558ZM655.252 7.04558C655.247 8.15055 655.399 9.20718 655.707 10.2155C656.016 11.2238 656.485 12.1331 657.116 12.9434C657.752 13.7491 658.53 14.3752 659.45 14.8218L657.945 16.8039C656.9 16.2882 656.025 15.5378 655.321 14.5525C654.616 13.5626 654.094 12.43 653.753 11.1547C653.417 9.87477 653.251 8.50506 653.256 7.04558V4.38674H655.252V7.04558ZM662.731 3.01243V20.8025H660.238V3.01243H662.731ZM665.355 9.87017V11.9765H662.178V9.87017H665.355ZM672.164 8.98619V12.2389H669.643V8.98619H672.164ZM678.469 8.98619V12.2389H675.99V8.98619H678.469ZM682.212 11.4517V13.4406H665.997V11.4517H682.212ZM674.07 14.366C675.35 14.366 676.452 14.4903 677.378 14.739C678.308 14.9876 679.019 15.3513 679.512 15.8301C680.009 16.3043 680.26 16.8821 680.265 17.5635C680.26 18.2495 680.009 18.8343 679.512 19.3177C679.019 19.8011 678.31 20.1648 677.385 20.4088C676.459 20.6529 675.354 20.7749 674.07 20.7749C672.771 20.7749 671.655 20.6529 670.72 20.4088C669.79 20.1648 669.079 19.8011 668.586 19.3177C668.094 18.8343 667.847 18.2495 667.847 17.5635C667.847 16.8821 668.094 16.3043 668.586 15.8301C669.084 15.3513 669.797 14.9876 670.727 14.739C671.657 14.4903 672.771 14.366 674.07 14.366ZM674.07 16.2445C673.241 16.2491 672.555 16.2997 672.012 16.3964C671.469 16.4885 671.061 16.6335 670.789 16.8315C670.518 17.0249 670.384 17.2689 670.389 17.5635C670.384 17.8628 670.518 18.1137 670.789 18.3163C671.061 18.5143 671.471 18.6639 672.019 18.7652C672.567 18.8665 673.25 18.9171 674.07 18.9171C674.88 18.9171 675.557 18.8665 676.1 18.7652C676.648 18.6639 677.06 18.5143 677.336 18.3163C677.617 18.1137 677.76 17.8628 677.765 17.5635C677.765 17.2689 677.624 17.0249 677.343 16.8315C677.062 16.6335 676.65 16.4885 676.107 16.3964C675.564 16.2997 674.885 16.2491 674.07 16.2445ZM674.091 3.27486C675.398 3.27947 676.538 3.41989 677.509 3.69613C678.48 3.96777 679.231 4.36142 679.76 4.87707C680.29 5.38812 680.555 5.99816 680.555 6.70718C680.555 7.407 680.29 8.01013 679.76 8.51657C679.236 9.01842 678.487 9.40285 677.516 9.66989C676.544 9.93232 675.403 10.0635 674.091 10.0635C672.774 10.0635 671.627 9.93232 670.651 9.66989C669.675 9.40285 668.925 9.01842 668.4 8.51657C667.875 8.01013 667.615 7.407 667.62 6.70718C667.615 5.99816 667.877 5.38812 668.407 4.87707C668.936 4.36142 669.687 3.96777 670.658 3.69613C671.634 3.41989 672.778 3.27947 674.091 3.27486ZM674.091 5.19475C673.253 5.19475 672.544 5.2523 671.963 5.3674C671.383 5.4825 670.944 5.65285 670.644 5.87845C670.35 6.09945 670.205 6.37569 670.209 6.70718C670.205 7.03407 670.35 7.30801 670.644 7.52901C670.944 7.7454 671.381 7.90884 671.957 8.01934C672.537 8.12983 673.248 8.18508 674.091 8.18508C674.928 8.18508 675.635 8.12983 676.211 8.01934C676.791 7.90884 677.23 7.74309 677.53 7.5221C677.834 7.3011 677.986 7.02947 677.986 6.70718C677.986 6.37569 677.834 6.09945 677.53 5.87845C677.226 5.65285 676.784 5.4825 676.204 5.3674C675.628 5.2523 674.924 5.19475 674.091 5.19475ZM698.157 3.01243V20.8439H695.637V3.01243H698.157ZM688.503 4.26934C689.396 4.26934 690.197 4.52947 690.906 5.04972C691.615 5.56998 692.172 6.30893 692.577 7.26657C692.983 8.21961 693.185 9.32919 693.185 10.5953C693.185 11.8706 692.983 12.9894 692.577 13.9517C692.172 14.9139 691.615 15.6552 690.906 16.1754C690.202 16.6911 689.401 16.9489 688.503 16.9489C687.596 16.9489 686.785 16.6911 686.072 16.1754C685.358 15.6552 684.799 14.9162 684.394 13.9586C683.993 12.9963 683.795 11.8752 683.8 10.5953C683.795 9.32919 683.993 8.21731 684.394 7.25967C684.799 6.30203 685.358 5.56538 686.072 5.04972C686.79 4.52947 687.6 4.26934 688.503 4.26934ZM688.503 6.52072C688.042 6.52072 687.64 6.67956 687.294 6.99724C686.949 7.31031 686.68 7.77302 686.486 8.38536C686.297 8.9977 686.205 9.73435 686.21 10.5953C686.205 11.4655 686.297 12.2067 686.486 12.8191C686.68 13.4314 686.949 13.8964 687.294 14.2141C687.64 14.5318 688.042 14.6906 688.503 14.6906C688.959 14.6906 689.355 14.5318 689.691 14.2141C690.031 13.8964 690.296 13.4314 690.485 12.8191C690.678 12.2067 690.775 11.4655 690.775 10.5953C690.775 9.73435 690.678 8.9977 690.485 8.38536C690.296 7.77302 690.031 7.31031 689.691 6.99724C689.35 6.67956 688.954 6.52072 688.503 6.52072ZM715.933 4.86326V6.85912H701.34V4.86326H715.933ZM716.824 14.511V16.5276H700.567V14.511H716.824ZM709.89 16.2445V20.8163H707.425V16.2445H709.89ZM708.661 7.55663C709.936 7.55663 711.032 7.67403 711.948 7.90884C712.864 8.14365 713.566 8.48895 714.054 8.94475C714.547 9.40055 714.793 9.95534 714.793 10.6091C714.793 11.2537 714.547 11.8039 714.054 12.2597C713.566 12.7109 712.864 13.0539 711.948 13.2887C711.032 13.5235 709.936 13.6409 708.661 13.6409C707.381 13.6409 706.281 13.5235 705.36 13.2887C704.444 13.0539 703.741 12.7109 703.253 12.2597C702.77 11.8039 702.528 11.2537 702.528 10.6091C702.528 9.95534 702.77 9.40055 703.253 8.94475C703.741 8.48895 704.444 8.14365 705.36 7.90884C706.281 7.67403 707.381 7.55663 708.661 7.55663ZM708.661 9.40055C707.86 9.40055 707.197 9.44429 706.672 9.53177C706.152 9.61924 705.763 9.75276 705.505 9.93232C705.247 10.1119 705.118 10.3375 705.118 10.6091C705.118 10.8762 705.247 11.0971 705.505 11.2721C705.763 11.4424 706.152 11.5737 706.672 11.6657C707.197 11.7532 707.86 11.7947 708.661 11.7901C709.457 11.7947 710.113 11.7532 710.629 11.6657C711.149 11.5737 711.541 11.4424 711.803 11.2721C712.07 11.0971 712.206 10.8762 712.211 10.6091C712.206 10.3375 712.072 10.1119 711.81 9.93232C711.548 9.75276 711.156 9.61924 710.636 9.53177C710.116 9.44429 709.457 9.40055 708.661 9.40055ZM709.89 2.99862V6.19613H707.425V2.99862H709.89ZM615.312 43.1934C614.341 43.1934 613.466 43.0161 612.688 42.6616C611.91 42.3025 611.295 41.8076 610.844 41.1768C610.397 40.5414 610.165 39.8232 610.146 39.0221H612.999C613.022 39.3812 613.139 39.7035 613.351 39.989C613.563 40.2698 613.839 40.4885 614.18 40.645C614.525 40.8016 614.902 40.8798 615.312 40.8798C615.796 40.8798 616.226 40.7739 616.604 40.5622C616.986 40.3458 617.283 40.0488 617.494 39.6713C617.706 39.2891 617.812 38.8541 617.812 38.366C617.812 37.878 617.704 37.4406 617.488 37.0539C617.271 36.6671 616.967 36.3656 616.576 36.1492C616.189 35.9328 615.752 35.8223 615.264 35.8177C614.734 35.8177 614.283 35.9167 613.91 36.1146C613.542 36.3126 613.256 36.6073 613.054 36.9986H610.381L611.155 28.8564H619.856V31.2666H613.572L613.185 34.837H613.296C613.471 34.6022 613.701 34.395 613.986 34.2155C614.276 34.0359 614.603 33.8955 614.967 33.7942C615.335 33.6883 615.724 33.6354 616.134 33.6354C616.99 33.6354 617.762 33.8356 618.448 34.2362C619.138 34.6321 619.677 35.1846 620.064 35.8936C620.455 36.6027 620.651 37.4015 620.651 38.2901C620.651 39.2339 620.427 40.0787 619.981 40.8246C619.534 41.5658 618.906 42.1459 618.095 42.5649C617.285 42.9839 616.357 43.1934 615.312 43.1934ZM623.914 43.1727C623.615 43.1727 623.339 43.099 623.086 42.9517C622.832 42.8043 622.632 42.6064 622.485 42.3577C622.338 42.1045 622.266 41.8306 622.271 41.5359C622.266 41.2413 622.338 40.9696 622.485 40.721C622.632 40.4724 622.832 40.2744 623.086 40.1271C623.339 39.9797 623.615 39.9061 623.914 39.9061C624.2 39.9061 624.467 39.9797 624.716 40.1271C624.964 40.2744 625.164 40.4724 625.316 40.721C625.473 40.9696 625.551 41.2413 625.551 41.5359C625.551 41.8306 625.475 42.1022 625.323 42.3508C625.171 42.5994 624.969 42.7997 624.716 42.9517C624.467 43.099 624.2 43.1727 623.914 43.1727ZM632.756 43.1934C631.707 43.1888 630.754 42.9586 629.897 42.5028C629.041 42.0424 628.35 41.2965 627.825 40.2652C627.305 39.2339 627.045 37.8964 627.045 36.2528C627.05 34.6828 627.289 33.3292 627.763 32.192C628.242 31.0502 628.919 30.1777 629.794 29.5746C630.668 28.9669 631.693 28.663 632.867 28.663C633.792 28.663 634.623 28.8425 635.36 29.2017C636.097 29.5608 636.688 30.0534 637.135 30.6796C637.581 31.3057 637.853 32.0078 637.95 32.7859H635.056C634.978 32.459 634.837 32.1759 634.635 31.9365C634.437 31.6924 634.186 31.506 633.882 31.3771C633.583 31.2482 633.244 31.1837 632.867 31.1837C632.236 31.1837 631.7 31.3656 631.258 31.7293C630.816 32.093 630.484 32.611 630.263 33.2831C630.042 33.9553 629.929 34.7564 629.925 35.6865H630.049C630.266 35.2767 630.558 34.9222 630.926 34.6229C631.295 34.3237 631.714 34.0958 632.183 33.9392C632.653 33.7781 633.15 33.6975 633.675 33.6975C634.513 33.6975 635.27 33.8932 635.947 34.2845C636.624 34.6759 637.151 35.2192 637.528 35.9144C637.911 36.6096 638.102 37.3923 638.102 38.2624C638.102 39.2155 637.878 40.0672 637.432 40.8177C636.985 41.5681 636.354 42.1529 635.54 42.5718C634.729 42.9908 633.801 43.198 632.756 43.1934ZM632.743 40.8798C633.212 40.8798 633.638 40.7693 634.02 40.5483C634.407 40.3227 634.708 40.0189 634.925 39.6367C635.146 39.25 635.254 38.8195 635.249 38.3453C635.254 37.8849 635.148 37.4636 634.932 37.0815C634.72 36.6948 634.423 36.3909 634.041 36.1699C633.663 35.9489 633.237 35.8384 632.763 35.8384C632.294 35.8384 631.865 35.9535 631.479 36.1837C631.092 36.4093 630.786 36.7155 630.56 37.1022C630.339 37.4843 630.226 37.9033 630.222 38.3591C630.222 38.8149 630.332 39.2362 630.553 39.6229C630.774 40.0051 631.076 40.3112 631.458 40.5414C631.84 40.767 632.268 40.8798 632.743 40.8798ZM645.449 43.1934C644.39 43.1934 643.437 43.0207 642.59 42.6754C641.747 42.3255 641.089 41.849 640.615 41.2459C640.141 40.6381 639.904 39.9544 639.904 39.1948C639.904 38.6146 640.039 38.0737 640.311 37.5718C640.587 37.07 640.962 36.6556 641.437 36.3287C641.911 35.9972 642.436 35.7878 643.011 35.7003V35.6036C642.514 35.5069 642.07 35.3089 641.678 35.0097C641.287 34.7104 640.981 34.3398 640.76 33.8978C640.543 33.4558 640.435 32.9793 640.435 32.4682C640.435 31.7454 640.652 31.0939 641.084 30.5138C641.522 29.9337 642.12 29.4802 642.88 29.1533C643.644 28.8264 644.501 28.663 645.449 28.663C646.398 28.663 647.252 28.8264 648.011 29.1533C648.771 29.4802 649.367 29.9337 649.8 30.5138C650.237 31.0939 650.456 31.7454 650.456 32.4682C650.456 32.9793 650.345 33.4558 650.125 33.8978C649.904 34.3398 649.597 34.7104 649.206 35.0097C648.819 35.3089 648.377 35.5069 647.88 35.6036V35.7003C648.451 35.7878 648.973 35.9972 649.448 36.3287C649.922 36.6556 650.297 37.07 650.573 37.5718C650.85 38.0737 650.99 38.6146 650.995 39.1948C650.99 39.9544 650.748 40.6381 650.27 41.2459C649.795 41.849 649.137 42.3255 648.294 42.6754C647.452 43.0207 646.503 43.1934 645.449 43.1934ZM645.449 41.018C645.937 41.018 646.37 40.9328 646.747 40.7624C647.125 40.5875 647.417 40.3458 647.625 40.0373C647.832 39.7242 647.935 39.3674 647.935 38.9669C647.935 38.5617 647.827 38.198 647.611 37.8757C647.399 37.5534 647.102 37.3002 646.72 37.116C646.342 36.9319 645.919 36.8398 645.449 36.8398C644.975 36.8398 644.547 36.9319 644.165 37.116C643.787 37.2956 643.492 37.5488 643.281 37.8757C643.069 38.198 642.965 38.5617 642.97 38.9669C642.965 39.3628 643.064 39.7173 643.267 40.0304C643.474 40.3435 643.766 40.5875 644.144 40.7624C644.521 40.9328 644.956 41.018 645.449 41.018ZM645.449 34.692C645.859 34.692 646.225 34.6114 646.547 34.4503C646.874 34.2845 647.13 34.0566 647.314 33.7666C647.498 33.4719 647.59 33.1404 647.59 32.7721C647.59 32.4038 647.498 32.0769 647.314 31.7914C647.134 31.506 646.881 31.285 646.554 31.1285C646.232 30.9673 645.863 30.8867 645.449 30.8867C645.03 30.8867 644.657 30.9673 644.33 31.1285C644.008 31.285 643.757 31.506 643.578 31.7914C643.398 32.0769 643.308 32.4038 643.308 32.7721C643.308 33.1404 643.398 33.4719 643.578 33.7666C643.762 34.0566 644.017 34.2845 644.344 34.4503C644.671 34.6114 645.039 34.692 645.449 34.692ZM658.203 43.1934C657.231 43.1934 656.357 43.0161 655.578 42.6616C654.8 42.3025 654.186 41.8076 653.735 41.1768C653.288 40.5414 653.055 39.8232 653.037 39.0221H655.889C655.912 39.3812 656.03 39.7035 656.241 39.989C656.453 40.2698 656.729 40.4885 657.07 40.645C657.415 40.8016 657.793 40.8798 658.203 40.8798C658.686 40.8798 659.117 40.7739 659.494 40.5622C659.876 40.3458 660.173 40.0488 660.385 39.6713C660.597 39.2891 660.703 38.8541 660.703 38.366C660.703 37.878 660.595 37.4406 660.378 37.0539C660.162 36.6671 659.858 36.3656 659.467 36.1492C659.08 35.9328 658.642 35.8223 658.154 35.8177C657.625 35.8177 657.174 35.9167 656.801 36.1146C656.433 36.3126 656.147 36.6073 655.944 36.9986H653.272L654.045 28.8564H662.747V31.2666H656.462L656.076 34.837H656.186C656.361 34.6022 656.591 34.395 656.877 34.2155C657.167 34.0359 657.494 33.8955 657.857 33.7942C658.226 33.6883 658.615 33.6354 659.025 33.6354C659.881 33.6354 660.652 33.8356 661.338 34.2362C662.029 34.6321 662.567 35.1846 662.954 35.8936C663.346 36.6027 663.541 37.4015 663.541 38.2901C663.541 39.2339 663.318 40.0787 662.871 40.8246C662.425 41.5658 661.796 42.1459 660.986 42.5649C660.176 42.9839 659.248 43.1934 658.203 43.1934Z" fill="#4776E6"/>
<path d="M685 171H138L407.478 74.8225L586.862 62L685 100.476V171Z" fill="#3E52E9" fill-opacity="0.7"/>
</svg>
