<svg width="20" height="21" viewBox="0 0 20 21" fill="none" xmlns="http://www.w3.org/2000/svg">
<path d="M4.69667 15.6187C5.92371 16.8458 7.53828 17.6094 9.26524 17.7794C10.9922 17.9494 12.7247 17.5153 14.1674 16.551C15.6102 15.5868 16.6739 14.1521 17.1774 12.4914C17.6809 10.8308 17.5929 9.0469 16.9285 7.44383C16.2641 5.84075 15.0643 4.51768 13.5337 3.70008C12.0031 2.88247 10.2363 2.62093 8.53443 2.96003C6.83258 3.29912 5.30097 4.21787 4.20061 5.5597C3.10025 6.90153 2.49924 8.5834 2.5 10.3187V11.982" stroke="#C3C3C3" stroke-width="1.66667" stroke-linecap="round" stroke-linejoin="round"/>
<path d="M0.833313 10.3158L2.49998 11.9824L4.16665 10.3158M9.16665 6.98242V11.1491H13.3333" stroke="#C3C3C3" stroke-width="1.66667" stroke-linecap="round" stroke-linejoin="round"/>
</svg>
