<svg width="20" height="21" viewBox="0 0 20 21" fill="none" xmlns="http://www.w3.org/2000/svg">
<path d="M8.75 18C8.75 18 7.5 18 7.5 16.75C7.5 15.5 8.75 11.75 13.75 11.75C18.75 11.75 20 15.5 20 16.75C20 18 18.75 18 18.75 18H8.75ZM13.75 10.5C14.7446 10.5 15.6984 10.1049 16.4017 9.40165C17.1049 8.69839 17.5 7.74456 17.5 6.75C17.5 5.75544 17.1049 4.80161 16.4017 4.09835C15.6984 3.39509 14.7446 3 13.75 3C12.7554 3 11.8016 3.39509 11.0983 4.09835C10.3951 4.80161 10 5.75544 10 6.75C10 7.74456 10.3951 8.69839 11.0983 9.40165C11.8016 10.1049 12.7554 10.5 13.75 10.5ZM6.52 18C6.33469 17.6098 6.24228 17.1819 6.25 16.75C6.25 15.0562 7.1 13.3125 8.67 12.1C7.88636 11.8585 7.06994 11.7405 6.25 11.75C1.25 11.75 0 15.5 0 16.75C0 18 1.25 18 1.25 18H6.52ZM5.625 10.5C6.4538 10.5 7.24866 10.1708 7.83471 9.58471C8.42076 8.99866 8.75 8.2038 8.75 7.375C8.75 6.5462 8.42076 5.75134 7.83471 5.16529C7.24866 4.57924 6.4538 4.25 5.625 4.25C4.7962 4.25 4.00134 4.57924 3.41529 5.16529C2.82924 5.75134 2.5 6.5462 2.5 7.375C2.5 8.2038 2.82924 8.99866 3.41529 9.58471C4.00134 10.1708 4.7962 10.5 5.625 10.5Z" fill="#C3C3C3"/>
</svg>
